%TF.GenerationSoftware,KiCad,Pcbnew,8.0.9-rc1*%
%TF.CreationDate,2026-08-25T17:09:45-06:00*%
%TF.ProjectId,corvo-ergogen-final,636f7276-6f2d-4657-9267-6f67656e2d66,v1.0.0*%
%TF.SameCoordinates,Original*%
%TF.FileFunction,Legend,Bot*%
%TF.FilePolarity,Positive*%
%FSLAX46Y46*%
G04 Gerber Fmt 4.6, Leading zero omitted, Abs format (unit mm)*
G04 Created by KiCad (PCBNEW 8.0.9-rc1) date 2026-08-25 17:09:45*
%MOMM*%
%LPD*%
G01*
G04 APERTURE LIST*
%ADD10C,0.150000*%
%ADD11C,0.100000*%
%ADD12C,0.120000*%
G04 APERTURE END LIST*
D10*
X220760715Y-141812256D02*
X220855953Y-141859875D01*
X220855953Y-141859875D02*
X221046429Y-141859875D01*
X221046429Y-141859875D02*
X221141667Y-141812256D01*
X221141667Y-141812256D02*
X221189286Y-141764636D01*
X221189286Y-141764636D02*
X221236905Y-141669398D01*
X221236905Y-141669398D02*
X221236905Y-141383684D01*
X221236905Y-141383684D02*
X221189286Y-141288446D01*
X221189286Y-141288446D02*
X221141667Y-141240827D01*
X221141667Y-141240827D02*
X221046429Y-141193208D01*
X221046429Y-141193208D02*
X220855953Y-141193208D01*
X220855953Y-141193208D02*
X220760715Y-141240827D01*
X220189286Y-141859875D02*
X220284524Y-141812256D01*
X220284524Y-141812256D02*
X220332143Y-141764636D01*
X220332143Y-141764636D02*
X220379762Y-141669398D01*
X220379762Y-141669398D02*
X220379762Y-141383684D01*
X220379762Y-141383684D02*
X220332143Y-141288446D01*
X220332143Y-141288446D02*
X220284524Y-141240827D01*
X220284524Y-141240827D02*
X220189286Y-141193208D01*
X220189286Y-141193208D02*
X220046429Y-141193208D01*
X220046429Y-141193208D02*
X219951191Y-141240827D01*
X219951191Y-141240827D02*
X219903572Y-141288446D01*
X219903572Y-141288446D02*
X219855953Y-141383684D01*
X219855953Y-141383684D02*
X219855953Y-141669398D01*
X219855953Y-141669398D02*
X219903572Y-141764636D01*
X219903572Y-141764636D02*
X219951191Y-141812256D01*
X219951191Y-141812256D02*
X220046429Y-141859875D01*
X220046429Y-141859875D02*
X220189286Y-141859875D01*
X219427381Y-141859875D02*
X219427381Y-141193208D01*
X219427381Y-141383684D02*
X219379762Y-141288446D01*
X219379762Y-141288446D02*
X219332143Y-141240827D01*
X219332143Y-141240827D02*
X219236905Y-141193208D01*
X219236905Y-141193208D02*
X219141667Y-141193208D01*
X218903571Y-141193208D02*
X218665476Y-141859875D01*
X218665476Y-141859875D02*
X218427381Y-141193208D01*
X217903571Y-141859875D02*
X217998809Y-141812256D01*
X217998809Y-141812256D02*
X218046428Y-141764636D01*
X218046428Y-141764636D02*
X218094047Y-141669398D01*
X218094047Y-141669398D02*
X218094047Y-141383684D01*
X218094047Y-141383684D02*
X218046428Y-141288446D01*
X218046428Y-141288446D02*
X217998809Y-141240827D01*
X217998809Y-141240827D02*
X217903571Y-141193208D01*
X217903571Y-141193208D02*
X217760714Y-141193208D01*
X217760714Y-141193208D02*
X217665476Y-141240827D01*
X217665476Y-141240827D02*
X217617857Y-141288446D01*
X217617857Y-141288446D02*
X217570238Y-141383684D01*
X217570238Y-141383684D02*
X217570238Y-141669398D01*
X217570238Y-141669398D02*
X217617857Y-141764636D01*
X217617857Y-141764636D02*
X217665476Y-141812256D01*
X217665476Y-141812256D02*
X217760714Y-141859875D01*
X217760714Y-141859875D02*
X217903571Y-141859875D01*
X216379761Y-141478922D02*
X215617857Y-141478922D01*
X214522618Y-141193208D02*
X214141666Y-141193208D01*
X214379761Y-140859875D02*
X214379761Y-141717017D01*
X214379761Y-141717017D02*
X214332142Y-141812256D01*
X214332142Y-141812256D02*
X214236904Y-141859875D01*
X214236904Y-141859875D02*
X214141666Y-141859875D01*
X213808332Y-141859875D02*
X213808332Y-140859875D01*
X213379761Y-141859875D02*
X213379761Y-141336065D01*
X213379761Y-141336065D02*
X213427380Y-141240827D01*
X213427380Y-141240827D02*
X213522618Y-141193208D01*
X213522618Y-141193208D02*
X213665475Y-141193208D01*
X213665475Y-141193208D02*
X213760713Y-141240827D01*
X213760713Y-141240827D02*
X213808332Y-141288446D01*
X212522618Y-141812256D02*
X212617856Y-141859875D01*
X212617856Y-141859875D02*
X212808332Y-141859875D01*
X212808332Y-141859875D02*
X212903570Y-141812256D01*
X212903570Y-141812256D02*
X212951189Y-141717017D01*
X212951189Y-141717017D02*
X212951189Y-141336065D01*
X212951189Y-141336065D02*
X212903570Y-141240827D01*
X212903570Y-141240827D02*
X212808332Y-141193208D01*
X212808332Y-141193208D02*
X212617856Y-141193208D01*
X212617856Y-141193208D02*
X212522618Y-141240827D01*
X212522618Y-141240827D02*
X212474999Y-141336065D01*
X212474999Y-141336065D02*
X212474999Y-141431303D01*
X212474999Y-141431303D02*
X212951189Y-141526541D01*
X212046427Y-141859875D02*
X212046427Y-140859875D01*
X212046427Y-141240827D02*
X211951189Y-141193208D01*
X211951189Y-141193208D02*
X211760713Y-141193208D01*
X211760713Y-141193208D02*
X211665475Y-141240827D01*
X211665475Y-141240827D02*
X211617856Y-141288446D01*
X211617856Y-141288446D02*
X211570237Y-141383684D01*
X211570237Y-141383684D02*
X211570237Y-141669398D01*
X211570237Y-141669398D02*
X211617856Y-141764636D01*
X211617856Y-141764636D02*
X211665475Y-141812256D01*
X211665475Y-141812256D02*
X211760713Y-141859875D01*
X211760713Y-141859875D02*
X211951189Y-141859875D01*
X211951189Y-141859875D02*
X212046427Y-141812256D01*
X210951189Y-140859875D02*
X210855951Y-140859875D01*
X210855951Y-140859875D02*
X210760713Y-140907494D01*
X210760713Y-140907494D02*
X210713094Y-140955113D01*
X210713094Y-140955113D02*
X210665475Y-141050351D01*
X210665475Y-141050351D02*
X210617856Y-141240827D01*
X210617856Y-141240827D02*
X210617856Y-141478922D01*
X210617856Y-141478922D02*
X210665475Y-141669398D01*
X210665475Y-141669398D02*
X210713094Y-141764636D01*
X210713094Y-141764636D02*
X210760713Y-141812256D01*
X210760713Y-141812256D02*
X210855951Y-141859875D01*
X210855951Y-141859875D02*
X210951189Y-141859875D01*
X210951189Y-141859875D02*
X211046427Y-141812256D01*
X211046427Y-141812256D02*
X211094046Y-141764636D01*
X211094046Y-141764636D02*
X211141665Y-141669398D01*
X211141665Y-141669398D02*
X211189284Y-141478922D01*
X211189284Y-141478922D02*
X211189284Y-141240827D01*
X211189284Y-141240827D02*
X211141665Y-141050351D01*
X211141665Y-141050351D02*
X211094046Y-140955113D01*
X211094046Y-140955113D02*
X211046427Y-140907494D01*
X211046427Y-140907494D02*
X210951189Y-140859875D01*
X210189284Y-141859875D02*
X210189284Y-140859875D01*
X210189284Y-141240827D02*
X210094046Y-141193208D01*
X210094046Y-141193208D02*
X209903570Y-141193208D01*
X209903570Y-141193208D02*
X209808332Y-141240827D01*
X209808332Y-141240827D02*
X209760713Y-141288446D01*
X209760713Y-141288446D02*
X209713094Y-141383684D01*
X209713094Y-141383684D02*
X209713094Y-141669398D01*
X209713094Y-141669398D02*
X209760713Y-141764636D01*
X209760713Y-141764636D02*
X209808332Y-141812256D01*
X209808332Y-141812256D02*
X209903570Y-141859875D01*
X209903570Y-141859875D02*
X210094046Y-141859875D01*
X210094046Y-141859875D02*
X210189284Y-141812256D01*
X218522618Y-142898390D02*
X218617856Y-142850771D01*
X218617856Y-142850771D02*
X218665475Y-142803152D01*
X218665475Y-142803152D02*
X218713094Y-142707914D01*
X218713094Y-142707914D02*
X218713094Y-142660295D01*
X218713094Y-142660295D02*
X218665475Y-142565057D01*
X218665475Y-142565057D02*
X218617856Y-142517438D01*
X218617856Y-142517438D02*
X218522618Y-142469819D01*
X218522618Y-142469819D02*
X218332142Y-142469819D01*
X218332142Y-142469819D02*
X218236904Y-142517438D01*
X218236904Y-142517438D02*
X218189285Y-142565057D01*
X218189285Y-142565057D02*
X218141666Y-142660295D01*
X218141666Y-142660295D02*
X218141666Y-142707914D01*
X218141666Y-142707914D02*
X218189285Y-142803152D01*
X218189285Y-142803152D02*
X218236904Y-142850771D01*
X218236904Y-142850771D02*
X218332142Y-142898390D01*
X218332142Y-142898390D02*
X218522618Y-142898390D01*
X218522618Y-142898390D02*
X218617856Y-142946009D01*
X218617856Y-142946009D02*
X218665475Y-142993628D01*
X218665475Y-142993628D02*
X218713094Y-143088866D01*
X218713094Y-143088866D02*
X218713094Y-143279342D01*
X218713094Y-143279342D02*
X218665475Y-143374580D01*
X218665475Y-143374580D02*
X218617856Y-143422200D01*
X218617856Y-143422200D02*
X218522618Y-143469819D01*
X218522618Y-143469819D02*
X218332142Y-143469819D01*
X218332142Y-143469819D02*
X218236904Y-143422200D01*
X218236904Y-143422200D02*
X218189285Y-143374580D01*
X218189285Y-143374580D02*
X218141666Y-143279342D01*
X218141666Y-143279342D02*
X218141666Y-143088866D01*
X218141666Y-143088866D02*
X218189285Y-142993628D01*
X218189285Y-142993628D02*
X218236904Y-142946009D01*
X218236904Y-142946009D02*
X218332142Y-142898390D01*
X216998809Y-142422200D02*
X217855951Y-143707914D01*
X216713094Y-142565057D02*
X216665475Y-142517438D01*
X216665475Y-142517438D02*
X216570237Y-142469819D01*
X216570237Y-142469819D02*
X216332142Y-142469819D01*
X216332142Y-142469819D02*
X216236904Y-142517438D01*
X216236904Y-142517438D02*
X216189285Y-142565057D01*
X216189285Y-142565057D02*
X216141666Y-142660295D01*
X216141666Y-142660295D02*
X216141666Y-142755533D01*
X216141666Y-142755533D02*
X216189285Y-142898390D01*
X216189285Y-142898390D02*
X216760713Y-143469819D01*
X216760713Y-143469819D02*
X216141666Y-143469819D01*
X215236904Y-142469819D02*
X215713094Y-142469819D01*
X215713094Y-142469819D02*
X215760713Y-142946009D01*
X215760713Y-142946009D02*
X215713094Y-142898390D01*
X215713094Y-142898390D02*
X215617856Y-142850771D01*
X215617856Y-142850771D02*
X215379761Y-142850771D01*
X215379761Y-142850771D02*
X215284523Y-142898390D01*
X215284523Y-142898390D02*
X215236904Y-142946009D01*
X215236904Y-142946009D02*
X215189285Y-143041247D01*
X215189285Y-143041247D02*
X215189285Y-143279342D01*
X215189285Y-143279342D02*
X215236904Y-143374580D01*
X215236904Y-143374580D02*
X215284523Y-143422200D01*
X215284523Y-143422200D02*
X215379761Y-143469819D01*
X215379761Y-143469819D02*
X215617856Y-143469819D01*
X215617856Y-143469819D02*
X215713094Y-143422200D01*
X215713094Y-143422200D02*
X215760713Y-143374580D01*
X214046428Y-142422200D02*
X214903570Y-143707914D01*
X213760713Y-142565057D02*
X213713094Y-142517438D01*
X213713094Y-142517438D02*
X213617856Y-142469819D01*
X213617856Y-142469819D02*
X213379761Y-142469819D01*
X213379761Y-142469819D02*
X213284523Y-142517438D01*
X213284523Y-142517438D02*
X213236904Y-142565057D01*
X213236904Y-142565057D02*
X213189285Y-142660295D01*
X213189285Y-142660295D02*
X213189285Y-142755533D01*
X213189285Y-142755533D02*
X213236904Y-142898390D01*
X213236904Y-142898390D02*
X213808332Y-143469819D01*
X213808332Y-143469819D02*
X213189285Y-143469819D01*
X212332142Y-142469819D02*
X212522618Y-142469819D01*
X212522618Y-142469819D02*
X212617856Y-142517438D01*
X212617856Y-142517438D02*
X212665475Y-142565057D01*
X212665475Y-142565057D02*
X212760713Y-142707914D01*
X212760713Y-142707914D02*
X212808332Y-142898390D01*
X212808332Y-142898390D02*
X212808332Y-143279342D01*
X212808332Y-143279342D02*
X212760713Y-143374580D01*
X212760713Y-143374580D02*
X212713094Y-143422200D01*
X212713094Y-143422200D02*
X212617856Y-143469819D01*
X212617856Y-143469819D02*
X212427380Y-143469819D01*
X212427380Y-143469819D02*
X212332142Y-143422200D01*
X212332142Y-143422200D02*
X212284523Y-143374580D01*
X212284523Y-143374580D02*
X212236904Y-143279342D01*
X212236904Y-143279342D02*
X212236904Y-143041247D01*
X212236904Y-143041247D02*
X212284523Y-142946009D01*
X212284523Y-142946009D02*
X212332142Y-142898390D01*
X212332142Y-142898390D02*
X212427380Y-142850771D01*
X212427380Y-142850771D02*
X212617856Y-142850771D01*
X212617856Y-142850771D02*
X212713094Y-142898390D01*
X212713094Y-142898390D02*
X212760713Y-142946009D01*
X212760713Y-142946009D02*
X212808332Y-143041247D01*
X252377466Y-97579078D02*
X252044133Y-98579078D01*
X252044133Y-98579078D02*
X251710800Y-97579078D01*
X250806038Y-98483839D02*
X250853657Y-98531459D01*
X250853657Y-98531459D02*
X250996514Y-98579078D01*
X250996514Y-98579078D02*
X251091752Y-98579078D01*
X251091752Y-98579078D02*
X251234609Y-98531459D01*
X251234609Y-98531459D02*
X251329847Y-98436220D01*
X251329847Y-98436220D02*
X251377466Y-98340982D01*
X251377466Y-98340982D02*
X251425085Y-98150506D01*
X251425085Y-98150506D02*
X251425085Y-98007649D01*
X251425085Y-98007649D02*
X251377466Y-97817173D01*
X251377466Y-97817173D02*
X251329847Y-97721935D01*
X251329847Y-97721935D02*
X251234609Y-97626697D01*
X251234609Y-97626697D02*
X251091752Y-97579078D01*
X251091752Y-97579078D02*
X250996514Y-97579078D01*
X250996514Y-97579078D02*
X250853657Y-97626697D01*
X250853657Y-97626697D02*
X250806038Y-97674316D01*
X249806038Y-98483839D02*
X249853657Y-98531459D01*
X249853657Y-98531459D02*
X249996514Y-98579078D01*
X249996514Y-98579078D02*
X250091752Y-98579078D01*
X250091752Y-98579078D02*
X250234609Y-98531459D01*
X250234609Y-98531459D02*
X250329847Y-98436220D01*
X250329847Y-98436220D02*
X250377466Y-98340982D01*
X250377466Y-98340982D02*
X250425085Y-98150506D01*
X250425085Y-98150506D02*
X250425085Y-98007649D01*
X250425085Y-98007649D02*
X250377466Y-97817173D01*
X250377466Y-97817173D02*
X250329847Y-97721935D01*
X250329847Y-97721935D02*
X250234609Y-97626697D01*
X250234609Y-97626697D02*
X250091752Y-97579078D01*
X250091752Y-97579078D02*
X249996514Y-97579078D01*
X249996514Y-97579078D02*
X249853657Y-97626697D01*
X249853657Y-97626697D02*
X249806038Y-97674316D01*
X254706038Y-97626697D02*
X254801276Y-97579078D01*
X254801276Y-97579078D02*
X254944133Y-97579078D01*
X254944133Y-97579078D02*
X255086990Y-97626697D01*
X255086990Y-97626697D02*
X255182228Y-97721935D01*
X255182228Y-97721935D02*
X255229847Y-97817173D01*
X255229847Y-97817173D02*
X255277466Y-98007649D01*
X255277466Y-98007649D02*
X255277466Y-98150506D01*
X255277466Y-98150506D02*
X255229847Y-98340982D01*
X255229847Y-98340982D02*
X255182228Y-98436220D01*
X255182228Y-98436220D02*
X255086990Y-98531459D01*
X255086990Y-98531459D02*
X254944133Y-98579078D01*
X254944133Y-98579078D02*
X254848895Y-98579078D01*
X254848895Y-98579078D02*
X254706038Y-98531459D01*
X254706038Y-98531459D02*
X254658419Y-98483839D01*
X254658419Y-98483839D02*
X254658419Y-98150506D01*
X254658419Y-98150506D02*
X254848895Y-98150506D01*
X254229847Y-98579078D02*
X254229847Y-97579078D01*
X254229847Y-97579078D02*
X253658419Y-98579078D01*
X253658419Y-98579078D02*
X253658419Y-97579078D01*
X253182228Y-98579078D02*
X253182228Y-97579078D01*
X253182228Y-97579078D02*
X252944133Y-97579078D01*
X252944133Y-97579078D02*
X252801276Y-97626697D01*
X252801276Y-97626697D02*
X252706038Y-97721935D01*
X252706038Y-97721935D02*
X252658419Y-97817173D01*
X252658419Y-97817173D02*
X252610800Y-98007649D01*
X252610800Y-98007649D02*
X252610800Y-98150506D01*
X252610800Y-98150506D02*
X252658419Y-98340982D01*
X252658419Y-98340982D02*
X252706038Y-98436220D01*
X252706038Y-98436220D02*
X252801276Y-98531459D01*
X252801276Y-98531459D02*
X252944133Y-98579078D01*
X252944133Y-98579078D02*
X253182228Y-98579078D01*
X255272228Y-113819078D02*
X255272228Y-112819078D01*
X255272228Y-112819078D02*
X254891276Y-112819078D01*
X254891276Y-112819078D02*
X254796038Y-112866697D01*
X254796038Y-112866697D02*
X254748419Y-112914316D01*
X254748419Y-112914316D02*
X254700800Y-113009554D01*
X254700800Y-113009554D02*
X254700800Y-113152411D01*
X254700800Y-113152411D02*
X254748419Y-113247649D01*
X254748419Y-113247649D02*
X254796038Y-113295268D01*
X254796038Y-113295268D02*
X254891276Y-113342887D01*
X254891276Y-113342887D02*
X255272228Y-113342887D01*
X254367466Y-112819078D02*
X253700800Y-112819078D01*
X253700800Y-112819078D02*
X254129371Y-113819078D01*
X251734610Y-90959078D02*
X252067943Y-90482887D01*
X252306038Y-90959078D02*
X252306038Y-89959078D01*
X252306038Y-89959078D02*
X251925086Y-89959078D01*
X251925086Y-89959078D02*
X251829848Y-90006697D01*
X251829848Y-90006697D02*
X251782229Y-90054316D01*
X251782229Y-90054316D02*
X251734610Y-90149554D01*
X251734610Y-90149554D02*
X251734610Y-90292411D01*
X251734610Y-90292411D02*
X251782229Y-90387649D01*
X251782229Y-90387649D02*
X251829848Y-90435268D01*
X251829848Y-90435268D02*
X251925086Y-90482887D01*
X251925086Y-90482887D02*
X252306038Y-90482887D01*
X251353657Y-90673363D02*
X250877467Y-90673363D01*
X251448895Y-90959078D02*
X251115562Y-89959078D01*
X251115562Y-89959078D02*
X250782229Y-90959078D01*
X250544133Y-89959078D02*
X250306038Y-90959078D01*
X250306038Y-90959078D02*
X250115562Y-90244792D01*
X250115562Y-90244792D02*
X249925086Y-90959078D01*
X249925086Y-90959078D02*
X249686991Y-89959078D01*
X261565563Y-88366459D02*
X261470325Y-88414078D01*
X261470325Y-88414078D02*
X261279849Y-88414078D01*
X261279849Y-88414078D02*
X261184611Y-88366459D01*
X261184611Y-88366459D02*
X261136992Y-88271220D01*
X261136992Y-88271220D02*
X261136992Y-88223601D01*
X261136992Y-88223601D02*
X261184611Y-88128363D01*
X261184611Y-88128363D02*
X261279849Y-88080744D01*
X261279849Y-88080744D02*
X261422706Y-88080744D01*
X261422706Y-88080744D02*
X261517944Y-88033125D01*
X261517944Y-88033125D02*
X261565563Y-87937887D01*
X261565563Y-87937887D02*
X261565563Y-87890268D01*
X261565563Y-87890268D02*
X261517944Y-87795030D01*
X261517944Y-87795030D02*
X261422706Y-87747411D01*
X261422706Y-87747411D02*
X261279849Y-87747411D01*
X261279849Y-87747411D02*
X261184611Y-87795030D01*
X260565563Y-88414078D02*
X260660801Y-88366459D01*
X260660801Y-88366459D02*
X260708420Y-88318839D01*
X260708420Y-88318839D02*
X260756039Y-88223601D01*
X260756039Y-88223601D02*
X260756039Y-87937887D01*
X260756039Y-87937887D02*
X260708420Y-87842649D01*
X260708420Y-87842649D02*
X260660801Y-87795030D01*
X260660801Y-87795030D02*
X260565563Y-87747411D01*
X260565563Y-87747411D02*
X260422706Y-87747411D01*
X260422706Y-87747411D02*
X260327468Y-87795030D01*
X260327468Y-87795030D02*
X260279849Y-87842649D01*
X260279849Y-87842649D02*
X260232230Y-87937887D01*
X260232230Y-87937887D02*
X260232230Y-88223601D01*
X260232230Y-88223601D02*
X260279849Y-88318839D01*
X260279849Y-88318839D02*
X260327468Y-88366459D01*
X260327468Y-88366459D02*
X260422706Y-88414078D01*
X260422706Y-88414078D02*
X260565563Y-88414078D01*
X259660801Y-88414078D02*
X259756039Y-88366459D01*
X259756039Y-88366459D02*
X259803658Y-88271220D01*
X259803658Y-88271220D02*
X259803658Y-87414078D01*
X258851277Y-88414078D02*
X258851277Y-87414078D01*
X258851277Y-88366459D02*
X258946515Y-88414078D01*
X258946515Y-88414078D02*
X259136991Y-88414078D01*
X259136991Y-88414078D02*
X259232229Y-88366459D01*
X259232229Y-88366459D02*
X259279848Y-88318839D01*
X259279848Y-88318839D02*
X259327467Y-88223601D01*
X259327467Y-88223601D02*
X259327467Y-87937887D01*
X259327467Y-87937887D02*
X259279848Y-87842649D01*
X259279848Y-87842649D02*
X259232229Y-87795030D01*
X259232229Y-87795030D02*
X259136991Y-87747411D01*
X259136991Y-87747411D02*
X258946515Y-87747411D01*
X258946515Y-87747411D02*
X258851277Y-87795030D01*
X257994134Y-88366459D02*
X258089372Y-88414078D01*
X258089372Y-88414078D02*
X258279848Y-88414078D01*
X258279848Y-88414078D02*
X258375086Y-88366459D01*
X258375086Y-88366459D02*
X258422705Y-88271220D01*
X258422705Y-88271220D02*
X258422705Y-87890268D01*
X258422705Y-87890268D02*
X258375086Y-87795030D01*
X258375086Y-87795030D02*
X258279848Y-87747411D01*
X258279848Y-87747411D02*
X258089372Y-87747411D01*
X258089372Y-87747411D02*
X257994134Y-87795030D01*
X257994134Y-87795030D02*
X257946515Y-87890268D01*
X257946515Y-87890268D02*
X257946515Y-87985506D01*
X257946515Y-87985506D02*
X258422705Y-88080744D01*
X257517943Y-88414078D02*
X257517943Y-87747411D01*
X257517943Y-87937887D02*
X257470324Y-87842649D01*
X257470324Y-87842649D02*
X257422705Y-87795030D01*
X257422705Y-87795030D02*
X257327467Y-87747411D01*
X257327467Y-87747411D02*
X257232229Y-87747411D01*
X256136990Y-87747411D02*
X256136990Y-88604554D01*
X256136990Y-88604554D02*
X256184609Y-88699792D01*
X256184609Y-88699792D02*
X256279847Y-88747411D01*
X256279847Y-88747411D02*
X256327466Y-88747411D01*
X256136990Y-87414078D02*
X256184609Y-87461697D01*
X256184609Y-87461697D02*
X256136990Y-87509316D01*
X256136990Y-87509316D02*
X256089371Y-87461697D01*
X256089371Y-87461697D02*
X256136990Y-87414078D01*
X256136990Y-87414078D02*
X256136990Y-87509316D01*
X255232229Y-87747411D02*
X255232229Y-88414078D01*
X255660800Y-87747411D02*
X255660800Y-88271220D01*
X255660800Y-88271220D02*
X255613181Y-88366459D01*
X255613181Y-88366459D02*
X255517943Y-88414078D01*
X255517943Y-88414078D02*
X255375086Y-88414078D01*
X255375086Y-88414078D02*
X255279848Y-88366459D01*
X255279848Y-88366459D02*
X255232229Y-88318839D01*
X254756038Y-88414078D02*
X254756038Y-87747411D01*
X254756038Y-87842649D02*
X254708419Y-87795030D01*
X254708419Y-87795030D02*
X254613181Y-87747411D01*
X254613181Y-87747411D02*
X254470324Y-87747411D01*
X254470324Y-87747411D02*
X254375086Y-87795030D01*
X254375086Y-87795030D02*
X254327467Y-87890268D01*
X254327467Y-87890268D02*
X254327467Y-88414078D01*
X254327467Y-87890268D02*
X254279848Y-87795030D01*
X254279848Y-87795030D02*
X254184610Y-87747411D01*
X254184610Y-87747411D02*
X254041753Y-87747411D01*
X254041753Y-87747411D02*
X253946514Y-87795030D01*
X253946514Y-87795030D02*
X253898895Y-87890268D01*
X253898895Y-87890268D02*
X253898895Y-88414078D01*
X253422705Y-87747411D02*
X253422705Y-88747411D01*
X253422705Y-87795030D02*
X253327467Y-87747411D01*
X253327467Y-87747411D02*
X253136991Y-87747411D01*
X253136991Y-87747411D02*
X253041753Y-87795030D01*
X253041753Y-87795030D02*
X252994134Y-87842649D01*
X252994134Y-87842649D02*
X252946515Y-87937887D01*
X252946515Y-87937887D02*
X252946515Y-88223601D01*
X252946515Y-88223601D02*
X252994134Y-88318839D01*
X252994134Y-88318839D02*
X253041753Y-88366459D01*
X253041753Y-88366459D02*
X253136991Y-88414078D01*
X253136991Y-88414078D02*
X253327467Y-88414078D01*
X253327467Y-88414078D02*
X253422705Y-88366459D01*
X252136991Y-88366459D02*
X252232229Y-88414078D01*
X252232229Y-88414078D02*
X252422705Y-88414078D01*
X252422705Y-88414078D02*
X252517943Y-88366459D01*
X252517943Y-88366459D02*
X252565562Y-88271220D01*
X252565562Y-88271220D02*
X252565562Y-87890268D01*
X252565562Y-87890268D02*
X252517943Y-87795030D01*
X252517943Y-87795030D02*
X252422705Y-87747411D01*
X252422705Y-87747411D02*
X252232229Y-87747411D01*
X252232229Y-87747411D02*
X252136991Y-87795030D01*
X252136991Y-87795030D02*
X252089372Y-87890268D01*
X252089372Y-87890268D02*
X252089372Y-87985506D01*
X252089372Y-87985506D02*
X252565562Y-88080744D01*
X251660800Y-88414078D02*
X251660800Y-87747411D01*
X251660800Y-87937887D02*
X251613181Y-87842649D01*
X251613181Y-87842649D02*
X251565562Y-87795030D01*
X251565562Y-87795030D02*
X251470324Y-87747411D01*
X251470324Y-87747411D02*
X251375086Y-87747411D01*
X251089371Y-88366459D02*
X250994133Y-88414078D01*
X250994133Y-88414078D02*
X250803657Y-88414078D01*
X250803657Y-88414078D02*
X250708419Y-88366459D01*
X250708419Y-88366459D02*
X250660800Y-88271220D01*
X250660800Y-88271220D02*
X250660800Y-88223601D01*
X250660800Y-88223601D02*
X250708419Y-88128363D01*
X250708419Y-88128363D02*
X250803657Y-88080744D01*
X250803657Y-88080744D02*
X250946514Y-88080744D01*
X250946514Y-88080744D02*
X251041752Y-88033125D01*
X251041752Y-88033125D02*
X251089371Y-87937887D01*
X251089371Y-87937887D02*
X251089371Y-87890268D01*
X251089371Y-87890268D02*
X251041752Y-87795030D01*
X251041752Y-87795030D02*
X250946514Y-87747411D01*
X250946514Y-87747411D02*
X250803657Y-87747411D01*
X250803657Y-87747411D02*
X250708419Y-87795030D01*
X249184609Y-88795030D02*
X249232228Y-88747411D01*
X249232228Y-88747411D02*
X249327466Y-88604554D01*
X249327466Y-88604554D02*
X249375085Y-88509316D01*
X249375085Y-88509316D02*
X249422704Y-88366459D01*
X249422704Y-88366459D02*
X249470323Y-88128363D01*
X249470323Y-88128363D02*
X249470323Y-87937887D01*
X249470323Y-87937887D02*
X249422704Y-87699792D01*
X249422704Y-87699792D02*
X249375085Y-87556935D01*
X249375085Y-87556935D02*
X249327466Y-87461697D01*
X249327466Y-87461697D02*
X249232228Y-87318839D01*
X249232228Y-87318839D02*
X249184609Y-87271220D01*
X248327466Y-88414078D02*
X248803656Y-88414078D01*
X248803656Y-88414078D02*
X248803656Y-87414078D01*
X246898894Y-87890268D02*
X246756037Y-87937887D01*
X246756037Y-87937887D02*
X246708418Y-87985506D01*
X246708418Y-87985506D02*
X246660799Y-88080744D01*
X246660799Y-88080744D02*
X246660799Y-88223601D01*
X246660799Y-88223601D02*
X246708418Y-88318839D01*
X246708418Y-88318839D02*
X246756037Y-88366459D01*
X246756037Y-88366459D02*
X246851275Y-88414078D01*
X246851275Y-88414078D02*
X247232227Y-88414078D01*
X247232227Y-88414078D02*
X247232227Y-87414078D01*
X247232227Y-87414078D02*
X246898894Y-87414078D01*
X246898894Y-87414078D02*
X246803656Y-87461697D01*
X246803656Y-87461697D02*
X246756037Y-87509316D01*
X246756037Y-87509316D02*
X246708418Y-87604554D01*
X246708418Y-87604554D02*
X246708418Y-87699792D01*
X246708418Y-87699792D02*
X246756037Y-87795030D01*
X246756037Y-87795030D02*
X246803656Y-87842649D01*
X246803656Y-87842649D02*
X246898894Y-87890268D01*
X246898894Y-87890268D02*
X247232227Y-87890268D01*
X245803656Y-88414078D02*
X245803656Y-87890268D01*
X245803656Y-87890268D02*
X245851275Y-87795030D01*
X245851275Y-87795030D02*
X245946513Y-87747411D01*
X245946513Y-87747411D02*
X246136989Y-87747411D01*
X246136989Y-87747411D02*
X246232227Y-87795030D01*
X245803656Y-88366459D02*
X245898894Y-88414078D01*
X245898894Y-88414078D02*
X246136989Y-88414078D01*
X246136989Y-88414078D02*
X246232227Y-88366459D01*
X246232227Y-88366459D02*
X246279846Y-88271220D01*
X246279846Y-88271220D02*
X246279846Y-88175982D01*
X246279846Y-88175982D02*
X246232227Y-88080744D01*
X246232227Y-88080744D02*
X246136989Y-88033125D01*
X246136989Y-88033125D02*
X245898894Y-88033125D01*
X245898894Y-88033125D02*
X245803656Y-87985506D01*
X244898894Y-88366459D02*
X244994132Y-88414078D01*
X244994132Y-88414078D02*
X245184608Y-88414078D01*
X245184608Y-88414078D02*
X245279846Y-88366459D01*
X245279846Y-88366459D02*
X245327465Y-88318839D01*
X245327465Y-88318839D02*
X245375084Y-88223601D01*
X245375084Y-88223601D02*
X245375084Y-87937887D01*
X245375084Y-87937887D02*
X245327465Y-87842649D01*
X245327465Y-87842649D02*
X245279846Y-87795030D01*
X245279846Y-87795030D02*
X245184608Y-87747411D01*
X245184608Y-87747411D02*
X244994132Y-87747411D01*
X244994132Y-87747411D02*
X244898894Y-87795030D01*
X244470322Y-88414078D02*
X244470322Y-87414078D01*
X244375084Y-88033125D02*
X244089370Y-88414078D01*
X244089370Y-87747411D02*
X244470322Y-88128363D01*
X243756036Y-88795030D02*
X243708417Y-88747411D01*
X243708417Y-88747411D02*
X243613179Y-88604554D01*
X243613179Y-88604554D02*
X243565560Y-88509316D01*
X243565560Y-88509316D02*
X243517941Y-88366459D01*
X243517941Y-88366459D02*
X243470322Y-88128363D01*
X243470322Y-88128363D02*
X243470322Y-87937887D01*
X243470322Y-87937887D02*
X243517941Y-87699792D01*
X243517941Y-87699792D02*
X243565560Y-87556935D01*
X243565560Y-87556935D02*
X243613179Y-87461697D01*
X243613179Y-87461697D02*
X243708417Y-87318839D01*
X243708417Y-87318839D02*
X243756036Y-87271220D01*
X251806038Y-92546697D02*
X251901276Y-92499078D01*
X251901276Y-92499078D02*
X252044133Y-92499078D01*
X252044133Y-92499078D02*
X252186990Y-92546697D01*
X252186990Y-92546697D02*
X252282228Y-92641935D01*
X252282228Y-92641935D02*
X252329847Y-92737173D01*
X252329847Y-92737173D02*
X252377466Y-92927649D01*
X252377466Y-92927649D02*
X252377466Y-93070506D01*
X252377466Y-93070506D02*
X252329847Y-93260982D01*
X252329847Y-93260982D02*
X252282228Y-93356220D01*
X252282228Y-93356220D02*
X252186990Y-93451459D01*
X252186990Y-93451459D02*
X252044133Y-93499078D01*
X252044133Y-93499078D02*
X251948895Y-93499078D01*
X251948895Y-93499078D02*
X251806038Y-93451459D01*
X251806038Y-93451459D02*
X251758419Y-93403839D01*
X251758419Y-93403839D02*
X251758419Y-93070506D01*
X251758419Y-93070506D02*
X251948895Y-93070506D01*
X251329847Y-93499078D02*
X251329847Y-92499078D01*
X251329847Y-92499078D02*
X250758419Y-93499078D01*
X250758419Y-93499078D02*
X250758419Y-92499078D01*
X250282228Y-93499078D02*
X250282228Y-92499078D01*
X250282228Y-92499078D02*
X250044133Y-92499078D01*
X250044133Y-92499078D02*
X249901276Y-92546697D01*
X249901276Y-92546697D02*
X249806038Y-92641935D01*
X249806038Y-92641935D02*
X249758419Y-92737173D01*
X249758419Y-92737173D02*
X249710800Y-92927649D01*
X249710800Y-92927649D02*
X249710800Y-93070506D01*
X249710800Y-93070506D02*
X249758419Y-93260982D01*
X249758419Y-93260982D02*
X249806038Y-93356220D01*
X249806038Y-93356220D02*
X249901276Y-93451459D01*
X249901276Y-93451459D02*
X250044133Y-93499078D01*
X250044133Y-93499078D02*
X250282228Y-93499078D01*
X254706038Y-95086697D02*
X254801276Y-95039078D01*
X254801276Y-95039078D02*
X254944133Y-95039078D01*
X254944133Y-95039078D02*
X255086990Y-95086697D01*
X255086990Y-95086697D02*
X255182228Y-95181935D01*
X255182228Y-95181935D02*
X255229847Y-95277173D01*
X255229847Y-95277173D02*
X255277466Y-95467649D01*
X255277466Y-95467649D02*
X255277466Y-95610506D01*
X255277466Y-95610506D02*
X255229847Y-95800982D01*
X255229847Y-95800982D02*
X255182228Y-95896220D01*
X255182228Y-95896220D02*
X255086990Y-95991459D01*
X255086990Y-95991459D02*
X254944133Y-96039078D01*
X254944133Y-96039078D02*
X254848895Y-96039078D01*
X254848895Y-96039078D02*
X254706038Y-95991459D01*
X254706038Y-95991459D02*
X254658419Y-95943839D01*
X254658419Y-95943839D02*
X254658419Y-95610506D01*
X254658419Y-95610506D02*
X254848895Y-95610506D01*
X254229847Y-96039078D02*
X254229847Y-95039078D01*
X254229847Y-95039078D02*
X253658419Y-96039078D01*
X253658419Y-96039078D02*
X253658419Y-95039078D01*
X253182228Y-96039078D02*
X253182228Y-95039078D01*
X253182228Y-95039078D02*
X252944133Y-95039078D01*
X252944133Y-95039078D02*
X252801276Y-95086697D01*
X252801276Y-95086697D02*
X252706038Y-95181935D01*
X252706038Y-95181935D02*
X252658419Y-95277173D01*
X252658419Y-95277173D02*
X252610800Y-95467649D01*
X252610800Y-95467649D02*
X252610800Y-95610506D01*
X252610800Y-95610506D02*
X252658419Y-95800982D01*
X252658419Y-95800982D02*
X252706038Y-95896220D01*
X252706038Y-95896220D02*
X252801276Y-95991459D01*
X252801276Y-95991459D02*
X252944133Y-96039078D01*
X252944133Y-96039078D02*
X253182228Y-96039078D01*
X252258419Y-108739078D02*
X252258419Y-107739078D01*
X252258419Y-107739078D02*
X251877467Y-107739078D01*
X251877467Y-107739078D02*
X251782229Y-107786697D01*
X251782229Y-107786697D02*
X251734610Y-107834316D01*
X251734610Y-107834316D02*
X251686991Y-107929554D01*
X251686991Y-107929554D02*
X251686991Y-108072411D01*
X251686991Y-108072411D02*
X251734610Y-108167649D01*
X251734610Y-108167649D02*
X251782229Y-108215268D01*
X251782229Y-108215268D02*
X251877467Y-108262887D01*
X251877467Y-108262887D02*
X252258419Y-108262887D01*
X250734610Y-108739078D02*
X251306038Y-108739078D01*
X251020324Y-108739078D02*
X251020324Y-107739078D01*
X251020324Y-107739078D02*
X251115562Y-107881935D01*
X251115562Y-107881935D02*
X251210800Y-107977173D01*
X251210800Y-107977173D02*
X251306038Y-108024792D01*
X250163181Y-108167649D02*
X250258419Y-108120030D01*
X250258419Y-108120030D02*
X250306038Y-108072411D01*
X250306038Y-108072411D02*
X250353657Y-107977173D01*
X250353657Y-107977173D02*
X250353657Y-107929554D01*
X250353657Y-107929554D02*
X250306038Y-107834316D01*
X250306038Y-107834316D02*
X250258419Y-107786697D01*
X250258419Y-107786697D02*
X250163181Y-107739078D01*
X250163181Y-107739078D02*
X249972705Y-107739078D01*
X249972705Y-107739078D02*
X249877467Y-107786697D01*
X249877467Y-107786697D02*
X249829848Y-107834316D01*
X249829848Y-107834316D02*
X249782229Y-107929554D01*
X249782229Y-107929554D02*
X249782229Y-107977173D01*
X249782229Y-107977173D02*
X249829848Y-108072411D01*
X249829848Y-108072411D02*
X249877467Y-108120030D01*
X249877467Y-108120030D02*
X249972705Y-108167649D01*
X249972705Y-108167649D02*
X250163181Y-108167649D01*
X250163181Y-108167649D02*
X250258419Y-108215268D01*
X250258419Y-108215268D02*
X250306038Y-108262887D01*
X250306038Y-108262887D02*
X250353657Y-108358125D01*
X250353657Y-108358125D02*
X250353657Y-108548601D01*
X250353657Y-108548601D02*
X250306038Y-108643839D01*
X250306038Y-108643839D02*
X250258419Y-108691459D01*
X250258419Y-108691459D02*
X250163181Y-108739078D01*
X250163181Y-108739078D02*
X249972705Y-108739078D01*
X249972705Y-108739078D02*
X249877467Y-108691459D01*
X249877467Y-108691459D02*
X249829848Y-108643839D01*
X249829848Y-108643839D02*
X249782229Y-108548601D01*
X249782229Y-108548601D02*
X249782229Y-108358125D01*
X249782229Y-108358125D02*
X249829848Y-108262887D01*
X249829848Y-108262887D02*
X249877467Y-108215268D01*
X249877467Y-108215268D02*
X249972705Y-108167649D01*
X255272228Y-116359078D02*
X255272228Y-115359078D01*
X255272228Y-115359078D02*
X254891276Y-115359078D01*
X254891276Y-115359078D02*
X254796038Y-115406697D01*
X254796038Y-115406697D02*
X254748419Y-115454316D01*
X254748419Y-115454316D02*
X254700800Y-115549554D01*
X254700800Y-115549554D02*
X254700800Y-115692411D01*
X254700800Y-115692411D02*
X254748419Y-115787649D01*
X254748419Y-115787649D02*
X254796038Y-115835268D01*
X254796038Y-115835268D02*
X254891276Y-115882887D01*
X254891276Y-115882887D02*
X255272228Y-115882887D01*
X254129371Y-115787649D02*
X254224609Y-115740030D01*
X254224609Y-115740030D02*
X254272228Y-115692411D01*
X254272228Y-115692411D02*
X254319847Y-115597173D01*
X254319847Y-115597173D02*
X254319847Y-115549554D01*
X254319847Y-115549554D02*
X254272228Y-115454316D01*
X254272228Y-115454316D02*
X254224609Y-115406697D01*
X254224609Y-115406697D02*
X254129371Y-115359078D01*
X254129371Y-115359078D02*
X253938895Y-115359078D01*
X253938895Y-115359078D02*
X253843657Y-115406697D01*
X253843657Y-115406697D02*
X253796038Y-115454316D01*
X253796038Y-115454316D02*
X253748419Y-115549554D01*
X253748419Y-115549554D02*
X253748419Y-115597173D01*
X253748419Y-115597173D02*
X253796038Y-115692411D01*
X253796038Y-115692411D02*
X253843657Y-115740030D01*
X253843657Y-115740030D02*
X253938895Y-115787649D01*
X253938895Y-115787649D02*
X254129371Y-115787649D01*
X254129371Y-115787649D02*
X254224609Y-115835268D01*
X254224609Y-115835268D02*
X254272228Y-115882887D01*
X254272228Y-115882887D02*
X254319847Y-115978125D01*
X254319847Y-115978125D02*
X254319847Y-116168601D01*
X254319847Y-116168601D02*
X254272228Y-116263839D01*
X254272228Y-116263839D02*
X254224609Y-116311459D01*
X254224609Y-116311459D02*
X254129371Y-116359078D01*
X254129371Y-116359078D02*
X253938895Y-116359078D01*
X253938895Y-116359078D02*
X253843657Y-116311459D01*
X253843657Y-116311459D02*
X253796038Y-116263839D01*
X253796038Y-116263839D02*
X253748419Y-116168601D01*
X253748419Y-116168601D02*
X253748419Y-115978125D01*
X253748419Y-115978125D02*
X253796038Y-115882887D01*
X253796038Y-115882887D02*
X253843657Y-115835268D01*
X253843657Y-115835268D02*
X253938895Y-115787649D01*
X252258419Y-111279078D02*
X252258419Y-110279078D01*
X252258419Y-110279078D02*
X251877467Y-110279078D01*
X251877467Y-110279078D02*
X251782229Y-110326697D01*
X251782229Y-110326697D02*
X251734610Y-110374316D01*
X251734610Y-110374316D02*
X251686991Y-110469554D01*
X251686991Y-110469554D02*
X251686991Y-110612411D01*
X251686991Y-110612411D02*
X251734610Y-110707649D01*
X251734610Y-110707649D02*
X251782229Y-110755268D01*
X251782229Y-110755268D02*
X251877467Y-110802887D01*
X251877467Y-110802887D02*
X252258419Y-110802887D01*
X250734610Y-111279078D02*
X251306038Y-111279078D01*
X251020324Y-111279078D02*
X251020324Y-110279078D01*
X251020324Y-110279078D02*
X251115562Y-110421935D01*
X251115562Y-110421935D02*
X251210800Y-110517173D01*
X251210800Y-110517173D02*
X251306038Y-110564792D01*
X249829848Y-110279078D02*
X250306038Y-110279078D01*
X250306038Y-110279078D02*
X250353657Y-110755268D01*
X250353657Y-110755268D02*
X250306038Y-110707649D01*
X250306038Y-110707649D02*
X250210800Y-110660030D01*
X250210800Y-110660030D02*
X249972705Y-110660030D01*
X249972705Y-110660030D02*
X249877467Y-110707649D01*
X249877467Y-110707649D02*
X249829848Y-110755268D01*
X249829848Y-110755268D02*
X249782229Y-110850506D01*
X249782229Y-110850506D02*
X249782229Y-111088601D01*
X249782229Y-111088601D02*
X249829848Y-111183839D01*
X249829848Y-111183839D02*
X249877467Y-111231459D01*
X249877467Y-111231459D02*
X249972705Y-111279078D01*
X249972705Y-111279078D02*
X250210800Y-111279078D01*
X250210800Y-111279078D02*
X250306038Y-111231459D01*
X250306038Y-111231459D02*
X250353657Y-111183839D01*
X255272228Y-101119078D02*
X255272228Y-100119078D01*
X255272228Y-100119078D02*
X254891276Y-100119078D01*
X254891276Y-100119078D02*
X254796038Y-100166697D01*
X254796038Y-100166697D02*
X254748419Y-100214316D01*
X254748419Y-100214316D02*
X254700800Y-100309554D01*
X254700800Y-100309554D02*
X254700800Y-100452411D01*
X254700800Y-100452411D02*
X254748419Y-100547649D01*
X254748419Y-100547649D02*
X254796038Y-100595268D01*
X254796038Y-100595268D02*
X254891276Y-100642887D01*
X254891276Y-100642887D02*
X255272228Y-100642887D01*
X254319847Y-100214316D02*
X254272228Y-100166697D01*
X254272228Y-100166697D02*
X254176990Y-100119078D01*
X254176990Y-100119078D02*
X253938895Y-100119078D01*
X253938895Y-100119078D02*
X253843657Y-100166697D01*
X253843657Y-100166697D02*
X253796038Y-100214316D01*
X253796038Y-100214316D02*
X253748419Y-100309554D01*
X253748419Y-100309554D02*
X253748419Y-100404792D01*
X253748419Y-100404792D02*
X253796038Y-100547649D01*
X253796038Y-100547649D02*
X254367466Y-101119078D01*
X254367466Y-101119078D02*
X253748419Y-101119078D01*
X251591753Y-96039078D02*
X251925086Y-95562887D01*
X252163181Y-96039078D02*
X252163181Y-95039078D01*
X252163181Y-95039078D02*
X251782229Y-95039078D01*
X251782229Y-95039078D02*
X251686991Y-95086697D01*
X251686991Y-95086697D02*
X251639372Y-95134316D01*
X251639372Y-95134316D02*
X251591753Y-95229554D01*
X251591753Y-95229554D02*
X251591753Y-95372411D01*
X251591753Y-95372411D02*
X251639372Y-95467649D01*
X251639372Y-95467649D02*
X251686991Y-95515268D01*
X251686991Y-95515268D02*
X251782229Y-95562887D01*
X251782229Y-95562887D02*
X252163181Y-95562887D01*
X251210800Y-95991459D02*
X251067943Y-96039078D01*
X251067943Y-96039078D02*
X250829848Y-96039078D01*
X250829848Y-96039078D02*
X250734610Y-95991459D01*
X250734610Y-95991459D02*
X250686991Y-95943839D01*
X250686991Y-95943839D02*
X250639372Y-95848601D01*
X250639372Y-95848601D02*
X250639372Y-95753363D01*
X250639372Y-95753363D02*
X250686991Y-95658125D01*
X250686991Y-95658125D02*
X250734610Y-95610506D01*
X250734610Y-95610506D02*
X250829848Y-95562887D01*
X250829848Y-95562887D02*
X251020324Y-95515268D01*
X251020324Y-95515268D02*
X251115562Y-95467649D01*
X251115562Y-95467649D02*
X251163181Y-95420030D01*
X251163181Y-95420030D02*
X251210800Y-95324792D01*
X251210800Y-95324792D02*
X251210800Y-95229554D01*
X251210800Y-95229554D02*
X251163181Y-95134316D01*
X251163181Y-95134316D02*
X251115562Y-95086697D01*
X251115562Y-95086697D02*
X251020324Y-95039078D01*
X251020324Y-95039078D02*
X250782229Y-95039078D01*
X250782229Y-95039078D02*
X250639372Y-95086697D01*
X250353657Y-95039078D02*
X249782229Y-95039078D01*
X250067943Y-96039078D02*
X250067943Y-95039078D01*
X255272228Y-103659078D02*
X255272228Y-102659078D01*
X255272228Y-102659078D02*
X254891276Y-102659078D01*
X254891276Y-102659078D02*
X254796038Y-102706697D01*
X254796038Y-102706697D02*
X254748419Y-102754316D01*
X254748419Y-102754316D02*
X254700800Y-102849554D01*
X254700800Y-102849554D02*
X254700800Y-102992411D01*
X254700800Y-102992411D02*
X254748419Y-103087649D01*
X254748419Y-103087649D02*
X254796038Y-103135268D01*
X254796038Y-103135268D02*
X254891276Y-103182887D01*
X254891276Y-103182887D02*
X255272228Y-103182887D01*
X254367466Y-102659078D02*
X253748419Y-102659078D01*
X253748419Y-102659078D02*
X254081752Y-103040030D01*
X254081752Y-103040030D02*
X253938895Y-103040030D01*
X253938895Y-103040030D02*
X253843657Y-103087649D01*
X253843657Y-103087649D02*
X253796038Y-103135268D01*
X253796038Y-103135268D02*
X253748419Y-103230506D01*
X253748419Y-103230506D02*
X253748419Y-103468601D01*
X253748419Y-103468601D02*
X253796038Y-103563839D01*
X253796038Y-103563839D02*
X253843657Y-103611459D01*
X253843657Y-103611459D02*
X253938895Y-103659078D01*
X253938895Y-103659078D02*
X254224609Y-103659078D01*
X254224609Y-103659078D02*
X254319847Y-103611459D01*
X254319847Y-103611459D02*
X254367466Y-103563839D01*
X252258419Y-106199078D02*
X252258419Y-105199078D01*
X252258419Y-105199078D02*
X251877467Y-105199078D01*
X251877467Y-105199078D02*
X251782229Y-105246697D01*
X251782229Y-105246697D02*
X251734610Y-105294316D01*
X251734610Y-105294316D02*
X251686991Y-105389554D01*
X251686991Y-105389554D02*
X251686991Y-105532411D01*
X251686991Y-105532411D02*
X251734610Y-105627649D01*
X251734610Y-105627649D02*
X251782229Y-105675268D01*
X251782229Y-105675268D02*
X251877467Y-105722887D01*
X251877467Y-105722887D02*
X252258419Y-105722887D01*
X250734610Y-106199078D02*
X251306038Y-106199078D01*
X251020324Y-106199078D02*
X251020324Y-105199078D01*
X251020324Y-105199078D02*
X251115562Y-105341935D01*
X251115562Y-105341935D02*
X251210800Y-105437173D01*
X251210800Y-105437173D02*
X251306038Y-105484792D01*
X250258419Y-106199078D02*
X250067943Y-106199078D01*
X250067943Y-106199078D02*
X249972705Y-106151459D01*
X249972705Y-106151459D02*
X249925086Y-106103839D01*
X249925086Y-106103839D02*
X249829848Y-105960982D01*
X249829848Y-105960982D02*
X249782229Y-105770506D01*
X249782229Y-105770506D02*
X249782229Y-105389554D01*
X249782229Y-105389554D02*
X249829848Y-105294316D01*
X249829848Y-105294316D02*
X249877467Y-105246697D01*
X249877467Y-105246697D02*
X249972705Y-105199078D01*
X249972705Y-105199078D02*
X250163181Y-105199078D01*
X250163181Y-105199078D02*
X250258419Y-105246697D01*
X250258419Y-105246697D02*
X250306038Y-105294316D01*
X250306038Y-105294316D02*
X250353657Y-105389554D01*
X250353657Y-105389554D02*
X250353657Y-105627649D01*
X250353657Y-105627649D02*
X250306038Y-105722887D01*
X250306038Y-105722887D02*
X250258419Y-105770506D01*
X250258419Y-105770506D02*
X250163181Y-105818125D01*
X250163181Y-105818125D02*
X249972705Y-105818125D01*
X249972705Y-105818125D02*
X249877467Y-105770506D01*
X249877467Y-105770506D02*
X249829848Y-105722887D01*
X249829848Y-105722887D02*
X249782229Y-105627649D01*
X255272228Y-118899078D02*
X255272228Y-117899078D01*
X255272228Y-117899078D02*
X254891276Y-117899078D01*
X254891276Y-117899078D02*
X254796038Y-117946697D01*
X254796038Y-117946697D02*
X254748419Y-117994316D01*
X254748419Y-117994316D02*
X254700800Y-118089554D01*
X254700800Y-118089554D02*
X254700800Y-118232411D01*
X254700800Y-118232411D02*
X254748419Y-118327649D01*
X254748419Y-118327649D02*
X254796038Y-118375268D01*
X254796038Y-118375268D02*
X254891276Y-118422887D01*
X254891276Y-118422887D02*
X255272228Y-118422887D01*
X254224609Y-118899078D02*
X254034133Y-118899078D01*
X254034133Y-118899078D02*
X253938895Y-118851459D01*
X253938895Y-118851459D02*
X253891276Y-118803839D01*
X253891276Y-118803839D02*
X253796038Y-118660982D01*
X253796038Y-118660982D02*
X253748419Y-118470506D01*
X253748419Y-118470506D02*
X253748419Y-118089554D01*
X253748419Y-118089554D02*
X253796038Y-117994316D01*
X253796038Y-117994316D02*
X253843657Y-117946697D01*
X253843657Y-117946697D02*
X253938895Y-117899078D01*
X253938895Y-117899078D02*
X254129371Y-117899078D01*
X254129371Y-117899078D02*
X254224609Y-117946697D01*
X254224609Y-117946697D02*
X254272228Y-117994316D01*
X254272228Y-117994316D02*
X254319847Y-118089554D01*
X254319847Y-118089554D02*
X254319847Y-118327649D01*
X254319847Y-118327649D02*
X254272228Y-118422887D01*
X254272228Y-118422887D02*
X254224609Y-118470506D01*
X254224609Y-118470506D02*
X254129371Y-118518125D01*
X254129371Y-118518125D02*
X253938895Y-118518125D01*
X253938895Y-118518125D02*
X253843657Y-118470506D01*
X253843657Y-118470506D02*
X253796038Y-118422887D01*
X253796038Y-118422887D02*
X253748419Y-118327649D01*
X255272228Y-106199078D02*
X255272228Y-105199078D01*
X255272228Y-105199078D02*
X254891276Y-105199078D01*
X254891276Y-105199078D02*
X254796038Y-105246697D01*
X254796038Y-105246697D02*
X254748419Y-105294316D01*
X254748419Y-105294316D02*
X254700800Y-105389554D01*
X254700800Y-105389554D02*
X254700800Y-105532411D01*
X254700800Y-105532411D02*
X254748419Y-105627649D01*
X254748419Y-105627649D02*
X254796038Y-105675268D01*
X254796038Y-105675268D02*
X254891276Y-105722887D01*
X254891276Y-105722887D02*
X255272228Y-105722887D01*
X253843657Y-105532411D02*
X253843657Y-106199078D01*
X254081752Y-105151459D02*
X254319847Y-105865744D01*
X254319847Y-105865744D02*
X253700800Y-105865744D01*
X255272228Y-90959078D02*
X255272228Y-89959078D01*
X255272228Y-89959078D02*
X254891276Y-89959078D01*
X254891276Y-89959078D02*
X254796038Y-90006697D01*
X254796038Y-90006697D02*
X254748419Y-90054316D01*
X254748419Y-90054316D02*
X254700800Y-90149554D01*
X254700800Y-90149554D02*
X254700800Y-90292411D01*
X254700800Y-90292411D02*
X254748419Y-90387649D01*
X254748419Y-90387649D02*
X254796038Y-90435268D01*
X254796038Y-90435268D02*
X254891276Y-90482887D01*
X254891276Y-90482887D02*
X255272228Y-90482887D01*
X253748419Y-90959078D02*
X254319847Y-90959078D01*
X254034133Y-90959078D02*
X254034133Y-89959078D01*
X254034133Y-89959078D02*
X254129371Y-90101935D01*
X254129371Y-90101935D02*
X254224609Y-90197173D01*
X254224609Y-90197173D02*
X254319847Y-90244792D01*
X252258419Y-113819078D02*
X252258419Y-112819078D01*
X252258419Y-112819078D02*
X251877467Y-112819078D01*
X251877467Y-112819078D02*
X251782229Y-112866697D01*
X251782229Y-112866697D02*
X251734610Y-112914316D01*
X251734610Y-112914316D02*
X251686991Y-113009554D01*
X251686991Y-113009554D02*
X251686991Y-113152411D01*
X251686991Y-113152411D02*
X251734610Y-113247649D01*
X251734610Y-113247649D02*
X251782229Y-113295268D01*
X251782229Y-113295268D02*
X251877467Y-113342887D01*
X251877467Y-113342887D02*
X252258419Y-113342887D01*
X250734610Y-113819078D02*
X251306038Y-113819078D01*
X251020324Y-113819078D02*
X251020324Y-112819078D01*
X251020324Y-112819078D02*
X251115562Y-112961935D01*
X251115562Y-112961935D02*
X251210800Y-113057173D01*
X251210800Y-113057173D02*
X251306038Y-113104792D01*
X249877467Y-113152411D02*
X249877467Y-113819078D01*
X250115562Y-112771459D02*
X250353657Y-113485744D01*
X250353657Y-113485744D02*
X249734610Y-113485744D01*
X252258418Y-116359078D02*
X252258418Y-115359078D01*
X252258418Y-115359078D02*
X251877466Y-115359078D01*
X251877466Y-115359078D02*
X251782228Y-115406697D01*
X251782228Y-115406697D02*
X251734609Y-115454316D01*
X251734609Y-115454316D02*
X251686990Y-115549554D01*
X251686990Y-115549554D02*
X251686990Y-115692411D01*
X251686990Y-115692411D02*
X251734609Y-115787649D01*
X251734609Y-115787649D02*
X251782228Y-115835268D01*
X251782228Y-115835268D02*
X251877466Y-115882887D01*
X251877466Y-115882887D02*
X252258418Y-115882887D01*
X250734609Y-116359078D02*
X251306037Y-116359078D01*
X251020323Y-116359078D02*
X251020323Y-115359078D01*
X251020323Y-115359078D02*
X251115561Y-115501935D01*
X251115561Y-115501935D02*
X251210799Y-115597173D01*
X251210799Y-115597173D02*
X251306037Y-115644792D01*
X249877466Y-115359078D02*
X250067942Y-115359078D01*
X250067942Y-115359078D02*
X250163180Y-115406697D01*
X250163180Y-115406697D02*
X250210799Y-115454316D01*
X250210799Y-115454316D02*
X250306037Y-115597173D01*
X250306037Y-115597173D02*
X250353656Y-115787649D01*
X250353656Y-115787649D02*
X250353656Y-116168601D01*
X250353656Y-116168601D02*
X250306037Y-116263839D01*
X250306037Y-116263839D02*
X250258418Y-116311459D01*
X250258418Y-116311459D02*
X250163180Y-116359078D01*
X250163180Y-116359078D02*
X249972704Y-116359078D01*
X249972704Y-116359078D02*
X249877466Y-116311459D01*
X249877466Y-116311459D02*
X249829847Y-116263839D01*
X249829847Y-116263839D02*
X249782228Y-116168601D01*
X249782228Y-116168601D02*
X249782228Y-115930506D01*
X249782228Y-115930506D02*
X249829847Y-115835268D01*
X249829847Y-115835268D02*
X249877466Y-115787649D01*
X249877466Y-115787649D02*
X249972704Y-115740030D01*
X249972704Y-115740030D02*
X250163180Y-115740030D01*
X250163180Y-115740030D02*
X250258418Y-115787649D01*
X250258418Y-115787649D02*
X250306037Y-115835268D01*
X250306037Y-115835268D02*
X250353656Y-115930506D01*
X252258419Y-101119078D02*
X252258419Y-100119078D01*
X252258419Y-100119078D02*
X251877467Y-100119078D01*
X251877467Y-100119078D02*
X251782229Y-100166697D01*
X251782229Y-100166697D02*
X251734610Y-100214316D01*
X251734610Y-100214316D02*
X251686991Y-100309554D01*
X251686991Y-100309554D02*
X251686991Y-100452411D01*
X251686991Y-100452411D02*
X251734610Y-100547649D01*
X251734610Y-100547649D02*
X251782229Y-100595268D01*
X251782229Y-100595268D02*
X251877467Y-100642887D01*
X251877467Y-100642887D02*
X252258419Y-100642887D01*
X251306038Y-100214316D02*
X251258419Y-100166697D01*
X251258419Y-100166697D02*
X251163181Y-100119078D01*
X251163181Y-100119078D02*
X250925086Y-100119078D01*
X250925086Y-100119078D02*
X250829848Y-100166697D01*
X250829848Y-100166697D02*
X250782229Y-100214316D01*
X250782229Y-100214316D02*
X250734610Y-100309554D01*
X250734610Y-100309554D02*
X250734610Y-100404792D01*
X250734610Y-100404792D02*
X250782229Y-100547649D01*
X250782229Y-100547649D02*
X251353657Y-101119078D01*
X251353657Y-101119078D02*
X250734610Y-101119078D01*
X249782229Y-101119078D02*
X250353657Y-101119078D01*
X250067943Y-101119078D02*
X250067943Y-100119078D01*
X250067943Y-100119078D02*
X250163181Y-100261935D01*
X250163181Y-100261935D02*
X250258419Y-100357173D01*
X250258419Y-100357173D02*
X250353657Y-100404792D01*
X255272228Y-93499078D02*
X255272228Y-92499078D01*
X255272228Y-92499078D02*
X254891276Y-92499078D01*
X254891276Y-92499078D02*
X254796038Y-92546697D01*
X254796038Y-92546697D02*
X254748419Y-92594316D01*
X254748419Y-92594316D02*
X254700800Y-92689554D01*
X254700800Y-92689554D02*
X254700800Y-92832411D01*
X254700800Y-92832411D02*
X254748419Y-92927649D01*
X254748419Y-92927649D02*
X254796038Y-92975268D01*
X254796038Y-92975268D02*
X254891276Y-93022887D01*
X254891276Y-93022887D02*
X255272228Y-93022887D01*
X254081752Y-92499078D02*
X253986514Y-92499078D01*
X253986514Y-92499078D02*
X253891276Y-92546697D01*
X253891276Y-92546697D02*
X253843657Y-92594316D01*
X253843657Y-92594316D02*
X253796038Y-92689554D01*
X253796038Y-92689554D02*
X253748419Y-92880030D01*
X253748419Y-92880030D02*
X253748419Y-93118125D01*
X253748419Y-93118125D02*
X253796038Y-93308601D01*
X253796038Y-93308601D02*
X253843657Y-93403839D01*
X253843657Y-93403839D02*
X253891276Y-93451459D01*
X253891276Y-93451459D02*
X253986514Y-93499078D01*
X253986514Y-93499078D02*
X254081752Y-93499078D01*
X254081752Y-93499078D02*
X254176990Y-93451459D01*
X254176990Y-93451459D02*
X254224609Y-93403839D01*
X254224609Y-93403839D02*
X254272228Y-93308601D01*
X254272228Y-93308601D02*
X254319847Y-93118125D01*
X254319847Y-93118125D02*
X254319847Y-92880030D01*
X254319847Y-92880030D02*
X254272228Y-92689554D01*
X254272228Y-92689554D02*
X254224609Y-92594316D01*
X254224609Y-92594316D02*
X254176990Y-92546697D01*
X254176990Y-92546697D02*
X254081752Y-92499078D01*
X255272228Y-111279078D02*
X255272228Y-110279078D01*
X255272228Y-110279078D02*
X254891276Y-110279078D01*
X254891276Y-110279078D02*
X254796038Y-110326697D01*
X254796038Y-110326697D02*
X254748419Y-110374316D01*
X254748419Y-110374316D02*
X254700800Y-110469554D01*
X254700800Y-110469554D02*
X254700800Y-110612411D01*
X254700800Y-110612411D02*
X254748419Y-110707649D01*
X254748419Y-110707649D02*
X254796038Y-110755268D01*
X254796038Y-110755268D02*
X254891276Y-110802887D01*
X254891276Y-110802887D02*
X255272228Y-110802887D01*
X253843657Y-110279078D02*
X254034133Y-110279078D01*
X254034133Y-110279078D02*
X254129371Y-110326697D01*
X254129371Y-110326697D02*
X254176990Y-110374316D01*
X254176990Y-110374316D02*
X254272228Y-110517173D01*
X254272228Y-110517173D02*
X254319847Y-110707649D01*
X254319847Y-110707649D02*
X254319847Y-111088601D01*
X254319847Y-111088601D02*
X254272228Y-111183839D01*
X254272228Y-111183839D02*
X254224609Y-111231459D01*
X254224609Y-111231459D02*
X254129371Y-111279078D01*
X254129371Y-111279078D02*
X253938895Y-111279078D01*
X253938895Y-111279078D02*
X253843657Y-111231459D01*
X253843657Y-111231459D02*
X253796038Y-111183839D01*
X253796038Y-111183839D02*
X253748419Y-111088601D01*
X253748419Y-111088601D02*
X253748419Y-110850506D01*
X253748419Y-110850506D02*
X253796038Y-110755268D01*
X253796038Y-110755268D02*
X253843657Y-110707649D01*
X253843657Y-110707649D02*
X253938895Y-110660030D01*
X253938895Y-110660030D02*
X254129371Y-110660030D01*
X254129371Y-110660030D02*
X254224609Y-110707649D01*
X254224609Y-110707649D02*
X254272228Y-110755268D01*
X254272228Y-110755268D02*
X254319847Y-110850506D01*
X252258419Y-103659078D02*
X252258419Y-102659078D01*
X252258419Y-102659078D02*
X251877467Y-102659078D01*
X251877467Y-102659078D02*
X251782229Y-102706697D01*
X251782229Y-102706697D02*
X251734610Y-102754316D01*
X251734610Y-102754316D02*
X251686991Y-102849554D01*
X251686991Y-102849554D02*
X251686991Y-102992411D01*
X251686991Y-102992411D02*
X251734610Y-103087649D01*
X251734610Y-103087649D02*
X251782229Y-103135268D01*
X251782229Y-103135268D02*
X251877467Y-103182887D01*
X251877467Y-103182887D02*
X252258419Y-103182887D01*
X251306038Y-102754316D02*
X251258419Y-102706697D01*
X251258419Y-102706697D02*
X251163181Y-102659078D01*
X251163181Y-102659078D02*
X250925086Y-102659078D01*
X250925086Y-102659078D02*
X250829848Y-102706697D01*
X250829848Y-102706697D02*
X250782229Y-102754316D01*
X250782229Y-102754316D02*
X250734610Y-102849554D01*
X250734610Y-102849554D02*
X250734610Y-102944792D01*
X250734610Y-102944792D02*
X250782229Y-103087649D01*
X250782229Y-103087649D02*
X251353657Y-103659078D01*
X251353657Y-103659078D02*
X250734610Y-103659078D01*
X250115562Y-102659078D02*
X250020324Y-102659078D01*
X250020324Y-102659078D02*
X249925086Y-102706697D01*
X249925086Y-102706697D02*
X249877467Y-102754316D01*
X249877467Y-102754316D02*
X249829848Y-102849554D01*
X249829848Y-102849554D02*
X249782229Y-103040030D01*
X249782229Y-103040030D02*
X249782229Y-103278125D01*
X249782229Y-103278125D02*
X249829848Y-103468601D01*
X249829848Y-103468601D02*
X249877467Y-103563839D01*
X249877467Y-103563839D02*
X249925086Y-103611459D01*
X249925086Y-103611459D02*
X250020324Y-103659078D01*
X250020324Y-103659078D02*
X250115562Y-103659078D01*
X250115562Y-103659078D02*
X250210800Y-103611459D01*
X250210800Y-103611459D02*
X250258419Y-103563839D01*
X250258419Y-103563839D02*
X250306038Y-103468601D01*
X250306038Y-103468601D02*
X250353657Y-103278125D01*
X250353657Y-103278125D02*
X250353657Y-103040030D01*
X250353657Y-103040030D02*
X250306038Y-102849554D01*
X250306038Y-102849554D02*
X250258419Y-102754316D01*
X250258419Y-102754316D02*
X250210800Y-102706697D01*
X250210800Y-102706697D02*
X250115562Y-102659078D01*
X255272228Y-108739078D02*
X255272228Y-107739078D01*
X255272228Y-107739078D02*
X254891276Y-107739078D01*
X254891276Y-107739078D02*
X254796038Y-107786697D01*
X254796038Y-107786697D02*
X254748419Y-107834316D01*
X254748419Y-107834316D02*
X254700800Y-107929554D01*
X254700800Y-107929554D02*
X254700800Y-108072411D01*
X254700800Y-108072411D02*
X254748419Y-108167649D01*
X254748419Y-108167649D02*
X254796038Y-108215268D01*
X254796038Y-108215268D02*
X254891276Y-108262887D01*
X254891276Y-108262887D02*
X255272228Y-108262887D01*
X253796038Y-107739078D02*
X254272228Y-107739078D01*
X254272228Y-107739078D02*
X254319847Y-108215268D01*
X254319847Y-108215268D02*
X254272228Y-108167649D01*
X254272228Y-108167649D02*
X254176990Y-108120030D01*
X254176990Y-108120030D02*
X253938895Y-108120030D01*
X253938895Y-108120030D02*
X253843657Y-108167649D01*
X253843657Y-108167649D02*
X253796038Y-108215268D01*
X253796038Y-108215268D02*
X253748419Y-108310506D01*
X253748419Y-108310506D02*
X253748419Y-108548601D01*
X253748419Y-108548601D02*
X253796038Y-108643839D01*
X253796038Y-108643839D02*
X253843657Y-108691459D01*
X253843657Y-108691459D02*
X253938895Y-108739078D01*
X253938895Y-108739078D02*
X254176990Y-108739078D01*
X254176990Y-108739078D02*
X254272228Y-108691459D01*
X254272228Y-108691459D02*
X254319847Y-108643839D01*
X252258419Y-118899078D02*
X252258419Y-117899078D01*
X252258419Y-117899078D02*
X251877467Y-117899078D01*
X251877467Y-117899078D02*
X251782229Y-117946697D01*
X251782229Y-117946697D02*
X251734610Y-117994316D01*
X251734610Y-117994316D02*
X251686991Y-118089554D01*
X251686991Y-118089554D02*
X251686991Y-118232411D01*
X251686991Y-118232411D02*
X251734610Y-118327649D01*
X251734610Y-118327649D02*
X251782229Y-118375268D01*
X251782229Y-118375268D02*
X251877467Y-118422887D01*
X251877467Y-118422887D02*
X252258419Y-118422887D01*
X250734610Y-118899078D02*
X251306038Y-118899078D01*
X251020324Y-118899078D02*
X251020324Y-117899078D01*
X251020324Y-117899078D02*
X251115562Y-118041935D01*
X251115562Y-118041935D02*
X251210800Y-118137173D01*
X251210800Y-118137173D02*
X251306038Y-118184792D01*
X250115562Y-117899078D02*
X250020324Y-117899078D01*
X250020324Y-117899078D02*
X249925086Y-117946697D01*
X249925086Y-117946697D02*
X249877467Y-117994316D01*
X249877467Y-117994316D02*
X249829848Y-118089554D01*
X249829848Y-118089554D02*
X249782229Y-118280030D01*
X249782229Y-118280030D02*
X249782229Y-118518125D01*
X249782229Y-118518125D02*
X249829848Y-118708601D01*
X249829848Y-118708601D02*
X249877467Y-118803839D01*
X249877467Y-118803839D02*
X249925086Y-118851459D01*
X249925086Y-118851459D02*
X250020324Y-118899078D01*
X250020324Y-118899078D02*
X250115562Y-118899078D01*
X250115562Y-118899078D02*
X250210800Y-118851459D01*
X250210800Y-118851459D02*
X250258419Y-118803839D01*
X250258419Y-118803839D02*
X250306038Y-118708601D01*
X250306038Y-118708601D02*
X250353657Y-118518125D01*
X250353657Y-118518125D02*
X250353657Y-118280030D01*
X250353657Y-118280030D02*
X250306038Y-118089554D01*
X250306038Y-118089554D02*
X250258419Y-117994316D01*
X250258419Y-117994316D02*
X250210800Y-117946697D01*
X250210800Y-117946697D02*
X250115562Y-117899078D01*
X253379819Y-128768922D02*
X254379819Y-129102255D01*
X254379819Y-129102255D02*
X253379819Y-129435588D01*
X254284580Y-130340350D02*
X254332200Y-130292731D01*
X254332200Y-130292731D02*
X254379819Y-130149874D01*
X254379819Y-130149874D02*
X254379819Y-130054636D01*
X254379819Y-130054636D02*
X254332200Y-129911779D01*
X254332200Y-129911779D02*
X254236961Y-129816541D01*
X254236961Y-129816541D02*
X254141723Y-129768922D01*
X254141723Y-129768922D02*
X253951247Y-129721303D01*
X253951247Y-129721303D02*
X253808390Y-129721303D01*
X253808390Y-129721303D02*
X253617914Y-129768922D01*
X253617914Y-129768922D02*
X253522676Y-129816541D01*
X253522676Y-129816541D02*
X253427438Y-129911779D01*
X253427438Y-129911779D02*
X253379819Y-130054636D01*
X253379819Y-130054636D02*
X253379819Y-130149874D01*
X253379819Y-130149874D02*
X253427438Y-130292731D01*
X253427438Y-130292731D02*
X253475057Y-130340350D01*
X254284580Y-131340350D02*
X254332200Y-131292731D01*
X254332200Y-131292731D02*
X254379819Y-131149874D01*
X254379819Y-131149874D02*
X254379819Y-131054636D01*
X254379819Y-131054636D02*
X254332200Y-130911779D01*
X254332200Y-130911779D02*
X254236961Y-130816541D01*
X254236961Y-130816541D02*
X254141723Y-130768922D01*
X254141723Y-130768922D02*
X253951247Y-130721303D01*
X253951247Y-130721303D02*
X253808390Y-130721303D01*
X253808390Y-130721303D02*
X253617914Y-130768922D01*
X253617914Y-130768922D02*
X253522676Y-130816541D01*
X253522676Y-130816541D02*
X253427438Y-130911779D01*
X253427438Y-130911779D02*
X253379819Y-131054636D01*
X253379819Y-131054636D02*
X253379819Y-131149874D01*
X253379819Y-131149874D02*
X253427438Y-131292731D01*
X253427438Y-131292731D02*
X253475057Y-131340350D01*
X249091333Y-125733419D02*
X249138952Y-125876276D01*
X249138952Y-125876276D02*
X249138952Y-126114371D01*
X249138952Y-126114371D02*
X249091333Y-126209609D01*
X249091333Y-126209609D02*
X249043713Y-126257228D01*
X249043713Y-126257228D02*
X248948475Y-126304847D01*
X248948475Y-126304847D02*
X248853237Y-126304847D01*
X248853237Y-126304847D02*
X248757999Y-126257228D01*
X248757999Y-126257228D02*
X248710380Y-126209609D01*
X248710380Y-126209609D02*
X248662761Y-126114371D01*
X248662761Y-126114371D02*
X248615142Y-125923895D01*
X248615142Y-125923895D02*
X248567523Y-125828657D01*
X248567523Y-125828657D02*
X248519904Y-125781038D01*
X248519904Y-125781038D02*
X248424666Y-125733419D01*
X248424666Y-125733419D02*
X248329428Y-125733419D01*
X248329428Y-125733419D02*
X248234190Y-125781038D01*
X248234190Y-125781038D02*
X248186571Y-125828657D01*
X248186571Y-125828657D02*
X248138952Y-125923895D01*
X248138952Y-125923895D02*
X248138952Y-126161990D01*
X248138952Y-126161990D02*
X248186571Y-126304847D01*
X249138952Y-126733419D02*
X248138952Y-126733419D01*
X248138952Y-126733419D02*
X248138952Y-126971514D01*
X248138952Y-126971514D02*
X248186571Y-127114371D01*
X248186571Y-127114371D02*
X248281809Y-127209609D01*
X248281809Y-127209609D02*
X248377047Y-127257228D01*
X248377047Y-127257228D02*
X248567523Y-127304847D01*
X248567523Y-127304847D02*
X248710380Y-127304847D01*
X248710380Y-127304847D02*
X248900856Y-127257228D01*
X248900856Y-127257228D02*
X248996094Y-127209609D01*
X248996094Y-127209609D02*
X249091333Y-127114371D01*
X249091333Y-127114371D02*
X249138952Y-126971514D01*
X249138952Y-126971514D02*
X249138952Y-126733419D01*
X248853237Y-127685800D02*
X248853237Y-128161990D01*
X249138952Y-127590562D02*
X248138952Y-127923895D01*
X248138952Y-127923895D02*
X249138952Y-128257228D01*
X255806571Y-126304847D02*
X255758952Y-126209609D01*
X255758952Y-126209609D02*
X255758952Y-126066752D01*
X255758952Y-126066752D02*
X255806571Y-125923895D01*
X255806571Y-125923895D02*
X255901809Y-125828657D01*
X255901809Y-125828657D02*
X255997047Y-125781038D01*
X255997047Y-125781038D02*
X256187523Y-125733419D01*
X256187523Y-125733419D02*
X256330380Y-125733419D01*
X256330380Y-125733419D02*
X256520856Y-125781038D01*
X256520856Y-125781038D02*
X256616094Y-125828657D01*
X256616094Y-125828657D02*
X256711333Y-125923895D01*
X256711333Y-125923895D02*
X256758952Y-126066752D01*
X256758952Y-126066752D02*
X256758952Y-126161990D01*
X256758952Y-126161990D02*
X256711333Y-126304847D01*
X256711333Y-126304847D02*
X256663713Y-126352466D01*
X256663713Y-126352466D02*
X256330380Y-126352466D01*
X256330380Y-126352466D02*
X256330380Y-126161990D01*
X256758952Y-126781038D02*
X255758952Y-126781038D01*
X255758952Y-126781038D02*
X256758952Y-127352466D01*
X256758952Y-127352466D02*
X255758952Y-127352466D01*
X256758952Y-127828657D02*
X255758952Y-127828657D01*
X255758952Y-127828657D02*
X255758952Y-128066752D01*
X255758952Y-128066752D02*
X255806571Y-128209609D01*
X255806571Y-128209609D02*
X255901809Y-128304847D01*
X255901809Y-128304847D02*
X255997047Y-128352466D01*
X255997047Y-128352466D02*
X256187523Y-128400085D01*
X256187523Y-128400085D02*
X256330380Y-128400085D01*
X256330380Y-128400085D02*
X256520856Y-128352466D01*
X256520856Y-128352466D02*
X256616094Y-128304847D01*
X256616094Y-128304847D02*
X256711333Y-128209609D01*
X256711333Y-128209609D02*
X256758952Y-128066752D01*
X256758952Y-128066752D02*
X256758952Y-127828657D01*
X251631333Y-128789160D02*
X251678952Y-128932017D01*
X251678952Y-128932017D02*
X251678952Y-129170112D01*
X251678952Y-129170112D02*
X251631333Y-129265350D01*
X251631333Y-129265350D02*
X251583713Y-129312969D01*
X251583713Y-129312969D02*
X251488475Y-129360588D01*
X251488475Y-129360588D02*
X251393237Y-129360588D01*
X251393237Y-129360588D02*
X251297999Y-129312969D01*
X251297999Y-129312969D02*
X251250380Y-129265350D01*
X251250380Y-129265350D02*
X251202761Y-129170112D01*
X251202761Y-129170112D02*
X251155142Y-128979636D01*
X251155142Y-128979636D02*
X251107523Y-128884398D01*
X251107523Y-128884398D02*
X251059904Y-128836779D01*
X251059904Y-128836779D02*
X250964666Y-128789160D01*
X250964666Y-128789160D02*
X250869428Y-128789160D01*
X250869428Y-128789160D02*
X250774190Y-128836779D01*
X250774190Y-128836779D02*
X250726571Y-128884398D01*
X250726571Y-128884398D02*
X250678952Y-128979636D01*
X250678952Y-128979636D02*
X250678952Y-129217731D01*
X250678952Y-129217731D02*
X250726571Y-129360588D01*
X251583713Y-130360588D02*
X251631333Y-130312969D01*
X251631333Y-130312969D02*
X251678952Y-130170112D01*
X251678952Y-130170112D02*
X251678952Y-130074874D01*
X251678952Y-130074874D02*
X251631333Y-129932017D01*
X251631333Y-129932017D02*
X251536094Y-129836779D01*
X251536094Y-129836779D02*
X251440856Y-129789160D01*
X251440856Y-129789160D02*
X251250380Y-129741541D01*
X251250380Y-129741541D02*
X251107523Y-129741541D01*
X251107523Y-129741541D02*
X250917047Y-129789160D01*
X250917047Y-129789160D02*
X250821809Y-129836779D01*
X250821809Y-129836779D02*
X250726571Y-129932017D01*
X250726571Y-129932017D02*
X250678952Y-130074874D01*
X250678952Y-130074874D02*
X250678952Y-130170112D01*
X250678952Y-130170112D02*
X250726571Y-130312969D01*
X250726571Y-130312969D02*
X250774190Y-130360588D01*
X251678952Y-131265350D02*
X251678952Y-130789160D01*
X251678952Y-130789160D02*
X250678952Y-130789160D01*
X263197380Y-120054819D02*
X263006904Y-120054819D01*
X263006904Y-120054819D02*
X262911666Y-120102438D01*
X262911666Y-120102438D02*
X262816428Y-120197676D01*
X262816428Y-120197676D02*
X262768809Y-120388152D01*
X262768809Y-120388152D02*
X262768809Y-120721485D01*
X262768809Y-120721485D02*
X262816428Y-120911961D01*
X262816428Y-120911961D02*
X262911666Y-121007200D01*
X262911666Y-121007200D02*
X263006904Y-121054819D01*
X263006904Y-121054819D02*
X263197380Y-121054819D01*
X263197380Y-121054819D02*
X263292618Y-121007200D01*
X263292618Y-121007200D02*
X263387856Y-120911961D01*
X263387856Y-120911961D02*
X263435475Y-120721485D01*
X263435475Y-120721485D02*
X263435475Y-120388152D01*
X263435475Y-120388152D02*
X263387856Y-120197676D01*
X263387856Y-120197676D02*
X263292618Y-120102438D01*
X263292618Y-120102438D02*
X263197380Y-120054819D01*
X262006904Y-120531009D02*
X262340237Y-120531009D01*
X262340237Y-121054819D02*
X262340237Y-120054819D01*
X262340237Y-120054819D02*
X261864047Y-120054819D01*
X261149761Y-120531009D02*
X261483094Y-120531009D01*
X261483094Y-121054819D02*
X261483094Y-120054819D01*
X261483094Y-120054819D02*
X261006904Y-120054819D01*
X262864047Y-130054819D02*
X262673571Y-130054819D01*
X262673571Y-130054819D02*
X262578333Y-130102438D01*
X262578333Y-130102438D02*
X262483095Y-130197676D01*
X262483095Y-130197676D02*
X262435476Y-130388152D01*
X262435476Y-130388152D02*
X262435476Y-130721485D01*
X262435476Y-130721485D02*
X262483095Y-130911961D01*
X262483095Y-130911961D02*
X262578333Y-131007200D01*
X262578333Y-131007200D02*
X262673571Y-131054819D01*
X262673571Y-131054819D02*
X262864047Y-131054819D01*
X262864047Y-131054819D02*
X262959285Y-131007200D01*
X262959285Y-131007200D02*
X263054523Y-130911961D01*
X263054523Y-130911961D02*
X263102142Y-130721485D01*
X263102142Y-130721485D02*
X263102142Y-130388152D01*
X263102142Y-130388152D02*
X263054523Y-130197676D01*
X263054523Y-130197676D02*
X262959285Y-130102438D01*
X262959285Y-130102438D02*
X262864047Y-130054819D01*
X262006904Y-131054819D02*
X262006904Y-130054819D01*
X262006904Y-130054819D02*
X261435476Y-131054819D01*
X261435476Y-131054819D02*
X261435476Y-130054819D01*
D11*
%TO.C,D10*%
X169844133Y-125969259D02*
X170444133Y-126369259D01*
X169844133Y-126369259D02*
X169344133Y-126369259D01*
X169844133Y-126769259D02*
X169844133Y-125969259D01*
X170444133Y-126369259D02*
X169844133Y-126769259D01*
X170444133Y-126369259D02*
X170444133Y-125819259D01*
X170444133Y-126369259D02*
X170444133Y-126919260D01*
X170844133Y-126369259D02*
X170444133Y-126369259D01*
%TO.C,D6*%
X151844133Y-130719259D02*
X152444133Y-131119259D01*
X151844133Y-131119259D02*
X151344133Y-131119259D01*
X151844133Y-131519259D02*
X151844133Y-130719259D01*
X152444133Y-131119259D02*
X151844133Y-131519259D01*
X152444133Y-131119259D02*
X152444133Y-130569259D01*
X152444133Y-131119259D02*
X152444133Y-131669260D01*
X152844133Y-131119259D02*
X152444133Y-131119259D01*
%TO.C,D9*%
X169844134Y-142969259D02*
X170444134Y-143369259D01*
X169844134Y-143369259D02*
X169344134Y-143369259D01*
X169844134Y-143769259D02*
X169844134Y-142969259D01*
X170444134Y-143369259D02*
X169844134Y-143769259D01*
X170444134Y-143369259D02*
X170444134Y-142819259D01*
X170444134Y-143369259D02*
X170444134Y-143919260D01*
X170844134Y-143369259D02*
X170444134Y-143369259D01*
%TO.C,D3*%
X133844133Y-113719260D02*
X134444133Y-114119260D01*
X133844133Y-114119260D02*
X133344133Y-114119260D01*
X133844133Y-114519260D02*
X133844133Y-113719260D01*
X134444133Y-114119260D02*
X133844133Y-114519260D01*
X134444133Y-114119260D02*
X134444133Y-113569260D01*
X134444133Y-114119260D02*
X134444133Y-114669261D01*
X134844133Y-114119260D02*
X134444133Y-114119260D01*
%TO.C,D14*%
X187844133Y-106594260D02*
X188444133Y-106994260D01*
X187844133Y-106994260D02*
X187344133Y-106994260D01*
X187844133Y-107394260D02*
X187844133Y-106594260D01*
X188444133Y-106994260D02*
X187844133Y-107394260D01*
X188444133Y-106994260D02*
X188444133Y-106444260D01*
X188444133Y-106994260D02*
X188444133Y-107544261D01*
X188844133Y-106994260D02*
X188444133Y-106994260D01*
%TO.C,D20*%
X223844133Y-111344260D02*
X224444133Y-111744260D01*
X223844133Y-111744260D02*
X223344133Y-111744260D01*
X223844133Y-112144260D02*
X223844133Y-111344260D01*
X224444133Y-111744260D02*
X223844133Y-112144260D01*
X224444133Y-111744260D02*
X224444133Y-111194260D01*
X224444133Y-111744260D02*
X224444133Y-112294261D01*
X224844133Y-111744260D02*
X224444133Y-111744260D01*
%TO.C,D11*%
X169844133Y-108969259D02*
X170444133Y-109369259D01*
X169844133Y-109369259D02*
X169344133Y-109369259D01*
X169844133Y-109769259D02*
X169844133Y-108969259D01*
X170444133Y-109369259D02*
X169844133Y-109769259D01*
X170444133Y-109369259D02*
X170444133Y-108819259D01*
X170444133Y-109369259D02*
X170444133Y-109919260D01*
X170844133Y-109369259D02*
X170444133Y-109369259D01*
%TO.C,RST1*%
X260250000Y-132894260D02*
X260250000Y-132644260D01*
X260250000Y-137094260D02*
X260250000Y-137344260D01*
X260500000Y-132644260D02*
X260250000Y-132644260D01*
X260500000Y-137344260D02*
X260250000Y-137344260D01*
X263500000Y-132644260D02*
X263750000Y-132644260D01*
X263500000Y-137344260D02*
X263750000Y-137344260D01*
X263750000Y-132894260D02*
X263750000Y-132644260D01*
X263750000Y-137094260D02*
X263750000Y-137344260D01*
D12*
%TO.C,MCU1*%
X243544134Y-89174259D02*
X243544134Y-119774259D01*
X246204134Y-89174258D02*
X243544134Y-89174259D01*
X246204134Y-89174258D02*
X246204134Y-119774259D01*
X246204134Y-119774259D02*
X243544134Y-119774259D01*
X258784134Y-89174259D02*
X258784134Y-119774259D01*
X261444134Y-89174259D02*
X258784134Y-89174259D01*
X261444134Y-89174259D02*
X261444134Y-119774259D01*
X261444134Y-91774259D02*
X258784134Y-91774259D01*
X261444134Y-119774259D02*
X258784134Y-119774259D01*
D11*
%TO.C,D22*%
X199844134Y-148594260D02*
X200444134Y-148994260D01*
X199844134Y-148994260D02*
X199344134Y-148994260D01*
X199844134Y-149394260D02*
X199844134Y-148594260D01*
X200444134Y-148994260D02*
X199844134Y-149394260D01*
X200444134Y-148994260D02*
X200444134Y-148444260D01*
X200444134Y-148994260D02*
X200444134Y-149544261D01*
X200844134Y-148994260D02*
X200444134Y-148994260D01*
%TO.C,D19*%
X223844133Y-128344260D02*
X224444133Y-128744260D01*
X223844133Y-128744260D02*
X223344133Y-128744260D01*
X223844133Y-129144260D02*
X223844133Y-128344260D01*
X224444133Y-128744260D02*
X223844133Y-129144260D01*
X224444133Y-128744260D02*
X224444133Y-128194260D01*
X224444133Y-128744260D02*
X224444133Y-129294261D01*
X224844133Y-128744260D02*
X224444133Y-128744260D01*
D12*
%TO.C,DISP1*%
X247354133Y-122314259D02*
X247354133Y-124974260D01*
X257634133Y-122314259D02*
X247354133Y-122314259D01*
X257634133Y-122314259D02*
X257634133Y-124974259D01*
X257634133Y-124974259D02*
X247354133Y-124974260D01*
D11*
%TO.C,D12*%
X169844133Y-91969259D02*
X170444133Y-92369259D01*
X169844133Y-92369259D02*
X169344133Y-92369259D01*
X169844133Y-92769259D02*
X169844133Y-91969259D01*
X170444133Y-92369259D02*
X169844133Y-92769259D01*
X170444133Y-92369259D02*
X170444133Y-91819259D01*
X170444133Y-92369259D02*
X170444133Y-92919260D01*
X170844133Y-92369259D02*
X170444133Y-92369259D01*
%TO.C,D7*%
X151844134Y-113719260D02*
X152444134Y-114119260D01*
X151844134Y-114119260D02*
X151344134Y-114119260D01*
X151844134Y-114519260D02*
X151844134Y-113719260D01*
X152444134Y-114119260D02*
X151844134Y-114519260D01*
X152444134Y-114119260D02*
X152444134Y-113569260D01*
X152444134Y-114119260D02*
X152444134Y-114669261D01*
X152844134Y-114119260D02*
X152444134Y-114119260D01*
%TO.C,D25*%
X247750000Y-136500000D02*
X248150000Y-136500000D01*
X248150000Y-136500000D02*
X248150000Y-135949999D01*
X248150000Y-136500000D02*
X248150000Y-137050000D01*
X248150000Y-136500000D02*
X248750000Y-136100000D01*
X248750000Y-136100000D02*
X248750000Y-136900000D01*
X248750000Y-136500000D02*
X249250000Y-136500000D01*
X248750000Y-136900000D02*
X248150000Y-136500000D01*
%TO.C,D1*%
X133844133Y-147719260D02*
X134444133Y-148119260D01*
X133844133Y-148119260D02*
X133344133Y-148119260D01*
X133844133Y-148519260D02*
X133844133Y-147719260D01*
X134444133Y-148119260D02*
X133844133Y-148519260D01*
X134444133Y-148119260D02*
X134444133Y-147569260D01*
X134444133Y-148119260D02*
X134444133Y-148669261D01*
X134844133Y-148119260D02*
X134444133Y-148119260D01*
D12*
%TO.C,PWR1*%
X260820000Y-124000000D02*
X260820000Y-125700000D01*
X260820000Y-127000000D02*
X260820000Y-127200000D01*
X261870000Y-122150000D02*
X262660000Y-122150000D01*
X262660000Y-129050000D02*
X261870001Y-129050000D01*
X263670000Y-122750000D02*
X263670001Y-128450000D01*
D11*
%TO.C,D24*%
X241381620Y-165503279D02*
X242028030Y-165183664D01*
X241728030Y-165703279D02*
X241478030Y-166136292D01*
X242028030Y-165183664D02*
X241551716Y-164908664D01*
X242028030Y-165183664D02*
X242074440Y-165903279D01*
X242028030Y-165183664D02*
X242504344Y-165458664D01*
X242074440Y-165903279D02*
X241381620Y-165503279D01*
X242228030Y-164837254D02*
X242028030Y-165183664D01*
%TO.C,D21*%
X223844133Y-94344260D02*
X224444133Y-94744260D01*
X223844133Y-94744260D02*
X223344133Y-94744260D01*
X223844133Y-95144260D02*
X223844133Y-94344260D01*
X224444133Y-94744260D02*
X223844133Y-95144260D01*
X224444133Y-94744260D02*
X224444133Y-94194260D01*
X224444133Y-94744260D02*
X224444133Y-95294261D01*
X224844133Y-94744260D02*
X224444133Y-94744260D01*
%TO.C,D18*%
X205844133Y-91969260D02*
X206444133Y-92369260D01*
X205844133Y-92369260D02*
X205344133Y-92369260D01*
X205844133Y-92769260D02*
X205844133Y-91969260D01*
X206444133Y-92369260D02*
X205844133Y-92769260D01*
X206444133Y-92369260D02*
X206444133Y-91819260D01*
X206444133Y-92369260D02*
X206444133Y-92919261D01*
X206844133Y-92369260D02*
X206444133Y-92369260D01*
%TO.C,D16*%
X205844134Y-125969260D02*
X206444134Y-126369260D01*
X205844134Y-126369260D02*
X205344134Y-126369260D01*
X205844134Y-126769260D02*
X205844134Y-125969260D01*
X206444134Y-126369260D02*
X205844134Y-126769260D01*
X206444134Y-126369260D02*
X206444134Y-125819260D01*
X206444134Y-126369260D02*
X206444134Y-126919261D01*
X206844134Y-126369260D02*
X206444134Y-126369260D01*
%TO.C,JST1*%
X236994133Y-125444259D02*
X236994134Y-124444259D01*
X236994134Y-122444259D02*
X236994134Y-123444259D01*
X237494134Y-122944259D02*
X236494134Y-122944259D01*
D12*
X238034134Y-120884259D02*
X239034134Y-120884259D01*
X238034134Y-121804259D02*
X238034134Y-120884259D01*
X238034134Y-127004259D02*
X239034134Y-127004259D01*
X238034135Y-126084259D02*
X238034134Y-127004259D01*
X245854134Y-120884259D02*
X244854134Y-120884259D01*
X245854134Y-121884259D02*
X245854134Y-120884259D01*
X245854134Y-126084258D02*
X245854134Y-127004259D01*
X245854134Y-127004259D02*
X244854134Y-127004259D01*
D11*
%TO.C,D15*%
X187844133Y-89594260D02*
X188444133Y-89994260D01*
X187844133Y-89994260D02*
X187344133Y-89994260D01*
X187844133Y-90394260D02*
X187844133Y-89594260D01*
X188444133Y-89994260D02*
X187844133Y-90394260D01*
X188444133Y-89994260D02*
X188444133Y-89444260D01*
X188444133Y-89994260D02*
X188444133Y-90544261D01*
X188844133Y-89994260D02*
X188444133Y-89994260D01*
%TO.C,D23*%
X221437134Y-150789979D02*
X221644189Y-150017238D01*
X221540662Y-150403608D02*
X221057699Y-150274199D01*
X221644189Y-150017238D02*
X222120217Y-150558900D01*
X222120217Y-150558900D02*
X221437134Y-150789979D01*
X222120217Y-150558900D02*
X221977867Y-151090159D01*
X222120217Y-150558900D02*
X222262568Y-150027639D01*
X222506587Y-150662427D02*
X222120217Y-150558900D01*
%TO.C,D4*%
X133844133Y-96719260D02*
X134444133Y-97119260D01*
X133844133Y-97119260D02*
X133344133Y-97119260D01*
X133844133Y-97519260D02*
X133844133Y-96719260D01*
X134444133Y-97119260D02*
X133844133Y-97519260D01*
X134444133Y-97119260D02*
X134444133Y-96569260D01*
X134444133Y-97119260D02*
X134444133Y-97669261D01*
X134844133Y-97119260D02*
X134444133Y-97119260D01*
%TO.C,D2*%
X133844134Y-130719260D02*
X134444134Y-131119260D01*
X133844134Y-131119260D02*
X133344134Y-131119260D01*
X133844134Y-131519260D02*
X133844134Y-130719260D01*
X134444134Y-131119260D02*
X133844134Y-131519260D01*
X134444134Y-131119260D02*
X134444134Y-130569260D01*
X134444134Y-131119260D02*
X134444134Y-131669261D01*
X134844134Y-131119260D02*
X134444134Y-131119260D01*
%TO.C,D17*%
X205844133Y-108969260D02*
X206444133Y-109369260D01*
X205844133Y-109369260D02*
X205344133Y-109369260D01*
X205844133Y-109769260D02*
X205844133Y-108969260D01*
X206444133Y-109369260D02*
X205844133Y-109769260D01*
X206444133Y-109369260D02*
X206444133Y-108819260D01*
X206444133Y-109369260D02*
X206444133Y-109919261D01*
X206844133Y-109369260D02*
X206444133Y-109369260D01*
%TO.C,D13*%
X187844133Y-123594259D02*
X188444133Y-123994259D01*
X187844133Y-123994259D02*
X187344133Y-123994259D01*
X187844133Y-124394259D02*
X187844133Y-123594259D01*
X188444133Y-123994259D02*
X187844133Y-124394259D01*
X188444133Y-123994259D02*
X188444133Y-123444259D01*
X188444133Y-123994259D02*
X188444133Y-124544260D01*
X188844133Y-123994259D02*
X188444133Y-123994259D01*
%TO.C,D8*%
X151844133Y-96719260D02*
X152444133Y-97119260D01*
X151844133Y-97119260D02*
X151344133Y-97119260D01*
X151844133Y-97519260D02*
X151844133Y-96719260D01*
X152444133Y-97119260D02*
X151844133Y-97519260D01*
X152444133Y-97119260D02*
X152444133Y-96569260D01*
X152444133Y-97119260D02*
X152444133Y-97669261D01*
X152844133Y-97119260D02*
X152444133Y-97119260D01*
%TO.C,D5*%
X151844133Y-147719259D02*
X152444133Y-148119259D01*
X151844133Y-148119259D02*
X151344133Y-148119259D01*
X151844133Y-148519259D02*
X151844133Y-147719259D01*
X152444133Y-148119259D02*
X151844133Y-148519259D01*
X152444133Y-148119259D02*
X152444133Y-147569259D01*
X152444133Y-148119259D02*
X152444133Y-148669260D01*
X152844133Y-148119259D02*
X152444133Y-148119259D01*
D12*
%TO.C,LED5*%
X153294133Y-143519259D02*
X154894133Y-143519259D01*
X153294133Y-145119259D02*
X153294133Y-143519259D01*
D10*
%TO.C,S23*%
X217727975Y-157871266D02*
X217883267Y-157291710D01*
X218815015Y-153814377D02*
X218944425Y-153331413D01*
X218944425Y-153331413D02*
X223291091Y-154496100D01*
X222055323Y-159030775D02*
X217727975Y-157871266D01*
X222169376Y-160614250D02*
X222407489Y-159725598D01*
X222169376Y-160614250D02*
X222522929Y-161226622D01*
X222522929Y-161226622D02*
X225420707Y-162003079D01*
X223291091Y-154496100D02*
X223109918Y-155172248D01*
X224363763Y-157061129D02*
X226585392Y-157656413D01*
X225420707Y-162003079D02*
X226033079Y-161649526D01*
X226585392Y-157656413D02*
X226938946Y-158268786D01*
X222055323Y-159030775D02*
G75*
G02*
X222407490Y-159725598I-171328J-523495D01*
G01*
X224363763Y-157061129D02*
G75*
G02*
X223104741Y-155191567I305270J1564292D01*
G01*
%TO.C,S5*%
X150094133Y-151619259D02*
X154594133Y-151619259D01*
X150094133Y-152119259D02*
X150094133Y-151619259D01*
X150094133Y-156319258D02*
X150094133Y-155719259D01*
X154574133Y-156319259D02*
X150094133Y-156319258D01*
X154594133Y-151619259D02*
X154594133Y-152319258D01*
X155094133Y-157819259D02*
X155094133Y-156899259D01*
X155094133Y-157819259D02*
X155594133Y-158319259D01*
X155594133Y-158319259D02*
X158594133Y-158319259D01*
X156294133Y-153819259D02*
X158594133Y-153819259D01*
X158594133Y-153819259D02*
X159094133Y-154319259D01*
X158594133Y-158319259D02*
X159094133Y-157819259D01*
X154574133Y-156319259D02*
G75*
G02*
X155094133Y-156899259I-30000J-550000D01*
G01*
X156294133Y-153819259D02*
G75*
G02*
X154594133Y-152339259I-110000J1590000D01*
G01*
%TO.C,S3*%
X132094133Y-117619259D02*
X136594133Y-117619259D01*
X132094133Y-118119259D02*
X132094133Y-117619259D01*
X132094133Y-122319258D02*
X132094133Y-121719259D01*
X136574133Y-122319259D02*
X132094133Y-122319258D01*
X136594133Y-117619259D02*
X136594133Y-118319258D01*
X137094133Y-123819259D02*
X137094133Y-122899259D01*
X137094133Y-123819259D02*
X137594133Y-124319259D01*
X137594133Y-124319259D02*
X140594133Y-124319259D01*
X138294133Y-119819259D02*
X140594133Y-119819259D01*
X140594133Y-119819259D02*
X141094133Y-120319259D01*
X140594133Y-124319259D02*
X141094133Y-123819259D01*
X136574133Y-122319259D02*
G75*
G02*
X137094133Y-122899259I-30000J-550000D01*
G01*
X138294133Y-119819259D02*
G75*
G02*
X136594133Y-118339259I-110000J1590000D01*
G01*
D12*
%TO.C,LED3*%
X135294133Y-109519259D02*
X136894133Y-109519259D01*
X135294133Y-111119259D02*
X135294133Y-109519259D01*
D10*
%TO.C,S14*%
X186094133Y-110494259D02*
X190594133Y-110494259D01*
X186094133Y-110994259D02*
X186094133Y-110494259D01*
X186094133Y-115194258D02*
X186094133Y-114594259D01*
X190574133Y-115194259D02*
X186094133Y-115194258D01*
X190594133Y-110494259D02*
X190594133Y-111194258D01*
X191094133Y-116694259D02*
X191094133Y-115774259D01*
X191094133Y-116694259D02*
X191594133Y-117194259D01*
X191594133Y-117194259D02*
X194594133Y-117194259D01*
X192294133Y-112694259D02*
X194594133Y-112694259D01*
X194594133Y-112694259D02*
X195094133Y-113194259D01*
X194594133Y-117194259D02*
X195094133Y-116694259D01*
X190574133Y-115194259D02*
G75*
G02*
X191094133Y-115774259I-30000J-550000D01*
G01*
X192294133Y-112694259D02*
G75*
G02*
X190594133Y-111214259I-110000J1590000D01*
G01*
%TO.C,S2*%
X132094133Y-134619259D02*
X136594133Y-134619259D01*
X132094133Y-135119259D02*
X132094133Y-134619259D01*
X132094133Y-139319258D02*
X132094133Y-138719259D01*
X136574133Y-139319259D02*
X132094133Y-139319258D01*
X136594133Y-134619259D02*
X136594133Y-135319258D01*
X137094133Y-140819259D02*
X137094133Y-139899259D01*
X137094133Y-140819259D02*
X137594133Y-141319259D01*
X137594133Y-141319259D02*
X140594133Y-141319259D01*
X138294133Y-136819259D02*
X140594133Y-136819259D01*
X140594133Y-136819259D02*
X141094133Y-137319259D01*
X140594133Y-141319259D02*
X141094133Y-140819259D01*
X136574133Y-139319259D02*
G75*
G02*
X137094133Y-139899259I-30000J-550000D01*
G01*
X138294133Y-136819259D02*
G75*
G02*
X136594133Y-135339259I-110000J1590000D01*
G01*
%TO.C,S21*%
X222094133Y-98244259D02*
X226594133Y-98244259D01*
X222094133Y-98744259D02*
X222094133Y-98244259D01*
X222094133Y-102944258D02*
X222094133Y-102344259D01*
X226574133Y-102944259D02*
X222094133Y-102944258D01*
X226594133Y-98244259D02*
X226594133Y-98944258D01*
X227094133Y-104444259D02*
X227094133Y-103524259D01*
X227094133Y-104444259D02*
X227594133Y-104944259D01*
X227594133Y-104944259D02*
X230594133Y-104944259D01*
X228294133Y-100444259D02*
X230594133Y-100444259D01*
X230594133Y-100444259D02*
X231094133Y-100944259D01*
X230594133Y-104944259D02*
X231094133Y-104444259D01*
X226574133Y-102944259D02*
G75*
G02*
X227094133Y-103524259I-30000J-550000D01*
G01*
X228294133Y-100444259D02*
G75*
G02*
X226594133Y-98964259I-110000J1590000D01*
G01*
%TO.C,S9*%
X168094133Y-146869260D02*
X172594133Y-146869260D01*
X168094133Y-147369260D02*
X168094133Y-146869260D01*
X168094133Y-151569259D02*
X168094133Y-150969260D01*
X172574133Y-151569260D02*
X168094133Y-151569259D01*
X172594133Y-146869260D02*
X172594133Y-147569259D01*
X173094133Y-153069260D02*
X173094133Y-152149260D01*
X173094133Y-153069260D02*
X173594133Y-153569260D01*
X173594133Y-153569260D02*
X176594133Y-153569260D01*
X174294133Y-149069260D02*
X176594133Y-149069260D01*
X176594133Y-149069260D02*
X177094133Y-149569260D01*
X176594133Y-153569260D02*
X177094133Y-153069260D01*
X172574133Y-151569260D02*
G75*
G02*
X173094133Y-152149260I-30000J-550000D01*
G01*
X174294133Y-149069260D02*
G75*
G02*
X172594133Y-147589260I-110000J1590000D01*
G01*
D12*
%TO.C,LED17*%
X207294133Y-104769259D02*
X208894133Y-104769259D01*
X207294133Y-106369259D02*
X207294133Y-104769259D01*
D10*
%TO.C,S13*%
X186094134Y-127494259D02*
X190594134Y-127494259D01*
X186094134Y-127994259D02*
X186094134Y-127494259D01*
X186094134Y-132194258D02*
X186094134Y-131594259D01*
X190574134Y-132194259D02*
X186094134Y-132194258D01*
X190594134Y-127494259D02*
X190594134Y-128194258D01*
X191094134Y-133694259D02*
X191094134Y-132774259D01*
X191094134Y-133694259D02*
X191594134Y-134194259D01*
X191594134Y-134194259D02*
X194594134Y-134194259D01*
X192294134Y-129694259D02*
X194594134Y-129694259D01*
X194594134Y-129694259D02*
X195094134Y-130194259D01*
X194594134Y-134194259D02*
X195094134Y-133694259D01*
X190574134Y-132194259D02*
G75*
G02*
X191094134Y-132774259I-30000J-550000D01*
G01*
X192294134Y-129694259D02*
G75*
G02*
X190594134Y-128214259I-110000J1590000D01*
G01*
D12*
%TO.C,LED21*%
X225294133Y-90144259D02*
X226894133Y-90144259D01*
X225294133Y-91744259D02*
X225294133Y-90144259D01*
D10*
%TO.C,S8*%
X150094133Y-100619259D02*
X154594133Y-100619259D01*
X150094133Y-101119259D02*
X150094133Y-100619259D01*
X150094133Y-105319258D02*
X150094133Y-104719259D01*
X154574133Y-105319259D02*
X150094133Y-105319258D01*
X154594133Y-100619259D02*
X154594133Y-101319258D01*
X155094133Y-106819259D02*
X155094133Y-105899259D01*
X155094133Y-106819259D02*
X155594133Y-107319259D01*
X155594133Y-107319259D02*
X158594133Y-107319259D01*
X156294133Y-102819259D02*
X158594133Y-102819259D01*
X158594133Y-102819259D02*
X159094133Y-103319259D01*
X158594133Y-107319259D02*
X159094133Y-106819259D01*
X154574133Y-105319259D02*
G75*
G02*
X155094133Y-105899259I-30000J-550000D01*
G01*
X156294133Y-102819259D02*
G75*
G02*
X154594133Y-101339259I-110000J1590000D01*
G01*
D12*
%TO.C,LED19*%
X225294134Y-124144259D02*
X226894134Y-124144259D01*
X225294134Y-125744259D02*
X225294134Y-124144259D01*
D10*
%TO.C,S20*%
X222094133Y-115244259D02*
X226594133Y-115244259D01*
X222094133Y-115744259D02*
X222094133Y-115244259D01*
X222094133Y-119944258D02*
X222094133Y-119344259D01*
X226574133Y-119944259D02*
X222094133Y-119944258D01*
X226594133Y-115244259D02*
X226594133Y-115944258D01*
X227094133Y-121444259D02*
X227094133Y-120524259D01*
X227094133Y-121444259D02*
X227594133Y-121944259D01*
X227594133Y-121944259D02*
X230594133Y-121944259D01*
X228294133Y-117444259D02*
X230594133Y-117444259D01*
X230594133Y-117444259D02*
X231094133Y-117944259D01*
X230594133Y-121944259D02*
X231094133Y-121444259D01*
X226574133Y-119944259D02*
G75*
G02*
X227094133Y-120524259I-30000J-550000D01*
G01*
X228294133Y-117444259D02*
G75*
G02*
X226594133Y-115964259I-110000J1590000D01*
G01*
D12*
%TO.C,LED8*%
X153294133Y-92519259D02*
X154894133Y-92519259D01*
X153294133Y-94119259D02*
X153294133Y-92519259D01*
%TO.C,LED15*%
X189294133Y-85394259D02*
X190894133Y-85394259D01*
X189294133Y-86994259D02*
X189294133Y-85394259D01*
D10*
%TO.C,S17*%
X204094133Y-112869259D02*
X208594133Y-112869259D01*
X204094133Y-113369259D02*
X204094133Y-112869259D01*
X204094133Y-117569258D02*
X204094133Y-116969259D01*
X208574133Y-117569259D02*
X204094133Y-117569258D01*
X208594133Y-112869259D02*
X208594133Y-113569258D01*
X209094133Y-119069259D02*
X209094133Y-118149259D01*
X209094133Y-119069259D02*
X209594133Y-119569259D01*
X209594133Y-119569259D02*
X212594133Y-119569259D01*
X210294133Y-115069259D02*
X212594133Y-115069259D01*
X212594133Y-115069259D02*
X213094133Y-115569259D01*
X212594133Y-119569259D02*
X213094133Y-119069259D01*
X208574133Y-117569259D02*
G75*
G02*
X209094133Y-118149259I-30000J-550000D01*
G01*
X210294133Y-115069259D02*
G75*
G02*
X208594133Y-113589259I-110000J1590000D01*
G01*
%TO.C,S6*%
X150094134Y-134619259D02*
X154594134Y-134619259D01*
X150094134Y-135119259D02*
X150094134Y-134619259D01*
X150094134Y-139319258D02*
X150094134Y-138719259D01*
X154574134Y-139319259D02*
X150094134Y-139319258D01*
X154594134Y-134619259D02*
X154594134Y-135319258D01*
X155094134Y-140819259D02*
X155094134Y-139899259D01*
X155094134Y-140819259D02*
X155594134Y-141319259D01*
X155594134Y-141319259D02*
X158594134Y-141319259D01*
X156294134Y-136819259D02*
X158594134Y-136819259D01*
X158594134Y-136819259D02*
X159094134Y-137319259D01*
X158594134Y-141319259D02*
X159094134Y-140819259D01*
X154574134Y-139319259D02*
G75*
G02*
X155094134Y-139899259I-30000J-550000D01*
G01*
X156294134Y-136819259D02*
G75*
G02*
X154594134Y-135339259I-110000J1590000D01*
G01*
D12*
%TO.C,LED2*%
X135294134Y-126519259D02*
X136894134Y-126519259D01*
X135294134Y-128119259D02*
X135294134Y-126519259D01*
D10*
%TO.C,S11*%
X168094133Y-112869260D02*
X172594133Y-112869260D01*
X168094133Y-113369260D02*
X168094133Y-112869260D01*
X168094133Y-117569259D02*
X168094133Y-116969260D01*
X172574133Y-117569260D02*
X168094133Y-117569259D01*
X172594133Y-112869260D02*
X172594133Y-113569259D01*
X173094133Y-119069260D02*
X173094133Y-118149260D01*
X173094133Y-119069260D02*
X173594133Y-119569260D01*
X173594133Y-119569260D02*
X176594133Y-119569260D01*
X174294133Y-115069260D02*
X176594133Y-115069260D01*
X176594133Y-115069260D02*
X177094133Y-115569260D01*
X176594133Y-119569260D02*
X177094133Y-119069260D01*
X172574133Y-117569260D02*
G75*
G02*
X173094133Y-118149260I-30000J-550000D01*
G01*
X174294133Y-115069260D02*
G75*
G02*
X172594133Y-113589260I-110000J1590000D01*
G01*
%TO.C,S10*%
X168094133Y-129869260D02*
X172594133Y-129869260D01*
X168094133Y-130369260D02*
X168094133Y-129869260D01*
X168094133Y-134569259D02*
X168094133Y-133969260D01*
X172574133Y-134569260D02*
X168094133Y-134569259D01*
X172594133Y-129869260D02*
X172594133Y-130569259D01*
X173094133Y-136069260D02*
X173094133Y-135149260D01*
X173094133Y-136069260D02*
X173594133Y-136569260D01*
X173594133Y-136569260D02*
X176594133Y-136569260D01*
X174294133Y-132069260D02*
X176594133Y-132069260D01*
X176594133Y-132069260D02*
X177094133Y-132569260D01*
X176594133Y-136569260D02*
X177094133Y-136069260D01*
X172574133Y-134569260D02*
G75*
G02*
X173094133Y-135149260I-30000J-550000D01*
G01*
X174294133Y-132069260D02*
G75*
G02*
X172594133Y-130589260I-110000J1590000D01*
G01*
D12*
%TO.C,LED20*%
X225294133Y-107144259D02*
X226894133Y-107144259D01*
X225294133Y-108744259D02*
X225294133Y-107144259D01*
%TO.C,LED23*%
X223717710Y-147881118D02*
X224131820Y-146335636D01*
X224131820Y-146335636D02*
X225677302Y-146749747D01*
%TO.C,LED18*%
X207294133Y-87769259D02*
X208894133Y-87769259D01*
X207294133Y-89369259D02*
X207294133Y-87769259D01*
D10*
%TO.C,S4*%
X132094133Y-100619259D02*
X136594133Y-100619259D01*
X132094133Y-101119259D02*
X132094133Y-100619259D01*
X132094133Y-105319258D02*
X132094133Y-104719259D01*
X136574133Y-105319259D02*
X132094133Y-105319258D01*
X136594133Y-100619259D02*
X136594133Y-101319258D01*
X137094133Y-106819259D02*
X137094133Y-105899259D01*
X137094133Y-106819259D02*
X137594133Y-107319259D01*
X137594133Y-107319259D02*
X140594133Y-107319259D01*
X138294133Y-102819259D02*
X140594133Y-102819259D01*
X140594133Y-102819259D02*
X141094133Y-103319259D01*
X140594133Y-107319259D02*
X141094133Y-106819259D01*
X136574133Y-105319259D02*
G75*
G02*
X137094133Y-105899259I-30000J-550000D01*
G01*
X138294133Y-102819259D02*
G75*
G02*
X136594133Y-101339259I-110000J1590000D01*
G01*
D12*
%TO.C,LED22*%
X201294134Y-144394259D02*
X202894134Y-144394259D01*
X201294134Y-145994259D02*
X201294134Y-144394259D01*
D10*
%TO.C,S24*%
X243884119Y-168968824D02*
X246134119Y-165071710D01*
X244317132Y-169218824D02*
X243884119Y-168968824D01*
X246134119Y-165071710D02*
X246740337Y-165421710D01*
X247954439Y-171318824D02*
X247434823Y-171018824D01*
X248889375Y-164699466D02*
X250039375Y-162707608D01*
X250039375Y-162707608D02*
X250722388Y-162524595D01*
X250194439Y-167439030D02*
X247954439Y-171318824D01*
X251753477Y-167738697D02*
X250956733Y-167278697D01*
X251753477Y-167738697D02*
X252436489Y-167555684D01*
X252436489Y-167555684D02*
X253936489Y-164957608D01*
X253936489Y-164957608D02*
X253753477Y-164274595D01*
X248889375Y-164699466D02*
G75*
G02*
X246757657Y-165431709I-1431980J699737D01*
G01*
X250194439Y-167439030D02*
G75*
G02*
X250956733Y-167278698I461313J-300981D01*
G01*
%TO.C,S1*%
X132094134Y-151619259D02*
X136594134Y-151619259D01*
X132094134Y-152119259D02*
X132094134Y-151619259D01*
X132094134Y-156319258D02*
X132094134Y-155719259D01*
X136574134Y-156319259D02*
X132094134Y-156319258D01*
X136594134Y-151619259D02*
X136594134Y-152319258D01*
X137094134Y-157819259D02*
X137094134Y-156899259D01*
X137094134Y-157819259D02*
X137594134Y-158319259D01*
X137594134Y-158319259D02*
X140594134Y-158319259D01*
X138294134Y-153819259D02*
X140594134Y-153819259D01*
X140594134Y-153819259D02*
X141094134Y-154319259D01*
X140594134Y-158319259D02*
X141094134Y-157819259D01*
X136574134Y-156319259D02*
G75*
G02*
X137094134Y-156899259I-30000J-550000D01*
G01*
X138294134Y-153819259D02*
G75*
G02*
X136594134Y-152339259I-110000J1590000D01*
G01*
D12*
%TO.C,LED14*%
X189294134Y-102394259D02*
X190894134Y-102394259D01*
X189294134Y-103994259D02*
X189294134Y-102394259D01*
%TO.C,LED6*%
X153294133Y-126519259D02*
X154894133Y-126519259D01*
X153294133Y-128119259D02*
X153294133Y-126519259D01*
%TO.C,LED13*%
X189294133Y-119394259D02*
X190894133Y-119394259D01*
X189294133Y-120994259D02*
X189294133Y-119394259D01*
%TO.C,LED4*%
X135294133Y-92519259D02*
X136894133Y-92519259D01*
X135294133Y-94119259D02*
X135294133Y-92519259D01*
%TO.C,LED12*%
X171294133Y-87769260D02*
X172894133Y-87769260D01*
X171294133Y-89369260D02*
X171294133Y-87769260D01*
D10*
%TO.C,S7*%
X150094133Y-117619259D02*
X154594133Y-117619259D01*
X150094133Y-118119259D02*
X150094133Y-117619259D01*
X150094133Y-122319258D02*
X150094133Y-121719259D01*
X154574133Y-122319259D02*
X150094133Y-122319258D01*
X154594133Y-117619259D02*
X154594133Y-118319258D01*
X155094133Y-123819259D02*
X155094133Y-122899259D01*
X155094133Y-123819259D02*
X155594133Y-124319259D01*
X155594133Y-124319259D02*
X158594133Y-124319259D01*
X156294133Y-119819259D02*
X158594133Y-119819259D01*
X158594133Y-119819259D02*
X159094133Y-120319259D01*
X158594133Y-124319259D02*
X159094133Y-123819259D01*
X154574133Y-122319259D02*
G75*
G02*
X155094133Y-122899259I-30000J-550000D01*
G01*
X156294133Y-119819259D02*
G75*
G02*
X154594133Y-118339259I-110000J1590000D01*
G01*
D12*
%TO.C,LED1*%
X135294133Y-143519259D02*
X136894133Y-143519259D01*
X135294133Y-145119259D02*
X135294133Y-143519259D01*
D10*
%TO.C,S15*%
X186094133Y-93494259D02*
X190594133Y-93494259D01*
X186094133Y-93994259D02*
X186094133Y-93494259D01*
X186094133Y-98194258D02*
X186094133Y-97594259D01*
X190574133Y-98194259D02*
X186094133Y-98194258D01*
X190594133Y-93494259D02*
X190594133Y-94194258D01*
X191094133Y-99694259D02*
X191094133Y-98774259D01*
X191094133Y-99694259D02*
X191594133Y-100194259D01*
X191594133Y-100194259D02*
X194594133Y-100194259D01*
X192294133Y-95694259D02*
X194594133Y-95694259D01*
X194594133Y-95694259D02*
X195094133Y-96194259D01*
X194594133Y-100194259D02*
X195094133Y-99694259D01*
X190574133Y-98194259D02*
G75*
G02*
X191094133Y-98774259I-30000J-550000D01*
G01*
X192294133Y-95694259D02*
G75*
G02*
X190594133Y-94214259I-110000J1590000D01*
G01*
D12*
%TO.C,LED7*%
X153294134Y-109519259D02*
X154894134Y-109519259D01*
X153294134Y-111119259D02*
X153294134Y-109519259D01*
D10*
%TO.C,S22*%
X198094134Y-152494259D02*
X202594134Y-152494259D01*
X198094134Y-152994259D02*
X198094134Y-152494259D01*
X198094134Y-157194258D02*
X198094134Y-156594259D01*
X202574134Y-157194259D02*
X198094134Y-157194258D01*
X202594134Y-152494259D02*
X202594134Y-153194258D01*
X203094134Y-158694259D02*
X203094134Y-157774259D01*
X203094134Y-158694259D02*
X203594134Y-159194259D01*
X203594134Y-159194259D02*
X206594134Y-159194259D01*
X204294134Y-154694259D02*
X206594134Y-154694259D01*
X206594134Y-154694259D02*
X207094134Y-155194259D01*
X206594134Y-159194259D02*
X207094134Y-158694259D01*
X202574134Y-157194259D02*
G75*
G02*
X203094134Y-157774259I-30000J-550000D01*
G01*
X204294134Y-154694259D02*
G75*
G02*
X202594134Y-153214259I-110000J1590000D01*
G01*
%TO.C,S19*%
X222094133Y-132244259D02*
X226594133Y-132244259D01*
X222094133Y-132744259D02*
X222094133Y-132244259D01*
X222094133Y-136944258D02*
X222094133Y-136344259D01*
X226574133Y-136944259D02*
X222094133Y-136944258D01*
X226594133Y-132244259D02*
X226594133Y-132944258D01*
X227094133Y-138444259D02*
X227094133Y-137524259D01*
X227094133Y-138444259D02*
X227594133Y-138944259D01*
X227594133Y-138944259D02*
X230594133Y-138944259D01*
X228294133Y-134444259D02*
X230594133Y-134444259D01*
X230594133Y-134444259D02*
X231094133Y-134944259D01*
X230594133Y-138944259D02*
X231094133Y-138444259D01*
X226574133Y-136944259D02*
G75*
G02*
X227094133Y-137524259I-30000J-550000D01*
G01*
X228294133Y-134444259D02*
G75*
G02*
X226594133Y-132964259I-110000J1590000D01*
G01*
D12*
%TO.C,LED9*%
X171294134Y-138769260D02*
X172894134Y-138769260D01*
X171294134Y-140369260D02*
X171294134Y-138769260D01*
%TO.C,LED24*%
X238469313Y-162147543D02*
X239269312Y-160761902D01*
X239854954Y-162947543D02*
X238469313Y-162147543D01*
%TO.C,LED10*%
X171294133Y-121769260D02*
X172894133Y-121769260D01*
X171294133Y-123369260D02*
X171294133Y-121769260D01*
%TO.C,LED11*%
X171294133Y-104769260D02*
X172894133Y-104769260D01*
X171294133Y-106369260D02*
X171294133Y-104769260D01*
D10*
%TO.C,S16*%
X204094133Y-129869259D02*
X208594133Y-129869259D01*
X204094133Y-130369259D02*
X204094133Y-129869259D01*
X204094133Y-134569258D02*
X204094133Y-133969259D01*
X208574133Y-134569259D02*
X204094133Y-134569258D01*
X208594133Y-129869259D02*
X208594133Y-130569258D01*
X209094133Y-136069259D02*
X209094133Y-135149259D01*
X209094133Y-136069259D02*
X209594133Y-136569259D01*
X209594133Y-136569259D02*
X212594133Y-136569259D01*
X210294133Y-132069259D02*
X212594133Y-132069259D01*
X212594133Y-132069259D02*
X213094133Y-132569259D01*
X212594133Y-136569259D02*
X213094133Y-136069259D01*
X208574133Y-134569259D02*
G75*
G02*
X209094133Y-135149259I-30000J-550000D01*
G01*
X210294133Y-132069259D02*
G75*
G02*
X208594133Y-130589259I-110000J1590000D01*
G01*
D12*
%TO.C,LED16*%
X207294134Y-121769259D02*
X208894134Y-121769259D01*
X207294134Y-123369259D02*
X207294134Y-121769259D01*
D10*
%TO.C,S18*%
X204094133Y-95869259D02*
X208594133Y-95869259D01*
X204094133Y-96369259D02*
X204094133Y-95869259D01*
X204094133Y-100569258D02*
X204094133Y-99969259D01*
X208574133Y-100569259D02*
X204094133Y-100569258D01*
X208594133Y-95869259D02*
X208594133Y-96569258D01*
X209094133Y-102069259D02*
X209094133Y-101149259D01*
X209094133Y-102069259D02*
X209594133Y-102569259D01*
X209594133Y-102569259D02*
X212594133Y-102569259D01*
X210294133Y-98069259D02*
X212594133Y-98069259D01*
X212594133Y-98069259D02*
X213094133Y-98569259D01*
X212594133Y-102569259D02*
X213094133Y-102069259D01*
X208574133Y-100569259D02*
G75*
G02*
X209094133Y-101149259I-30000J-550000D01*
G01*
X210294133Y-98069259D02*
G75*
G02*
X208594133Y-96589259I-110000J1590000D01*
G01*
%TO.C,S12*%
X168094134Y-95869260D02*
X172594134Y-95869260D01*
X168094134Y-96369260D02*
X168094134Y-95869260D01*
X168094134Y-100569259D02*
X168094134Y-99969260D01*
X172574134Y-100569260D02*
X168094134Y-100569259D01*
X172594134Y-95869260D02*
X172594134Y-96569259D01*
X173094134Y-102069260D02*
X173094134Y-101149260D01*
X173094134Y-102069260D02*
X173594134Y-102569260D01*
X173594134Y-102569260D02*
X176594134Y-102569260D01*
X174294134Y-98069260D02*
X176594134Y-98069260D01*
X176594134Y-98069260D02*
X177094134Y-98569260D01*
X176594134Y-102569260D02*
X177094134Y-102069260D01*
X172574134Y-100569260D02*
G75*
G02*
X173094134Y-101149260I-30000J-550000D01*
G01*
X174294134Y-98069260D02*
G75*
G02*
X172594134Y-96589260I-110000J1590000D01*
G01*
%TD*%
M02*
