M48
; DRILL file {KiCad 8.0.9-rc1} date 2026-08-27T21:36:03-0600
; FORMAT={-:-/ absolute / inch / decimal}
; #@! TF.CreationDate,2026-08-27T21:36:03-06:00
; #@! TF.GenerationSoftware,Kicad,Pcbnew,8.0.9-rc1
; #@! TF.FileFunction,NonPlated,1,2,NPTH
FMAT,2
INCH
; #@! TA.AperFunction,NonPlated,NPTH,ComponentDrill
T1C0.0354
; #@! TA.AperFunction,NonPlated,NPTH,ComponentDrill
T2C0.0591
; #@! TA.AperFunction,NonPlated,NPTH,ComponentDrill
T3C0.0748
; #@! TA.AperFunction,NonPlated,NPTH,ComponentDrill
T4C0.0866
; #@! TA.AperFunction,NonPlated,NPTH,ComponentDrill
T5C0.1181
; #@! TA.AperFunction,NonPlated,NPTH,ComponentDrill
T6C0.1969
%
G90
G05
T1
X10.3256Y-4.8858
X10.3256Y-5.0039
T2
X10.0354Y-5.6376
X10.0354Y-5.7281
X10.311Y-5.6376
X10.311Y-5.7281
T3
X5.2596Y-3.9023
X5.2596Y-4.5716
X5.2596Y-5.2409
X5.2596Y-5.9102
X5.6927Y-3.9023
X5.6927Y-4.5716
X5.6927Y-5.2409
X5.6927Y-5.9102
X5.9683Y-3.9023
X5.9683Y-4.5716
X5.9683Y-5.9102
X5.9683Y-5.2409
X6.4013Y-3.9023
X6.4013Y-4.5716
X6.4013Y-5.9102
X6.4013Y-5.2409
X6.6769Y-4.3846
X6.6769Y-5.0539
X6.6769Y-5.7232
X6.6769Y-3.7153
X7.11Y-4.3846
X7.11Y-5.0539
X7.11Y-5.7232
X7.11Y-3.7153
X7.3856Y-3.6218
X7.3856Y-4.2911
X7.3856Y-4.9604
X7.8187Y-3.6218
X7.8187Y-4.2911
X7.8187Y-4.9604
X7.858Y-5.9447
X8.0943Y-3.7153
X8.0943Y-4.3846
X8.0943Y-5.0539
X8.2911Y-5.9447
X8.5273Y-3.7153
X8.5273Y-4.3846
X8.5273Y-5.0539
X8.6922Y-5.9949
X8.8029Y-3.8088
X8.8029Y-4.4781
X8.8029Y-5.1474
X9.1105Y-6.107
X9.236Y-3.8088
X9.236Y-4.4781
X9.236Y-5.1474
X9.5801Y-6.5716
X9.7967Y-6.1966
T4
X9.6572Y-5.7498
X10.2362Y-5.9882
T5
X5.2793Y-4.05
X5.2793Y-4.7193
X5.2793Y-5.3886
X5.2793Y-6.0578
X5.4761Y-4.1366
X5.4761Y-4.8059
X5.4761Y-5.4752
X5.4761Y-6.1445
X5.673Y-4.05
X5.673Y-4.7193
X5.673Y-5.3886
X5.673Y-6.0578
X5.988Y-4.05
X5.988Y-4.7193
X5.988Y-6.0578
X5.988Y-5.3886
X6.1848Y-4.1366
X6.1848Y-4.8059
X6.1848Y-6.1445
X6.1848Y-5.4752
X6.3817Y-4.05
X6.3817Y-4.7193
X6.3817Y-6.0578
X6.3817Y-5.3886
X6.6966Y-4.5323
X6.6966Y-5.2015
X6.6966Y-5.8708
X6.6966Y-3.863
X6.8935Y-4.6189
X6.8935Y-5.2882
X6.8935Y-5.9575
X6.8935Y-3.9496
X7.0903Y-4.5323
X7.0903Y-5.2015
X7.0903Y-5.8708
X7.0903Y-3.863
X7.4053Y-3.7695
X7.4053Y-4.4388
X7.4053Y-5.108
X7.6021Y-3.8561
X7.6021Y-4.5254
X7.6021Y-5.1947
X7.799Y-3.7695
X7.799Y-4.4388
X7.799Y-5.108
X7.8777Y-6.0923
X8.0746Y-6.1789
X8.1139Y-3.863
X8.1139Y-4.5323
X8.1139Y-5.2015
X8.2714Y-6.0923
X8.3108Y-3.9496
X8.3108Y-4.6189
X8.3108Y-5.2882
X8.5076Y-3.863
X8.5076Y-4.5323
X8.5076Y-5.2015
X8.673Y-6.1426
X8.8226Y-3.9565
X8.8226Y-4.6258
X8.8226Y-5.295
X8.8407Y-6.2772
X9.0195Y-4.0431
X9.0195Y-4.7124
X9.0195Y-5.3817
X9.0533Y-6.2445
X9.2163Y-3.9565
X9.2163Y-4.6258
X9.2163Y-5.295
X9.7178Y-6.6284
X9.8913Y-6.5012
X9.9147Y-6.2875
T6
X5.4761Y-3.9023
X5.4761Y-4.5716
X5.4761Y-5.2409
X5.4761Y-5.9102
X6.1848Y-3.9023
X6.1848Y-4.5716
X6.1848Y-5.9102
X6.1848Y-5.2409
X6.8935Y-4.3846
X6.8935Y-5.0539
X6.8935Y-5.7232
X6.8935Y-3.7153
X7.6021Y-3.6218
X7.6021Y-4.2911
X7.6021Y-4.9604
X8.0746Y-5.9447
X8.3108Y-3.7153
X8.3108Y-4.3846
X8.3108Y-5.0539
X8.9013Y-6.051
X9.0195Y-3.8088
X9.0195Y-4.4781
X9.0195Y-5.1474
X9.6884Y-6.3841
M30
