%TF.GenerationSoftware,KiCad,Pcbnew,8.0.9-rc1*%
%TF.CreationDate,2026-08-25T17:09:45-06:00*%
%TF.ProjectId,corvo-ergogen-final,636f7276-6f2d-4657-9267-6f67656e2d66,v1.0.0*%
%TF.SameCoordinates,Original*%
%TF.FileFunction,Soldermask,Bot*%
%TF.FilePolarity,Negative*%
%FSLAX46Y46*%
G04 Gerber Fmt 4.6, Leading zero omitted, Abs format (unit mm)*
G04 Created by KiCad (PCBNEW 8.0.9-rc1) date 2026-08-25 17:09:45*
%MOMM*%
%LPD*%
G01*
G04 APERTURE LIST*
G04 Aperture macros list*
%AMRoundRect*
0 Rectangle with rounded corners*
0 $1 Rounding radius*
0 $2 $3 $4 $5 $6 $7 $8 $9 X,Y pos of 4 corners*
0 Add a 4 corners polygon primitive as box body*
4,1,4,$2,$3,$4,$5,$6,$7,$8,$9,$2,$3,0*
0 Add four circle primitives for the rounded corners*
1,1,$1+$1,$2,$3*
1,1,$1+$1,$4,$5*
1,1,$1+$1,$6,$7*
1,1,$1+$1,$8,$9*
0 Add four rect primitives between the rounded corners*
20,1,$1+$1,$2,$3,$4,$5,0*
20,1,$1+$1,$4,$5,$6,$7,0*
20,1,$1+$1,$6,$7,$8,$9,0*
20,1,$1+$1,$8,$9,$2,$3,0*%
%AMFreePoly0*
4,1,15,0.975355,0.935355,1.335355,0.575355,1.350000,0.540000,1.350000,-0.900000,1.335355,-0.935355,1.300000,-0.950000,-1.300000,-0.950000,-1.335355,-0.935355,-1.350000,-0.900000,-1.350000,0.540000,-1.335355,0.575355,-0.975355,0.935355,-0.940000,0.950000,0.940000,0.950000,0.975355,0.935355,0.975355,0.935355,$1*%
%AMFreePoly1*
4,1,15,1.335355,0.935355,1.350000,0.900000,1.350000,-0.540000,1.335355,-0.575355,0.975355,-0.935355,0.940000,-0.950000,-0.940000,-0.950000,-0.975355,-0.935355,-1.335355,-0.575355,-1.350000,-0.540000,-1.350000,0.900000,-1.335355,0.935355,-1.300000,0.950000,1.300000,0.950000,1.335355,0.935355,1.335355,0.935355,$1*%
%AMFreePoly2*
4,1,16,-0.214645,0.660355,-0.210957,0.656235,0.289043,0.031235,0.299694,-0.005522,0.289043,-0.031235,-0.210957,-0.656235,-0.244478,-0.674694,-0.250000,-0.675000,-0.500000,-0.675000,-0.535355,-0.660355,-0.550000,-0.625000,-0.550000,0.625000,-0.535355,0.660355,-0.500000,0.675000,-0.250000,0.675000,-0.214645,0.660355,-0.214645,0.660355,$1*%
%AMFreePoly3*
4,1,16,0.535355,0.660355,0.550000,0.625000,0.550000,-0.625000,0.535355,-0.660355,0.500000,-0.675000,-0.650000,-0.675000,-0.685355,-0.660355,-0.700000,-0.625000,-0.689043,-0.593765,-0.214031,0.000000,-0.689043,0.593765,-0.699694,0.630522,-0.681235,0.664043,-0.650000,0.675000,0.500000,0.675000,0.535355,0.660355,0.535355,0.660355,$1*%
%AMFreePoly4*
4,1,16,0.635355,0.285355,0.650000,0.250000,0.650000,-1.000000,0.635355,-1.035355,0.600000,-1.050000,0.564645,-1.035355,0.000000,-0.470710,-0.564645,-1.035355,-0.600000,-1.050000,-0.635355,-1.035355,-0.650000,-1.000000,-0.650000,0.250000,-0.635355,0.285355,-0.600000,0.300000,0.600000,0.300000,0.635355,0.285355,0.635355,0.285355,$1*%
%AMFreePoly5*
4,1,14,0.035355,0.435355,0.635355,-0.164645,0.650000,-0.200000,0.650000,-0.400000,0.635355,-0.435355,0.600000,-0.450000,-0.600000,-0.450000,-0.635355,-0.435355,-0.650000,-0.400000,-0.650000,-0.200000,-0.635355,-0.164645,-0.035355,0.435355,0.000000,0.450000,0.035355,0.435355,0.035355,0.435355,$1*%
%AMFreePoly6*
4,1,14,1.335355,1.335355,1.350000,1.300000,1.350000,-1.300000,1.335355,-1.335355,1.300000,-1.350000,-0.117000,-1.350000,-0.152355,-1.335355,-1.335355,-0.152355,-1.350000,-0.117000,-1.350000,1.300000,-1.335355,1.335355,-1.300000,1.350000,1.300000,1.350000,1.335355,1.335355,1.335355,1.335355,$1*%
G04 Aperture macros list end*
%ADD10C,3.900000*%
%ADD11RoundRect,0.050000X0.450000X0.600000X-0.450000X0.600000X-0.450000X-0.600000X0.450000X-0.600000X0*%
%ADD12RoundRect,0.050000X0.500000X-0.775000X0.500000X0.775000X-0.500000X0.775000X-0.500000X-0.775000X0*%
%ADD13FreePoly0,180.000000*%
%ADD14FreePoly1,180.000000*%
%ADD15O,1.200000X1.700000*%
%ADD16FreePoly2,180.000000*%
%ADD17C,1.800000*%
%ADD18FreePoly2,0.000000*%
%ADD19FreePoly3,0.000000*%
%ADD20C,0.900000*%
%ADD21FreePoly3,180.000000*%
%ADD22O,1.800000X1.800000*%
%ADD23RoundRect,0.050000X-0.600000X0.300000X-0.600000X-0.300000X0.600000X-0.300000X0.600000X0.300000X0*%
%ADD24RoundRect,0.050000X-0.450000X-0.600000X0.450000X-0.600000X0.450000X0.600000X-0.450000X0.600000X0*%
%ADD25RoundRect,0.050000X-0.400000X0.500000X-0.400000X-0.500000X0.400000X-0.500000X0.400000X0.500000X0*%
%ADD26C,1.000000*%
%ADD27RoundRect,0.050000X-0.750000X0.350000X-0.750000X-0.350000X0.750000X-0.350000X0.750000X0.350000X0*%
%ADD28C,1.600000*%
%ADD29O,2.300000X1.700000*%
%ADD30RoundRect,0.050000X-0.294615X0.689711X-0.744615X-0.089711X0.294615X-0.689711X0.744615X0.089711X0*%
%ADD31FreePoly4,90.000000*%
%ADD32O,1.850000X1.300000*%
%ADD33FreePoly5,90.000000*%
%ADD34RoundRect,0.050000X0.589958X0.463087X-0.279375X0.696024X-0.589958X-0.463087X0.279375X-0.696024X0*%
%ADD35C,2.300000*%
%ADD36RoundRect,0.050000X-0.700000X-0.500000X0.700000X-0.500000X0.700000X0.500000X-0.700000X0.500000X0*%
%ADD37C,2.000000*%
%ADD38C,3.100000*%
%ADD39C,5.100000*%
%ADD40FreePoly6,165.000000*%
%ADD41RoundRect,0.050000X1.592168X0.919239X-0.919239X1.592168X-1.592168X-0.919239X0.919239X-1.592168X0*%
%ADD42FreePoly6,180.000000*%
%ADD43RoundRect,0.050000X1.300000X1.300000X-1.300000X1.300000X-1.300000X-1.300000X1.300000X-1.300000X0*%
%ADD44RoundRect,0.050000X-0.805558X-0.301790X0.546739X-0.664136X0.805558X0.301790X-0.546739X0.664136X0*%
%ADD45FreePoly6,240.000000*%
%ADD46RoundRect,0.050000X-0.475833X1.775833X-1.775833X-0.475833X0.475833X-1.775833X1.775833X0.475833X0*%
%ADD47RoundRect,0.050000X0.083013X-0.856218X0.783013X0.356218X-0.083013X0.856218X-0.783013X-0.356218X0*%
G04 APERTURE END LIST*
D10*
%TO.C,H2*%
X147194133Y-141619259D03*
%TD*%
D11*
%TO.C,D10*%
X171744133Y-126369260D03*
X168444133Y-126369258D03*
%TD*%
%TO.C,D6*%
X153744133Y-131119260D03*
X150444133Y-131119258D03*
%TD*%
%TO.C,D9*%
X171744134Y-143369260D03*
X168444134Y-143369258D03*
%TD*%
%TO.C,D3*%
X135744133Y-114119261D03*
X132444133Y-114119259D03*
%TD*%
%TO.C,D14*%
X189744133Y-106994261D03*
X186444133Y-106994259D03*
%TD*%
%TO.C,D20*%
X225744133Y-111744261D03*
X222444133Y-111744259D03*
%TD*%
%TO.C,D11*%
X171744133Y-109369260D03*
X168444133Y-109369258D03*
%TD*%
D12*
%TO.C,RST1*%
X262850000Y-132369260D03*
X261150000Y-132369260D03*
X262850000Y-137619260D03*
X261150000Y-137619260D03*
%TD*%
D13*
%TO.C,RE1*%
X252500000Y-126844260D03*
D14*
X252500000Y-138044260D03*
D15*
X245000000Y-134944260D03*
X245000000Y-132444260D03*
X245000000Y-129944260D03*
X259500000Y-129944260D03*
X259500000Y-134944260D03*
%TD*%
D16*
%TO.C,MCU1*%
X257994134Y-90504259D03*
D17*
X260114134Y-90504259D03*
D16*
X257994134Y-93044259D03*
D17*
X260114134Y-93044258D03*
D16*
X257994134Y-95584259D03*
D17*
X260114134Y-95584259D03*
D16*
X257994134Y-98124259D03*
D17*
X260114134Y-98124259D03*
D16*
X257994134Y-100664259D03*
D17*
X260114134Y-100664259D03*
D16*
X257994134Y-103204259D03*
D17*
X260114134Y-103204259D03*
D16*
X257994134Y-105744259D03*
D17*
X260114134Y-105744258D03*
D16*
X257994134Y-108284259D03*
D17*
X260114134Y-108284259D03*
D16*
X257994134Y-110824259D03*
D17*
X260114134Y-110824259D03*
D16*
X257994134Y-113364259D03*
D17*
X260114134Y-113364259D03*
D16*
X257994134Y-115904259D03*
D17*
X260114134Y-115904259D03*
D16*
X257994134Y-118444259D03*
D17*
X260114134Y-118444259D03*
X244874133Y-118444259D03*
D18*
X246994134Y-118444259D03*
D17*
X244874134Y-115904259D03*
D18*
X246994134Y-115904259D03*
D17*
X244874134Y-113364260D03*
D18*
X246994134Y-113364259D03*
D17*
X244874134Y-110824259D03*
D18*
X246994134Y-110824259D03*
D17*
X244874134Y-108284259D03*
D18*
X246994134Y-108284259D03*
D17*
X244874134Y-105744259D03*
D18*
X246994134Y-105744259D03*
D17*
X244874134Y-103204259D03*
D18*
X246994134Y-103204259D03*
D17*
X244874134Y-100664260D03*
D18*
X246994134Y-100664259D03*
D17*
X244874134Y-98124259D03*
D18*
X246994134Y-98124259D03*
D17*
X244874134Y-95584259D03*
D18*
X246994134Y-95584259D03*
D17*
X244874134Y-93044259D03*
D18*
X246994134Y-93044259D03*
D17*
X244874134Y-90504259D03*
D18*
X246994134Y-90504259D03*
D19*
X247719134Y-90504259D03*
D20*
X255894134Y-90504259D03*
D19*
X247719134Y-93044260D03*
D20*
X255894134Y-93044259D03*
D19*
X247719134Y-95584259D03*
D20*
X255894134Y-95584259D03*
D19*
X247719134Y-98124259D03*
D20*
X255894134Y-98124259D03*
D19*
X247719134Y-100664259D03*
D20*
X255894133Y-100664259D03*
D19*
X247719134Y-103204259D03*
D20*
X255894134Y-103204259D03*
D19*
X247719134Y-105744260D03*
D20*
X255894134Y-105744259D03*
D19*
X247719134Y-108284259D03*
D20*
X255894135Y-108284259D03*
D19*
X247719134Y-110824259D03*
D20*
X255894134Y-110824259D03*
D19*
X247719134Y-113364259D03*
D20*
X255894134Y-113364259D03*
D19*
X247719134Y-115904259D03*
D20*
X255894134Y-115904259D03*
D19*
X247719133Y-118444259D03*
D20*
X255894134Y-118444259D03*
X249094134Y-118444259D03*
D21*
X257269134Y-118444259D03*
D20*
X249094134Y-115904259D03*
D21*
X257269134Y-115904259D03*
D20*
X249094134Y-113364259D03*
D21*
X257269134Y-113364258D03*
D20*
X249094134Y-110824259D03*
D21*
X257269134Y-110824259D03*
D20*
X249094134Y-108284259D03*
D21*
X257269134Y-108284259D03*
D20*
X249094135Y-105744259D03*
D21*
X257269134Y-105744259D03*
D20*
X249094134Y-103204259D03*
D21*
X257269134Y-103204259D03*
D20*
X249094134Y-100664259D03*
D21*
X257269134Y-100664258D03*
D20*
X249094133Y-98124259D03*
D21*
X257269134Y-98124259D03*
D20*
X249094134Y-95584259D03*
D21*
X257269134Y-95584259D03*
D20*
X249094134Y-93044259D03*
D21*
X257269134Y-93044259D03*
D20*
X249094134Y-90504259D03*
D21*
X257269134Y-90504259D03*
%TD*%
D11*
%TO.C,D22*%
X201744134Y-148994261D03*
X198444134Y-148994259D03*
%TD*%
%TO.C,D19*%
X225744133Y-128744261D03*
X222444133Y-128744259D03*
%TD*%
D22*
%TO.C,DISP1*%
X248684133Y-123644259D03*
X251224133Y-123644258D03*
X253764133Y-123644259D03*
X256304132Y-123644259D03*
D23*
X256304133Y-121894259D03*
X253764133Y-121894259D03*
X251224133Y-121894259D03*
X248684133Y-121894259D03*
X256304133Y-120994259D03*
X253764133Y-120994259D03*
X251224133Y-120994259D03*
X248684133Y-120994259D03*
%TD*%
D11*
%TO.C,D12*%
X171744133Y-92369260D03*
X168444133Y-92369258D03*
%TD*%
%TO.C,D7*%
X153744134Y-114119261D03*
X150444134Y-114119259D03*
%TD*%
D24*
%TO.C,D25*%
X246850000Y-136499999D03*
X250150000Y-136500001D03*
%TD*%
D11*
%TO.C,D1*%
X135744133Y-148119261D03*
X132444133Y-148119259D03*
%TD*%
D25*
%TO.C,PWR1*%
X261160000Y-121950000D03*
X261160000Y-129250000D03*
D26*
X262270000Y-124100000D03*
X262270000Y-127100000D03*
D25*
X263370000Y-121950000D03*
X263370000Y-129250000D03*
D27*
X260510000Y-123350000D03*
X260510000Y-126350000D03*
X260510000Y-127850000D03*
%TD*%
D28*
%TO.C,TRRS1*%
X261900000Y-143194259D03*
X254900000Y-143194259D03*
X261900000Y-145494259D03*
X254900000Y-145494259D03*
D29*
X260300000Y-140894259D03*
X260300000Y-147794259D03*
X257300000Y-140894259D03*
X257300000Y-147794259D03*
X253300000Y-140894259D03*
X253300000Y-147794259D03*
X252200000Y-143194259D03*
X252200000Y-145494259D03*
%TD*%
D30*
%TO.C,D24*%
X242678030Y-164057831D03*
X241028030Y-166915715D03*
%TD*%
D11*
%TO.C,D21*%
X225744133Y-94744261D03*
X222444133Y-94744259D03*
%TD*%
%TO.C,D18*%
X207744133Y-92369261D03*
X204444133Y-92369259D03*
%TD*%
%TO.C,D16*%
X207744134Y-126369261D03*
X204444134Y-126369259D03*
%TD*%
D10*
%TO.C,H3*%
X219194134Y-104569259D03*
%TD*%
%TO.C,H1*%
X147194133Y-107619259D03*
%TD*%
D31*
%TO.C,JST1*%
X241578134Y-124944259D03*
X241578134Y-122944259D03*
D32*
X244394134Y-122944259D03*
X244394134Y-124944259D03*
D33*
X242594134Y-122944258D03*
X242594134Y-124944259D03*
%TD*%
D11*
%TO.C,D15*%
X189744133Y-89994261D03*
X186444133Y-89994259D03*
%TD*%
D10*
%TO.C,H4*%
X201194133Y-137044259D03*
%TD*%
D34*
%TO.C,D23*%
X223375921Y-150895363D03*
X220188365Y-150041263D03*
%TD*%
D11*
%TO.C,D4*%
X135744133Y-97119261D03*
X132444133Y-97119259D03*
%TD*%
D35*
%TO.C,MH2*%
X260000000Y-152100000D03*
%TD*%
D10*
%TO.C,H5*%
X237194133Y-144344259D03*
%TD*%
D35*
%TO.C,MH1*%
X245294133Y-146044260D03*
%TD*%
D11*
%TO.C,D2*%
X135744134Y-131119261D03*
X132444134Y-131119259D03*
%TD*%
%TO.C,D17*%
X207744133Y-109369261D03*
X204444133Y-109369259D03*
%TD*%
%TO.C,D13*%
X189744133Y-123994260D03*
X186444133Y-123994258D03*
%TD*%
%TO.C,D8*%
X153744133Y-97119261D03*
X150444133Y-97119259D03*
%TD*%
%TO.C,D5*%
X153744133Y-148119260D03*
X150444133Y-148119258D03*
%TD*%
D36*
%TO.C,LED5*%
X159794133Y-145819259D03*
X159794133Y-144419258D03*
X154394133Y-144419259D03*
X154394133Y-145819260D03*
%TD*%
D37*
%TO.C,S23*%
X231406726Y-155117764D03*
D38*
X229953192Y-158610576D03*
X224554161Y-159441518D03*
D39*
X226094134Y-153694259D03*
D38*
X220293933Y-156022386D03*
D37*
X220781542Y-152270754D03*
D40*
X227717568Y-160289150D03*
D41*
X217130526Y-155174753D03*
%TD*%
D37*
%TO.C,S5*%
X162594133Y-150119259D03*
D38*
X162094133Y-153869259D03*
X157094133Y-156069259D03*
D39*
X157094133Y-150119259D03*
D38*
X152094133Y-153869259D03*
D37*
X151594133Y-150119259D03*
D42*
X160369133Y-156069259D03*
D43*
X148819133Y-153869259D03*
%TD*%
D37*
%TO.C,S3*%
X144594133Y-116119259D03*
D38*
X144094133Y-119869259D03*
X139094133Y-122069259D03*
D39*
X139094133Y-116119259D03*
D38*
X134094133Y-119869259D03*
D37*
X133594133Y-116119259D03*
D42*
X142369133Y-122069259D03*
D43*
X130819133Y-119869259D03*
%TD*%
D36*
%TO.C,LED3*%
X141794133Y-111819259D03*
X141794133Y-110419258D03*
X136394133Y-110419259D03*
X136394133Y-111819260D03*
%TD*%
D37*
%TO.C,S14*%
X198594133Y-108994259D03*
D38*
X198094133Y-112744259D03*
X193094133Y-114944259D03*
D39*
X193094133Y-108994259D03*
D38*
X188094133Y-112744259D03*
D37*
X187594133Y-108994259D03*
D42*
X196369133Y-114944259D03*
D43*
X184819133Y-112744259D03*
%TD*%
D37*
%TO.C,S2*%
X144594133Y-133119259D03*
D38*
X144094133Y-136869259D03*
X139094133Y-139069259D03*
D39*
X139094133Y-133119259D03*
D38*
X134094133Y-136869259D03*
D37*
X133594133Y-133119259D03*
D42*
X142369133Y-139069259D03*
D43*
X130819133Y-136869259D03*
%TD*%
D37*
%TO.C,S21*%
X234594133Y-96744259D03*
D38*
X234094133Y-100494259D03*
X229094133Y-102694259D03*
D39*
X229094133Y-96744259D03*
D38*
X224094133Y-100494259D03*
D37*
X223594133Y-96744259D03*
D42*
X232369133Y-102694259D03*
D43*
X220819133Y-100494259D03*
%TD*%
D37*
%TO.C,S9*%
X180594133Y-145369260D03*
D38*
X180094133Y-149119260D03*
X175094133Y-151319260D03*
D39*
X175094133Y-145369260D03*
D38*
X170094133Y-149119260D03*
D37*
X169594133Y-145369260D03*
D42*
X178369133Y-151319260D03*
D43*
X166819133Y-149119260D03*
%TD*%
D36*
%TO.C,LED17*%
X213794133Y-107069259D03*
X213794133Y-105669258D03*
X208394133Y-105669259D03*
X208394133Y-107069260D03*
%TD*%
D37*
%TO.C,S13*%
X198594134Y-125994259D03*
D38*
X198094134Y-129744259D03*
X193094134Y-131944259D03*
D39*
X193094134Y-125994259D03*
D38*
X188094134Y-129744259D03*
D37*
X187594134Y-125994259D03*
D42*
X196369134Y-131944259D03*
D43*
X184819134Y-129744259D03*
%TD*%
D36*
%TO.C,LED21*%
X231794133Y-92444259D03*
X231794133Y-91044258D03*
X226394133Y-91044259D03*
X226394133Y-92444260D03*
%TD*%
D37*
%TO.C,S8*%
X162594133Y-99119259D03*
D38*
X162094133Y-102869259D03*
X157094133Y-105069259D03*
D39*
X157094133Y-99119259D03*
D38*
X152094133Y-102869259D03*
D37*
X151594133Y-99119259D03*
D42*
X160369133Y-105069259D03*
D43*
X148819133Y-102869259D03*
%TD*%
D36*
%TO.C,LED19*%
X231794134Y-126444259D03*
X231794134Y-125044258D03*
X226394134Y-125044259D03*
X226394134Y-126444260D03*
%TD*%
D37*
%TO.C,S20*%
X234594133Y-113744259D03*
D38*
X234094133Y-117494259D03*
X229094133Y-119694259D03*
D39*
X229094133Y-113744259D03*
D38*
X224094133Y-117494259D03*
D37*
X223594133Y-113744259D03*
D42*
X232369133Y-119694259D03*
D43*
X220819133Y-117494259D03*
%TD*%
D36*
%TO.C,LED8*%
X159794133Y-94819259D03*
X159794133Y-93419258D03*
X154394133Y-93419259D03*
X154394133Y-94819260D03*
%TD*%
%TO.C,LED15*%
X195794133Y-87694259D03*
X195794133Y-86294258D03*
X190394133Y-86294259D03*
X190394133Y-87694260D03*
%TD*%
D37*
%TO.C,S17*%
X216594133Y-111369259D03*
D38*
X216094133Y-115119259D03*
X211094133Y-117319259D03*
D39*
X211094133Y-111369259D03*
D38*
X206094133Y-115119259D03*
D37*
X205594133Y-111369259D03*
D42*
X214369133Y-117319259D03*
D43*
X202819133Y-115119259D03*
%TD*%
D37*
%TO.C,S6*%
X162594134Y-133119259D03*
D38*
X162094134Y-136869259D03*
X157094134Y-139069259D03*
D39*
X157094134Y-133119259D03*
D38*
X152094134Y-136869259D03*
D37*
X151594134Y-133119259D03*
D42*
X160369134Y-139069259D03*
D43*
X148819134Y-136869259D03*
%TD*%
D36*
%TO.C,LED2*%
X141794134Y-128819259D03*
X141794134Y-127419258D03*
X136394134Y-127419259D03*
X136394134Y-128819260D03*
%TD*%
D37*
%TO.C,S11*%
X180594133Y-111369260D03*
D38*
X180094133Y-115119260D03*
X175094133Y-117319260D03*
D39*
X175094133Y-111369260D03*
D38*
X170094133Y-115119260D03*
D37*
X169594133Y-111369260D03*
D42*
X178369133Y-117319260D03*
D43*
X166819133Y-115119260D03*
%TD*%
D37*
%TO.C,S10*%
X180594133Y-128369260D03*
D38*
X180094133Y-132119260D03*
X175094133Y-134319260D03*
D39*
X175094133Y-128369260D03*
D38*
X170094133Y-132119260D03*
D37*
X169594133Y-128369260D03*
D42*
X178369133Y-134319260D03*
D43*
X166819133Y-132119260D03*
%TD*%
D36*
%TO.C,LED20*%
X231794133Y-109444259D03*
X231794133Y-108044258D03*
X226394133Y-108044259D03*
X226394133Y-109444260D03*
%TD*%
D44*
%TO.C,LED23*%
X229815054Y-150239590D03*
X230177401Y-148887293D03*
X224961402Y-147489670D03*
X224599055Y-148841967D03*
%TD*%
D36*
%TO.C,LED18*%
X213794133Y-90069259D03*
X213794133Y-88669258D03*
X208394133Y-88669259D03*
X208394133Y-90069260D03*
%TD*%
D37*
%TO.C,S4*%
X144594133Y-99119259D03*
D38*
X144094133Y-102869259D03*
X139094133Y-105069259D03*
D39*
X139094133Y-99119259D03*
D38*
X134094133Y-102869259D03*
D37*
X133594133Y-99119259D03*
D42*
X142369133Y-105069259D03*
D43*
X130819133Y-102869259D03*
%TD*%
D36*
%TO.C,LED22*%
X207794134Y-146694259D03*
X207794134Y-145294258D03*
X202394134Y-145294259D03*
X202394134Y-146694260D03*
%TD*%
D37*
%TO.C,S24*%
X248835081Y-157393506D03*
D38*
X251832676Y-159701519D03*
X251237933Y-165131647D03*
D39*
X246085081Y-162156646D03*
D38*
X246832676Y-168361773D03*
D37*
X243335081Y-166919786D03*
D45*
X252875432Y-162295413D03*
D46*
X245195176Y-171198006D03*
%TD*%
D37*
%TO.C,S1*%
X144594134Y-150119259D03*
D38*
X144094134Y-153869259D03*
X139094134Y-156069259D03*
D39*
X139094134Y-150119259D03*
D38*
X134094134Y-153869259D03*
D37*
X133594134Y-150119259D03*
D42*
X142369134Y-156069259D03*
D43*
X130819134Y-153869259D03*
%TD*%
D36*
%TO.C,LED14*%
X195794134Y-104694259D03*
X195794134Y-103294258D03*
X190394134Y-103294259D03*
X190394134Y-104694260D03*
%TD*%
%TO.C,LED6*%
X159794133Y-128819259D03*
X159794133Y-127419258D03*
X154394133Y-127419259D03*
X154394133Y-128819260D03*
%TD*%
%TO.C,LED13*%
X195794133Y-121694259D03*
X195794133Y-120294258D03*
X190394133Y-120294259D03*
X190394133Y-121694260D03*
%TD*%
%TO.C,LED4*%
X141794133Y-94819259D03*
X141794133Y-93419258D03*
X136394133Y-93419259D03*
X136394133Y-94819260D03*
%TD*%
%TO.C,LED12*%
X177794133Y-90069260D03*
X177794133Y-88669259D03*
X172394133Y-88669260D03*
X172394133Y-90069261D03*
%TD*%
D37*
%TO.C,S7*%
X162594133Y-116119259D03*
D38*
X162094133Y-119869259D03*
X157094133Y-122069259D03*
D39*
X157094133Y-116119259D03*
D38*
X152094133Y-119869259D03*
D37*
X151594133Y-116119259D03*
D42*
X160369133Y-122069259D03*
D43*
X148819133Y-119869259D03*
%TD*%
D36*
%TO.C,LED1*%
X141794133Y-145819259D03*
X141794133Y-144419258D03*
X136394133Y-144419259D03*
X136394133Y-145819260D03*
%TD*%
D37*
%TO.C,S15*%
X198594133Y-91994259D03*
D38*
X198094133Y-95744259D03*
X193094133Y-97944259D03*
D39*
X193094133Y-91994259D03*
D38*
X188094133Y-95744259D03*
D37*
X187594133Y-91994259D03*
D42*
X196369133Y-97944259D03*
D43*
X184819133Y-95744259D03*
%TD*%
D36*
%TO.C,LED7*%
X159794134Y-111819259D03*
X159794134Y-110419258D03*
X154394134Y-110419259D03*
X154394134Y-111819260D03*
%TD*%
D37*
%TO.C,S22*%
X210594134Y-150994259D03*
D38*
X210094134Y-154744259D03*
X205094134Y-156944259D03*
D39*
X205094134Y-150994259D03*
D38*
X200094134Y-154744259D03*
D37*
X199594134Y-150994259D03*
D42*
X208369134Y-156944259D03*
D43*
X196819134Y-154744259D03*
%TD*%
D37*
%TO.C,S19*%
X234594133Y-130744259D03*
D38*
X234094133Y-134494259D03*
X229094133Y-136694259D03*
D39*
X229094133Y-130744259D03*
D38*
X224094133Y-134494259D03*
D37*
X223594133Y-130744259D03*
D42*
X232369133Y-136694259D03*
D43*
X220819133Y-134494259D03*
%TD*%
D36*
%TO.C,LED9*%
X177794134Y-141069260D03*
X177794134Y-139669259D03*
X172394134Y-139669260D03*
X172394134Y-141069261D03*
%TD*%
D47*
%TO.C,LED24*%
X243711172Y-157668377D03*
X242498736Y-156968377D03*
X239798736Y-161644915D03*
X241011172Y-162344915D03*
%TD*%
D36*
%TO.C,LED10*%
X177794133Y-124069260D03*
X177794133Y-122669259D03*
X172394133Y-122669260D03*
X172394133Y-124069261D03*
%TD*%
%TO.C,LED11*%
X177794133Y-107069260D03*
X177794133Y-105669259D03*
X172394133Y-105669260D03*
X172394133Y-107069261D03*
%TD*%
D37*
%TO.C,S16*%
X216594133Y-128369259D03*
D38*
X216094133Y-132119259D03*
X211094133Y-134319259D03*
D39*
X211094133Y-128369259D03*
D38*
X206094133Y-132119259D03*
D37*
X205594133Y-128369259D03*
D42*
X214369133Y-134319259D03*
D43*
X202819133Y-132119259D03*
%TD*%
D36*
%TO.C,LED16*%
X213794134Y-124069259D03*
X213794134Y-122669258D03*
X208394134Y-122669259D03*
X208394134Y-124069260D03*
%TD*%
D37*
%TO.C,S18*%
X216594133Y-94369259D03*
D38*
X216094133Y-98119259D03*
X211094133Y-100319259D03*
D39*
X211094133Y-94369259D03*
D38*
X206094133Y-98119259D03*
D37*
X205594133Y-94369259D03*
D42*
X214369133Y-100319259D03*
D43*
X202819133Y-98119259D03*
%TD*%
D37*
%TO.C,S12*%
X180594134Y-94369260D03*
D38*
X180094134Y-98119260D03*
X175094134Y-100319260D03*
D39*
X175094134Y-94369260D03*
D38*
X170094134Y-98119260D03*
D37*
X169594134Y-94369260D03*
D42*
X178369134Y-100319260D03*
D43*
X166819134Y-98119260D03*
%TD*%
M02*
