%TF.GenerationSoftware,KiCad,Pcbnew,8.0.9-rc1*%
%TF.CreationDate,2026-08-25T17:09:45-06:00*%
%TF.ProjectId,corvo-ergogen-final,636f7276-6f2d-4657-9267-6f67656e2d66,v1.0.0*%
%TF.SameCoordinates,Original*%
%TF.FileFunction,Paste,Bot*%
%TF.FilePolarity,Positive*%
%FSLAX46Y46*%
G04 Gerber Fmt 4.6, Leading zero omitted, Abs format (unit mm)*
G04 Created by KiCad (PCBNEW 8.0.9-rc1) date 2026-08-25 17:09:45*
%MOMM*%
%LPD*%
G01*
G04 APERTURE LIST*
G04 Aperture macros list*
%AMRotRect*
0 Rectangle, with rotation*
0 The origin of the aperture is its center*
0 $1 length*
0 $2 width*
0 $3 Rotation angle, in degrees counterclockwise*
0 Add horizontal line*
21,1,$1,$2,0,0,$3*%
%AMOutline5P*
0 Free polygon, 5 corners , with rotation*
0 The origin of the aperture is its center*
0 number of corners: always 5*
0 $1 to $10 corner X, Y*
0 $11 Rotation angle, in degrees counterclockwise*
0 create outline with 5 corners*
4,1,5,$1,$2,$3,$4,$5,$6,$7,$8,$9,$10,$1,$2,$11*%
%AMOutline6P*
0 Free polygon, 6 corners , with rotation*
0 The origin of the aperture is its center*
0 number of corners: always 6*
0 $1 to $12 corner X, Y*
0 $13 Rotation angle, in degrees counterclockwise*
0 create outline with 6 corners*
4,1,6,$1,$2,$3,$4,$5,$6,$7,$8,$9,$10,$11,$12,$1,$2,$13*%
%AMOutline7P*
0 Free polygon, 7 corners , with rotation*
0 The origin of the aperture is its center*
0 number of corners: always 7*
0 $1 to $14 corner X, Y*
0 $15 Rotation angle, in degrees counterclockwise*
0 create outline with 7 corners*
4,1,7,$1,$2,$3,$4,$5,$6,$7,$8,$9,$10,$11,$12,$13,$14,$1,$2,$15*%
%AMOutline8P*
0 Free polygon, 8 corners , with rotation*
0 The origin of the aperture is its center*
0 number of corners: always 8*
0 $1 to $16 corner X, Y*
0 $17 Rotation angle, in degrees counterclockwise*
0 create outline with 8 corners*
4,1,8,$1,$2,$3,$4,$5,$6,$7,$8,$9,$10,$11,$12,$13,$14,$15,$16,$1,$2,$17*%
%AMFreePoly0*
4,1,6,0.250000,0.000000,-0.250000,-0.625000,-0.500000,-0.625000,-0.500000,0.625000,-0.250000,0.625000,0.250000,0.000000,0.250000,0.000000,$1*%
%AMFreePoly1*
4,1,6,0.500000,-0.625000,-0.650000,-0.625000,-0.150000,0.000000,-0.650000,0.625000,0.500000,0.625000,0.500000,-0.625000,0.500000,-0.625000,$1*%
%AMFreePoly2*
4,1,6,0.600000,-1.000000,0.000000,-0.400000,-0.600000,-1.000000,-0.600000,0.250000,0.600000,0.250000,0.600000,-1.000000,0.600000,-1.000000,$1*%
%AMFreePoly3*
4,1,6,0.600000,-0.200000,0.600000,-0.400000,-0.600000,-0.400000,-0.600000,-0.200000,0.000000,0.400000,0.600000,-0.200000,0.600000,-0.200000,$1*%
G04 Aperture macros list end*
%ADD10R,0.900000X1.200000*%
%ADD11R,1.000000X1.550000*%
%ADD12FreePoly0,180.000000*%
%ADD13FreePoly0,0.000000*%
%ADD14FreePoly1,0.000000*%
%ADD15FreePoly1,180.000000*%
%ADD16R,1.200000X0.600000*%
%ADD17R,0.800000X1.000000*%
%ADD18R,1.500000X0.700000*%
%ADD19RotRect,0.900000X1.200000X240.000000*%
%ADD20FreePoly2,90.000000*%
%ADD21FreePoly3,90.000000*%
%ADD22RotRect,0.900000X1.200000X165.000000*%
%ADD23R,1.400000X1.000000*%
%ADD24Outline5P,-1.300000X1.300000X1.300000X1.300000X1.300000X-1.300000X-0.117000X-1.300000X-1.300000X-0.117000X165.000000*%
%ADD25RotRect,2.600000X2.600000X165.000000*%
%ADD26Outline5P,-1.300000X1.300000X1.300000X1.300000X1.300000X-1.300000X-0.117000X-1.300000X-1.300000X-0.117000X180.000000*%
%ADD27R,2.600000X2.600000*%
%ADD28RotRect,1.400000X1.000000X345.000000*%
%ADD29Outline5P,-1.300000X1.300000X1.300000X1.300000X1.300000X-1.300000X-0.117000X-1.300000X-1.300000X-0.117000X240.000000*%
%ADD30RotRect,2.600000X2.600000X240.000000*%
%ADD31RotRect,1.400000X1.000000X60.000000*%
G04 APERTURE END LIST*
D10*
%TO.C,D10*%
X171744133Y-126369260D03*
X168444133Y-126369258D03*
%TD*%
%TO.C,D6*%
X153744133Y-131119260D03*
X150444133Y-131119258D03*
%TD*%
%TO.C,D9*%
X171744134Y-143369260D03*
X168444134Y-143369258D03*
%TD*%
%TO.C,D3*%
X135744133Y-114119261D03*
X132444133Y-114119259D03*
%TD*%
%TO.C,D14*%
X189744133Y-106994261D03*
X186444133Y-106994259D03*
%TD*%
%TO.C,D20*%
X225744133Y-111744261D03*
X222444133Y-111744259D03*
%TD*%
%TO.C,D11*%
X171744133Y-109369260D03*
X168444133Y-109369258D03*
%TD*%
D11*
%TO.C,RST1*%
X262850000Y-132369260D03*
X261150000Y-132369260D03*
X262850000Y-137619260D03*
X261150000Y-137619260D03*
%TD*%
D12*
%TO.C,MCU1*%
X257994134Y-90504259D03*
X257994134Y-93044259D03*
X257994134Y-95584259D03*
X257994134Y-98124259D03*
X257994134Y-100664259D03*
X257994134Y-103204259D03*
X257994134Y-105744259D03*
X257994134Y-108284259D03*
X257994134Y-110824259D03*
X257994134Y-113364259D03*
X257994134Y-115904259D03*
X257994134Y-118444259D03*
D13*
X246994134Y-118444259D03*
X246994134Y-115904259D03*
X246994134Y-113364259D03*
X246994134Y-110824259D03*
X246994134Y-108284259D03*
X246994134Y-105744259D03*
X246994134Y-103204259D03*
X246994134Y-100664259D03*
X246994134Y-98124259D03*
X246994134Y-95584259D03*
X246994134Y-93044259D03*
X246994134Y-90504259D03*
D14*
X247719134Y-90504259D03*
X247719134Y-93044260D03*
X247719134Y-95584259D03*
X247719134Y-98124259D03*
X247719134Y-100664259D03*
X247719134Y-103204259D03*
X247719134Y-105744260D03*
X247719134Y-108284259D03*
X247719134Y-110824259D03*
X247719134Y-113364259D03*
X247719134Y-115904259D03*
X247719133Y-118444259D03*
D15*
X257269134Y-118444259D03*
X257269134Y-115904259D03*
X257269134Y-113364258D03*
X257269134Y-110824259D03*
X257269134Y-108284259D03*
X257269134Y-105744259D03*
X257269134Y-103204259D03*
X257269134Y-100664258D03*
X257269134Y-98124259D03*
X257269134Y-95584259D03*
X257269134Y-93044259D03*
X257269134Y-90504259D03*
%TD*%
D10*
%TO.C,D22*%
X201744134Y-148994261D03*
X198444134Y-148994259D03*
%TD*%
%TO.C,D19*%
X225744133Y-128744261D03*
X222444133Y-128744259D03*
%TD*%
D16*
%TO.C,DISP1*%
X256304133Y-121894259D03*
X253764133Y-121894259D03*
X251224133Y-121894259D03*
X248684133Y-121894259D03*
X256304133Y-120994259D03*
X253764133Y-120994259D03*
X251224133Y-120994259D03*
X248684133Y-120994259D03*
%TD*%
D10*
%TO.C,D12*%
X171744133Y-92369260D03*
X168444133Y-92369258D03*
%TD*%
%TO.C,D7*%
X153744134Y-114119261D03*
X150444134Y-114119259D03*
%TD*%
%TO.C,D25*%
X246850000Y-136499999D03*
X250150000Y-136500001D03*
%TD*%
%TO.C,D1*%
X135744133Y-148119261D03*
X132444133Y-148119259D03*
%TD*%
D17*
%TO.C,PWR1*%
X261160000Y-121950000D03*
X261160000Y-129250000D03*
X263370000Y-121950000D03*
X263370000Y-129250000D03*
D18*
X260510000Y-123350000D03*
X260510000Y-126350000D03*
X260510000Y-127850000D03*
%TD*%
D19*
%TO.C,D24*%
X242678030Y-164057831D03*
X241028030Y-166915715D03*
%TD*%
D10*
%TO.C,D21*%
X225744133Y-94744261D03*
X222444133Y-94744259D03*
%TD*%
%TO.C,D18*%
X207744133Y-92369261D03*
X204444133Y-92369259D03*
%TD*%
%TO.C,D16*%
X207744134Y-126369261D03*
X204444134Y-126369259D03*
%TD*%
D20*
%TO.C,JST1*%
X241578134Y-124944259D03*
X241578134Y-122944259D03*
D21*
X242594134Y-122944258D03*
X242594134Y-124944259D03*
%TD*%
D10*
%TO.C,D15*%
X189744133Y-89994261D03*
X186444133Y-89994259D03*
%TD*%
D22*
%TO.C,D23*%
X223375921Y-150895363D03*
X220188365Y-150041263D03*
%TD*%
D10*
%TO.C,D4*%
X135744133Y-97119261D03*
X132444133Y-97119259D03*
%TD*%
%TO.C,D2*%
X135744134Y-131119261D03*
X132444134Y-131119259D03*
%TD*%
%TO.C,D17*%
X207744133Y-109369261D03*
X204444133Y-109369259D03*
%TD*%
%TO.C,D13*%
X189744133Y-123994260D03*
X186444133Y-123994258D03*
%TD*%
%TO.C,D8*%
X153744133Y-97119261D03*
X150444133Y-97119259D03*
%TD*%
%TO.C,D5*%
X153744133Y-148119260D03*
X150444133Y-148119258D03*
%TD*%
D23*
%TO.C,LED5*%
X159794133Y-145819259D03*
X159794133Y-144419258D03*
X154394133Y-144419259D03*
X154394133Y-145819260D03*
%TD*%
D24*
%TO.C,S23*%
X227717568Y-160289150D03*
D25*
X217130526Y-155174753D03*
%TD*%
D26*
%TO.C,S5*%
X160369133Y-156069259D03*
D27*
X148819133Y-153869259D03*
%TD*%
D26*
%TO.C,S3*%
X142369133Y-122069259D03*
D27*
X130819133Y-119869259D03*
%TD*%
D23*
%TO.C,LED3*%
X141794133Y-111819259D03*
X141794133Y-110419258D03*
X136394133Y-110419259D03*
X136394133Y-111819260D03*
%TD*%
D26*
%TO.C,S14*%
X196369133Y-114944259D03*
D27*
X184819133Y-112744259D03*
%TD*%
D26*
%TO.C,S2*%
X142369133Y-139069259D03*
D27*
X130819133Y-136869259D03*
%TD*%
D26*
%TO.C,S21*%
X232369133Y-102694259D03*
D27*
X220819133Y-100494259D03*
%TD*%
D26*
%TO.C,S9*%
X178369133Y-151319260D03*
D27*
X166819133Y-149119260D03*
%TD*%
D23*
%TO.C,LED17*%
X213794133Y-107069259D03*
X213794133Y-105669258D03*
X208394133Y-105669259D03*
X208394133Y-107069260D03*
%TD*%
D26*
%TO.C,S13*%
X196369134Y-131944259D03*
D27*
X184819134Y-129744259D03*
%TD*%
D23*
%TO.C,LED21*%
X231794133Y-92444259D03*
X231794133Y-91044258D03*
X226394133Y-91044259D03*
X226394133Y-92444260D03*
%TD*%
D26*
%TO.C,S8*%
X160369133Y-105069259D03*
D27*
X148819133Y-102869259D03*
%TD*%
D23*
%TO.C,LED19*%
X231794134Y-126444259D03*
X231794134Y-125044258D03*
X226394134Y-125044259D03*
X226394134Y-126444260D03*
%TD*%
D26*
%TO.C,S20*%
X232369133Y-119694259D03*
D27*
X220819133Y-117494259D03*
%TD*%
D23*
%TO.C,LED8*%
X159794133Y-94819259D03*
X159794133Y-93419258D03*
X154394133Y-93419259D03*
X154394133Y-94819260D03*
%TD*%
%TO.C,LED15*%
X195794133Y-87694259D03*
X195794133Y-86294258D03*
X190394133Y-86294259D03*
X190394133Y-87694260D03*
%TD*%
D26*
%TO.C,S17*%
X214369133Y-117319259D03*
D27*
X202819133Y-115119259D03*
%TD*%
D26*
%TO.C,S6*%
X160369134Y-139069259D03*
D27*
X148819134Y-136869259D03*
%TD*%
D23*
%TO.C,LED2*%
X141794134Y-128819259D03*
X141794134Y-127419258D03*
X136394134Y-127419259D03*
X136394134Y-128819260D03*
%TD*%
D26*
%TO.C,S11*%
X178369133Y-117319260D03*
D27*
X166819133Y-115119260D03*
%TD*%
D26*
%TO.C,S10*%
X178369133Y-134319260D03*
D27*
X166819133Y-132119260D03*
%TD*%
D23*
%TO.C,LED20*%
X231794133Y-109444259D03*
X231794133Y-108044258D03*
X226394133Y-108044259D03*
X226394133Y-109444260D03*
%TD*%
D28*
%TO.C,LED23*%
X229815054Y-150239590D03*
X230177401Y-148887293D03*
X224961402Y-147489670D03*
X224599055Y-148841967D03*
%TD*%
D23*
%TO.C,LED18*%
X213794133Y-90069259D03*
X213794133Y-88669258D03*
X208394133Y-88669259D03*
X208394133Y-90069260D03*
%TD*%
D26*
%TO.C,S4*%
X142369133Y-105069259D03*
D27*
X130819133Y-102869259D03*
%TD*%
D23*
%TO.C,LED22*%
X207794134Y-146694259D03*
X207794134Y-145294258D03*
X202394134Y-145294259D03*
X202394134Y-146694260D03*
%TD*%
D29*
%TO.C,S24*%
X252875432Y-162295413D03*
D30*
X245195176Y-171198006D03*
%TD*%
D26*
%TO.C,S1*%
X142369134Y-156069259D03*
D27*
X130819134Y-153869259D03*
%TD*%
D23*
%TO.C,LED14*%
X195794134Y-104694259D03*
X195794134Y-103294258D03*
X190394134Y-103294259D03*
X190394134Y-104694260D03*
%TD*%
%TO.C,LED6*%
X159794133Y-128819259D03*
X159794133Y-127419258D03*
X154394133Y-127419259D03*
X154394133Y-128819260D03*
%TD*%
%TO.C,LED13*%
X195794133Y-121694259D03*
X195794133Y-120294258D03*
X190394133Y-120294259D03*
X190394133Y-121694260D03*
%TD*%
%TO.C,LED4*%
X141794133Y-94819259D03*
X141794133Y-93419258D03*
X136394133Y-93419259D03*
X136394133Y-94819260D03*
%TD*%
%TO.C,LED12*%
X177794133Y-90069260D03*
X177794133Y-88669259D03*
X172394133Y-88669260D03*
X172394133Y-90069261D03*
%TD*%
D26*
%TO.C,S7*%
X160369133Y-122069259D03*
D27*
X148819133Y-119869259D03*
%TD*%
D23*
%TO.C,LED1*%
X141794133Y-145819259D03*
X141794133Y-144419258D03*
X136394133Y-144419259D03*
X136394133Y-145819260D03*
%TD*%
D26*
%TO.C,S15*%
X196369133Y-97944259D03*
D27*
X184819133Y-95744259D03*
%TD*%
D23*
%TO.C,LED7*%
X159794134Y-111819259D03*
X159794134Y-110419258D03*
X154394134Y-110419259D03*
X154394134Y-111819260D03*
%TD*%
D26*
%TO.C,S22*%
X208369134Y-156944259D03*
D27*
X196819134Y-154744259D03*
%TD*%
D26*
%TO.C,S19*%
X232369133Y-136694259D03*
D27*
X220819133Y-134494259D03*
%TD*%
D23*
%TO.C,LED9*%
X177794134Y-141069260D03*
X177794134Y-139669259D03*
X172394134Y-139669260D03*
X172394134Y-141069261D03*
%TD*%
D31*
%TO.C,LED24*%
X243711172Y-157668377D03*
X242498736Y-156968377D03*
X239798736Y-161644915D03*
X241011172Y-162344915D03*
%TD*%
D23*
%TO.C,LED10*%
X177794133Y-124069260D03*
X177794133Y-122669259D03*
X172394133Y-122669260D03*
X172394133Y-124069261D03*
%TD*%
%TO.C,LED11*%
X177794133Y-107069260D03*
X177794133Y-105669259D03*
X172394133Y-105669260D03*
X172394133Y-107069261D03*
%TD*%
D26*
%TO.C,S16*%
X214369133Y-134319259D03*
D27*
X202819133Y-132119259D03*
%TD*%
D23*
%TO.C,LED16*%
X213794134Y-124069259D03*
X213794134Y-122669258D03*
X208394134Y-122669259D03*
X208394134Y-124069260D03*
%TD*%
D26*
%TO.C,S18*%
X214369133Y-100319259D03*
D27*
X202819133Y-98119259D03*
%TD*%
D26*
%TO.C,S12*%
X178369134Y-100319260D03*
D27*
X166819134Y-98119260D03*
%TD*%
M02*
