%TF.GenerationSoftware,KiCad,Pcbnew,8.0.9-rc1*%
%TF.CreationDate,2026-08-25T17:09:45-06:00*%
%TF.ProjectId,corvo-ergogen-final,636f7276-6f2d-4657-9267-6f67656e2d66,v1.0.0*%
%TF.SameCoordinates,Original*%
%TF.FileFunction,Legend,Top*%
%TF.FilePolarity,Positive*%
%FSLAX46Y46*%
G04 Gerber Fmt 4.6, Leading zero omitted, Abs format (unit mm)*
G04 Created by KiCad (PCBNEW 8.0.9-rc1) date 2026-08-25 17:09:45*
%MOMM*%
%LPD*%
G01*
G04 APERTURE LIST*
%ADD10C,0.150000*%
%ADD11C,0.100000*%
%ADD12C,0.120000*%
G04 APERTURE END LIST*
D10*
X210089284Y-141762256D02*
X209994046Y-141809875D01*
X209994046Y-141809875D02*
X209803570Y-141809875D01*
X209803570Y-141809875D02*
X209708332Y-141762256D01*
X209708332Y-141762256D02*
X209660713Y-141714636D01*
X209660713Y-141714636D02*
X209613094Y-141619398D01*
X209613094Y-141619398D02*
X209613094Y-141333684D01*
X209613094Y-141333684D02*
X209660713Y-141238446D01*
X209660713Y-141238446D02*
X209708332Y-141190827D01*
X209708332Y-141190827D02*
X209803570Y-141143208D01*
X209803570Y-141143208D02*
X209994046Y-141143208D01*
X209994046Y-141143208D02*
X210089284Y-141190827D01*
X210660713Y-141809875D02*
X210565475Y-141762256D01*
X210565475Y-141762256D02*
X210517856Y-141714636D01*
X210517856Y-141714636D02*
X210470237Y-141619398D01*
X210470237Y-141619398D02*
X210470237Y-141333684D01*
X210470237Y-141333684D02*
X210517856Y-141238446D01*
X210517856Y-141238446D02*
X210565475Y-141190827D01*
X210565475Y-141190827D02*
X210660713Y-141143208D01*
X210660713Y-141143208D02*
X210803570Y-141143208D01*
X210803570Y-141143208D02*
X210898808Y-141190827D01*
X210898808Y-141190827D02*
X210946427Y-141238446D01*
X210946427Y-141238446D02*
X210994046Y-141333684D01*
X210994046Y-141333684D02*
X210994046Y-141619398D01*
X210994046Y-141619398D02*
X210946427Y-141714636D01*
X210946427Y-141714636D02*
X210898808Y-141762256D01*
X210898808Y-141762256D02*
X210803570Y-141809875D01*
X210803570Y-141809875D02*
X210660713Y-141809875D01*
X211422618Y-141809875D02*
X211422618Y-141143208D01*
X211422618Y-141333684D02*
X211470237Y-141238446D01*
X211470237Y-141238446D02*
X211517856Y-141190827D01*
X211517856Y-141190827D02*
X211613094Y-141143208D01*
X211613094Y-141143208D02*
X211708332Y-141143208D01*
X211946428Y-141143208D02*
X212184523Y-141809875D01*
X212184523Y-141809875D02*
X212422618Y-141143208D01*
X212946428Y-141809875D02*
X212851190Y-141762256D01*
X212851190Y-141762256D02*
X212803571Y-141714636D01*
X212803571Y-141714636D02*
X212755952Y-141619398D01*
X212755952Y-141619398D02*
X212755952Y-141333684D01*
X212755952Y-141333684D02*
X212803571Y-141238446D01*
X212803571Y-141238446D02*
X212851190Y-141190827D01*
X212851190Y-141190827D02*
X212946428Y-141143208D01*
X212946428Y-141143208D02*
X213089285Y-141143208D01*
X213089285Y-141143208D02*
X213184523Y-141190827D01*
X213184523Y-141190827D02*
X213232142Y-141238446D01*
X213232142Y-141238446D02*
X213279761Y-141333684D01*
X213279761Y-141333684D02*
X213279761Y-141619398D01*
X213279761Y-141619398D02*
X213232142Y-141714636D01*
X213232142Y-141714636D02*
X213184523Y-141762256D01*
X213184523Y-141762256D02*
X213089285Y-141809875D01*
X213089285Y-141809875D02*
X212946428Y-141809875D01*
X214470238Y-141428922D02*
X215232143Y-141428922D01*
X216327381Y-141143208D02*
X216708333Y-141143208D01*
X216470238Y-140809875D02*
X216470238Y-141667017D01*
X216470238Y-141667017D02*
X216517857Y-141762256D01*
X216517857Y-141762256D02*
X216613095Y-141809875D01*
X216613095Y-141809875D02*
X216708333Y-141809875D01*
X217041667Y-141809875D02*
X217041667Y-140809875D01*
X217470238Y-141809875D02*
X217470238Y-141286065D01*
X217470238Y-141286065D02*
X217422619Y-141190827D01*
X217422619Y-141190827D02*
X217327381Y-141143208D01*
X217327381Y-141143208D02*
X217184524Y-141143208D01*
X217184524Y-141143208D02*
X217089286Y-141190827D01*
X217089286Y-141190827D02*
X217041667Y-141238446D01*
X218327381Y-141762256D02*
X218232143Y-141809875D01*
X218232143Y-141809875D02*
X218041667Y-141809875D01*
X218041667Y-141809875D02*
X217946429Y-141762256D01*
X217946429Y-141762256D02*
X217898810Y-141667017D01*
X217898810Y-141667017D02*
X217898810Y-141286065D01*
X217898810Y-141286065D02*
X217946429Y-141190827D01*
X217946429Y-141190827D02*
X218041667Y-141143208D01*
X218041667Y-141143208D02*
X218232143Y-141143208D01*
X218232143Y-141143208D02*
X218327381Y-141190827D01*
X218327381Y-141190827D02*
X218375000Y-141286065D01*
X218375000Y-141286065D02*
X218375000Y-141381303D01*
X218375000Y-141381303D02*
X217898810Y-141476541D01*
X218803572Y-141809875D02*
X218803572Y-140809875D01*
X218803572Y-141190827D02*
X218898810Y-141143208D01*
X218898810Y-141143208D02*
X219089286Y-141143208D01*
X219089286Y-141143208D02*
X219184524Y-141190827D01*
X219184524Y-141190827D02*
X219232143Y-141238446D01*
X219232143Y-141238446D02*
X219279762Y-141333684D01*
X219279762Y-141333684D02*
X219279762Y-141619398D01*
X219279762Y-141619398D02*
X219232143Y-141714636D01*
X219232143Y-141714636D02*
X219184524Y-141762256D01*
X219184524Y-141762256D02*
X219089286Y-141809875D01*
X219089286Y-141809875D02*
X218898810Y-141809875D01*
X218898810Y-141809875D02*
X218803572Y-141762256D01*
X219898810Y-140809875D02*
X219994048Y-140809875D01*
X219994048Y-140809875D02*
X220089286Y-140857494D01*
X220089286Y-140857494D02*
X220136905Y-140905113D01*
X220136905Y-140905113D02*
X220184524Y-141000351D01*
X220184524Y-141000351D02*
X220232143Y-141190827D01*
X220232143Y-141190827D02*
X220232143Y-141428922D01*
X220232143Y-141428922D02*
X220184524Y-141619398D01*
X220184524Y-141619398D02*
X220136905Y-141714636D01*
X220136905Y-141714636D02*
X220089286Y-141762256D01*
X220089286Y-141762256D02*
X219994048Y-141809875D01*
X219994048Y-141809875D02*
X219898810Y-141809875D01*
X219898810Y-141809875D02*
X219803572Y-141762256D01*
X219803572Y-141762256D02*
X219755953Y-141714636D01*
X219755953Y-141714636D02*
X219708334Y-141619398D01*
X219708334Y-141619398D02*
X219660715Y-141428922D01*
X219660715Y-141428922D02*
X219660715Y-141190827D01*
X219660715Y-141190827D02*
X219708334Y-141000351D01*
X219708334Y-141000351D02*
X219755953Y-140905113D01*
X219755953Y-140905113D02*
X219803572Y-140857494D01*
X219803572Y-140857494D02*
X219898810Y-140809875D01*
X220660715Y-141809875D02*
X220660715Y-140809875D01*
X220660715Y-141190827D02*
X220755953Y-141143208D01*
X220755953Y-141143208D02*
X220946429Y-141143208D01*
X220946429Y-141143208D02*
X221041667Y-141190827D01*
X221041667Y-141190827D02*
X221089286Y-141238446D01*
X221089286Y-141238446D02*
X221136905Y-141333684D01*
X221136905Y-141333684D02*
X221136905Y-141619398D01*
X221136905Y-141619398D02*
X221089286Y-141714636D01*
X221089286Y-141714636D02*
X221041667Y-141762256D01*
X221041667Y-141762256D02*
X220946429Y-141809875D01*
X220946429Y-141809875D02*
X220755953Y-141809875D01*
X220755953Y-141809875D02*
X220660715Y-141762256D01*
X212327381Y-142848390D02*
X212232143Y-142800771D01*
X212232143Y-142800771D02*
X212184524Y-142753152D01*
X212184524Y-142753152D02*
X212136905Y-142657914D01*
X212136905Y-142657914D02*
X212136905Y-142610295D01*
X212136905Y-142610295D02*
X212184524Y-142515057D01*
X212184524Y-142515057D02*
X212232143Y-142467438D01*
X212232143Y-142467438D02*
X212327381Y-142419819D01*
X212327381Y-142419819D02*
X212517857Y-142419819D01*
X212517857Y-142419819D02*
X212613095Y-142467438D01*
X212613095Y-142467438D02*
X212660714Y-142515057D01*
X212660714Y-142515057D02*
X212708333Y-142610295D01*
X212708333Y-142610295D02*
X212708333Y-142657914D01*
X212708333Y-142657914D02*
X212660714Y-142753152D01*
X212660714Y-142753152D02*
X212613095Y-142800771D01*
X212613095Y-142800771D02*
X212517857Y-142848390D01*
X212517857Y-142848390D02*
X212327381Y-142848390D01*
X212327381Y-142848390D02*
X212232143Y-142896009D01*
X212232143Y-142896009D02*
X212184524Y-142943628D01*
X212184524Y-142943628D02*
X212136905Y-143038866D01*
X212136905Y-143038866D02*
X212136905Y-143229342D01*
X212136905Y-143229342D02*
X212184524Y-143324580D01*
X212184524Y-143324580D02*
X212232143Y-143372200D01*
X212232143Y-143372200D02*
X212327381Y-143419819D01*
X212327381Y-143419819D02*
X212517857Y-143419819D01*
X212517857Y-143419819D02*
X212613095Y-143372200D01*
X212613095Y-143372200D02*
X212660714Y-143324580D01*
X212660714Y-143324580D02*
X212708333Y-143229342D01*
X212708333Y-143229342D02*
X212708333Y-143038866D01*
X212708333Y-143038866D02*
X212660714Y-142943628D01*
X212660714Y-142943628D02*
X212613095Y-142896009D01*
X212613095Y-142896009D02*
X212517857Y-142848390D01*
X213851190Y-142372200D02*
X212994048Y-143657914D01*
X214136905Y-142515057D02*
X214184524Y-142467438D01*
X214184524Y-142467438D02*
X214279762Y-142419819D01*
X214279762Y-142419819D02*
X214517857Y-142419819D01*
X214517857Y-142419819D02*
X214613095Y-142467438D01*
X214613095Y-142467438D02*
X214660714Y-142515057D01*
X214660714Y-142515057D02*
X214708333Y-142610295D01*
X214708333Y-142610295D02*
X214708333Y-142705533D01*
X214708333Y-142705533D02*
X214660714Y-142848390D01*
X214660714Y-142848390D02*
X214089286Y-143419819D01*
X214089286Y-143419819D02*
X214708333Y-143419819D01*
X215613095Y-142419819D02*
X215136905Y-142419819D01*
X215136905Y-142419819D02*
X215089286Y-142896009D01*
X215089286Y-142896009D02*
X215136905Y-142848390D01*
X215136905Y-142848390D02*
X215232143Y-142800771D01*
X215232143Y-142800771D02*
X215470238Y-142800771D01*
X215470238Y-142800771D02*
X215565476Y-142848390D01*
X215565476Y-142848390D02*
X215613095Y-142896009D01*
X215613095Y-142896009D02*
X215660714Y-142991247D01*
X215660714Y-142991247D02*
X215660714Y-143229342D01*
X215660714Y-143229342D02*
X215613095Y-143324580D01*
X215613095Y-143324580D02*
X215565476Y-143372200D01*
X215565476Y-143372200D02*
X215470238Y-143419819D01*
X215470238Y-143419819D02*
X215232143Y-143419819D01*
X215232143Y-143419819D02*
X215136905Y-143372200D01*
X215136905Y-143372200D02*
X215089286Y-143324580D01*
X216803571Y-142372200D02*
X215946429Y-143657914D01*
X217089286Y-142515057D02*
X217136905Y-142467438D01*
X217136905Y-142467438D02*
X217232143Y-142419819D01*
X217232143Y-142419819D02*
X217470238Y-142419819D01*
X217470238Y-142419819D02*
X217565476Y-142467438D01*
X217565476Y-142467438D02*
X217613095Y-142515057D01*
X217613095Y-142515057D02*
X217660714Y-142610295D01*
X217660714Y-142610295D02*
X217660714Y-142705533D01*
X217660714Y-142705533D02*
X217613095Y-142848390D01*
X217613095Y-142848390D02*
X217041667Y-143419819D01*
X217041667Y-143419819D02*
X217660714Y-143419819D01*
X218517857Y-142419819D02*
X218327381Y-142419819D01*
X218327381Y-142419819D02*
X218232143Y-142467438D01*
X218232143Y-142467438D02*
X218184524Y-142515057D01*
X218184524Y-142515057D02*
X218089286Y-142657914D01*
X218089286Y-142657914D02*
X218041667Y-142848390D01*
X218041667Y-142848390D02*
X218041667Y-143229342D01*
X218041667Y-143229342D02*
X218089286Y-143324580D01*
X218089286Y-143324580D02*
X218136905Y-143372200D01*
X218136905Y-143372200D02*
X218232143Y-143419819D01*
X218232143Y-143419819D02*
X218422619Y-143419819D01*
X218422619Y-143419819D02*
X218517857Y-143372200D01*
X218517857Y-143372200D02*
X218565476Y-143324580D01*
X218565476Y-143324580D02*
X218613095Y-143229342D01*
X218613095Y-143229342D02*
X218613095Y-142991247D01*
X218613095Y-142991247D02*
X218565476Y-142896009D01*
X218565476Y-142896009D02*
X218517857Y-142848390D01*
X218517857Y-142848390D02*
X218422619Y-142800771D01*
X218422619Y-142800771D02*
X218232143Y-142800771D01*
X218232143Y-142800771D02*
X218136905Y-142848390D01*
X218136905Y-142848390D02*
X218089286Y-142896009D01*
X218089286Y-142896009D02*
X218041667Y-142991247D01*
X249716039Y-113819078D02*
X249716039Y-112819078D01*
X249716039Y-112819078D02*
X250096991Y-112819078D01*
X250096991Y-112819078D02*
X250192229Y-112866697D01*
X250192229Y-112866697D02*
X250239848Y-112914316D01*
X250239848Y-112914316D02*
X250287467Y-113009554D01*
X250287467Y-113009554D02*
X250287467Y-113152411D01*
X250287467Y-113152411D02*
X250239848Y-113247649D01*
X250239848Y-113247649D02*
X250192229Y-113295268D01*
X250192229Y-113295268D02*
X250096991Y-113342887D01*
X250096991Y-113342887D02*
X249716039Y-113342887D01*
X250620801Y-112819078D02*
X251287467Y-112819078D01*
X251287467Y-112819078D02*
X250858896Y-113819078D01*
X249716039Y-101119078D02*
X249716039Y-100119078D01*
X249716039Y-100119078D02*
X250096991Y-100119078D01*
X250096991Y-100119078D02*
X250192229Y-100166697D01*
X250192229Y-100166697D02*
X250239848Y-100214316D01*
X250239848Y-100214316D02*
X250287467Y-100309554D01*
X250287467Y-100309554D02*
X250287467Y-100452411D01*
X250287467Y-100452411D02*
X250239848Y-100547649D01*
X250239848Y-100547649D02*
X250192229Y-100595268D01*
X250192229Y-100595268D02*
X250096991Y-100642887D01*
X250096991Y-100642887D02*
X249716039Y-100642887D01*
X250668420Y-100214316D02*
X250716039Y-100166697D01*
X250716039Y-100166697D02*
X250811277Y-100119078D01*
X250811277Y-100119078D02*
X251049372Y-100119078D01*
X251049372Y-100119078D02*
X251144610Y-100166697D01*
X251144610Y-100166697D02*
X251192229Y-100214316D01*
X251192229Y-100214316D02*
X251239848Y-100309554D01*
X251239848Y-100309554D02*
X251239848Y-100404792D01*
X251239848Y-100404792D02*
X251192229Y-100547649D01*
X251192229Y-100547649D02*
X250620801Y-101119078D01*
X250620801Y-101119078D02*
X251239848Y-101119078D01*
X250282229Y-97626697D02*
X250186991Y-97579078D01*
X250186991Y-97579078D02*
X250044134Y-97579078D01*
X250044134Y-97579078D02*
X249901277Y-97626697D01*
X249901277Y-97626697D02*
X249806039Y-97721935D01*
X249806039Y-97721935D02*
X249758420Y-97817173D01*
X249758420Y-97817173D02*
X249710801Y-98007649D01*
X249710801Y-98007649D02*
X249710801Y-98150506D01*
X249710801Y-98150506D02*
X249758420Y-98340982D01*
X249758420Y-98340982D02*
X249806039Y-98436220D01*
X249806039Y-98436220D02*
X249901277Y-98531459D01*
X249901277Y-98531459D02*
X250044134Y-98579078D01*
X250044134Y-98579078D02*
X250139372Y-98579078D01*
X250139372Y-98579078D02*
X250282229Y-98531459D01*
X250282229Y-98531459D02*
X250329848Y-98483839D01*
X250329848Y-98483839D02*
X250329848Y-98150506D01*
X250329848Y-98150506D02*
X250139372Y-98150506D01*
X250758420Y-98579078D02*
X250758420Y-97579078D01*
X250758420Y-97579078D02*
X251329848Y-98579078D01*
X251329848Y-98579078D02*
X251329848Y-97579078D01*
X251806039Y-98579078D02*
X251806039Y-97579078D01*
X251806039Y-97579078D02*
X252044134Y-97579078D01*
X252044134Y-97579078D02*
X252186991Y-97626697D01*
X252186991Y-97626697D02*
X252282229Y-97721935D01*
X252282229Y-97721935D02*
X252329848Y-97817173D01*
X252329848Y-97817173D02*
X252377467Y-98007649D01*
X252377467Y-98007649D02*
X252377467Y-98150506D01*
X252377467Y-98150506D02*
X252329848Y-98340982D01*
X252329848Y-98340982D02*
X252282229Y-98436220D01*
X252282229Y-98436220D02*
X252186991Y-98531459D01*
X252186991Y-98531459D02*
X252044134Y-98579078D01*
X252044134Y-98579078D02*
X251806039Y-98579078D01*
X252729848Y-111279078D02*
X252729848Y-110279078D01*
X252729848Y-110279078D02*
X253110800Y-110279078D01*
X253110800Y-110279078D02*
X253206038Y-110326697D01*
X253206038Y-110326697D02*
X253253657Y-110374316D01*
X253253657Y-110374316D02*
X253301276Y-110469554D01*
X253301276Y-110469554D02*
X253301276Y-110612411D01*
X253301276Y-110612411D02*
X253253657Y-110707649D01*
X253253657Y-110707649D02*
X253206038Y-110755268D01*
X253206038Y-110755268D02*
X253110800Y-110802887D01*
X253110800Y-110802887D02*
X252729848Y-110802887D01*
X254253657Y-111279078D02*
X253682229Y-111279078D01*
X253967943Y-111279078D02*
X253967943Y-110279078D01*
X253967943Y-110279078D02*
X253872705Y-110421935D01*
X253872705Y-110421935D02*
X253777467Y-110517173D01*
X253777467Y-110517173D02*
X253682229Y-110564792D01*
X255158419Y-110279078D02*
X254682229Y-110279078D01*
X254682229Y-110279078D02*
X254634610Y-110755268D01*
X254634610Y-110755268D02*
X254682229Y-110707649D01*
X254682229Y-110707649D02*
X254777467Y-110660030D01*
X254777467Y-110660030D02*
X255015562Y-110660030D01*
X255015562Y-110660030D02*
X255110800Y-110707649D01*
X255110800Y-110707649D02*
X255158419Y-110755268D01*
X255158419Y-110755268D02*
X255206038Y-110850506D01*
X255206038Y-110850506D02*
X255206038Y-111088601D01*
X255206038Y-111088601D02*
X255158419Y-111183839D01*
X255158419Y-111183839D02*
X255110800Y-111231459D01*
X255110800Y-111231459D02*
X255015562Y-111279078D01*
X255015562Y-111279078D02*
X254777467Y-111279078D01*
X254777467Y-111279078D02*
X254682229Y-111231459D01*
X254682229Y-111231459D02*
X254634610Y-111183839D01*
X253396514Y-96039078D02*
X253063181Y-95562887D01*
X252825086Y-96039078D02*
X252825086Y-95039078D01*
X252825086Y-95039078D02*
X253206038Y-95039078D01*
X253206038Y-95039078D02*
X253301276Y-95086697D01*
X253301276Y-95086697D02*
X253348895Y-95134316D01*
X253348895Y-95134316D02*
X253396514Y-95229554D01*
X253396514Y-95229554D02*
X253396514Y-95372411D01*
X253396514Y-95372411D02*
X253348895Y-95467649D01*
X253348895Y-95467649D02*
X253301276Y-95515268D01*
X253301276Y-95515268D02*
X253206038Y-95562887D01*
X253206038Y-95562887D02*
X252825086Y-95562887D01*
X253777467Y-95991459D02*
X253920324Y-96039078D01*
X253920324Y-96039078D02*
X254158419Y-96039078D01*
X254158419Y-96039078D02*
X254253657Y-95991459D01*
X254253657Y-95991459D02*
X254301276Y-95943839D01*
X254301276Y-95943839D02*
X254348895Y-95848601D01*
X254348895Y-95848601D02*
X254348895Y-95753363D01*
X254348895Y-95753363D02*
X254301276Y-95658125D01*
X254301276Y-95658125D02*
X254253657Y-95610506D01*
X254253657Y-95610506D02*
X254158419Y-95562887D01*
X254158419Y-95562887D02*
X253967943Y-95515268D01*
X253967943Y-95515268D02*
X253872705Y-95467649D01*
X253872705Y-95467649D02*
X253825086Y-95420030D01*
X253825086Y-95420030D02*
X253777467Y-95324792D01*
X253777467Y-95324792D02*
X253777467Y-95229554D01*
X253777467Y-95229554D02*
X253825086Y-95134316D01*
X253825086Y-95134316D02*
X253872705Y-95086697D01*
X253872705Y-95086697D02*
X253967943Y-95039078D01*
X253967943Y-95039078D02*
X254206038Y-95039078D01*
X254206038Y-95039078D02*
X254348895Y-95086697D01*
X254634610Y-95039078D02*
X255206038Y-95039078D01*
X254920324Y-96039078D02*
X254920324Y-95039078D01*
X253182229Y-92546697D02*
X253086991Y-92499078D01*
X253086991Y-92499078D02*
X252944134Y-92499078D01*
X252944134Y-92499078D02*
X252801277Y-92546697D01*
X252801277Y-92546697D02*
X252706039Y-92641935D01*
X252706039Y-92641935D02*
X252658420Y-92737173D01*
X252658420Y-92737173D02*
X252610801Y-92927649D01*
X252610801Y-92927649D02*
X252610801Y-93070506D01*
X252610801Y-93070506D02*
X252658420Y-93260982D01*
X252658420Y-93260982D02*
X252706039Y-93356220D01*
X252706039Y-93356220D02*
X252801277Y-93451459D01*
X252801277Y-93451459D02*
X252944134Y-93499078D01*
X252944134Y-93499078D02*
X253039372Y-93499078D01*
X253039372Y-93499078D02*
X253182229Y-93451459D01*
X253182229Y-93451459D02*
X253229848Y-93403839D01*
X253229848Y-93403839D02*
X253229848Y-93070506D01*
X253229848Y-93070506D02*
X253039372Y-93070506D01*
X253658420Y-93499078D02*
X253658420Y-92499078D01*
X253658420Y-92499078D02*
X254229848Y-93499078D01*
X254229848Y-93499078D02*
X254229848Y-92499078D01*
X254706039Y-93499078D02*
X254706039Y-92499078D01*
X254706039Y-92499078D02*
X254944134Y-92499078D01*
X254944134Y-92499078D02*
X255086991Y-92546697D01*
X255086991Y-92546697D02*
X255182229Y-92641935D01*
X255182229Y-92641935D02*
X255229848Y-92737173D01*
X255229848Y-92737173D02*
X255277467Y-92927649D01*
X255277467Y-92927649D02*
X255277467Y-93070506D01*
X255277467Y-93070506D02*
X255229848Y-93260982D01*
X255229848Y-93260982D02*
X255182229Y-93356220D01*
X255182229Y-93356220D02*
X255086991Y-93451459D01*
X255086991Y-93451459D02*
X254944134Y-93499078D01*
X254944134Y-93499078D02*
X254706039Y-93499078D01*
X252729848Y-103659078D02*
X252729848Y-102659078D01*
X252729848Y-102659078D02*
X253110800Y-102659078D01*
X253110800Y-102659078D02*
X253206038Y-102706697D01*
X253206038Y-102706697D02*
X253253657Y-102754316D01*
X253253657Y-102754316D02*
X253301276Y-102849554D01*
X253301276Y-102849554D02*
X253301276Y-102992411D01*
X253301276Y-102992411D02*
X253253657Y-103087649D01*
X253253657Y-103087649D02*
X253206038Y-103135268D01*
X253206038Y-103135268D02*
X253110800Y-103182887D01*
X253110800Y-103182887D02*
X252729848Y-103182887D01*
X253682229Y-102754316D02*
X253729848Y-102706697D01*
X253729848Y-102706697D02*
X253825086Y-102659078D01*
X253825086Y-102659078D02*
X254063181Y-102659078D01*
X254063181Y-102659078D02*
X254158419Y-102706697D01*
X254158419Y-102706697D02*
X254206038Y-102754316D01*
X254206038Y-102754316D02*
X254253657Y-102849554D01*
X254253657Y-102849554D02*
X254253657Y-102944792D01*
X254253657Y-102944792D02*
X254206038Y-103087649D01*
X254206038Y-103087649D02*
X253634610Y-103659078D01*
X253634610Y-103659078D02*
X254253657Y-103659078D01*
X254872705Y-102659078D02*
X254967943Y-102659078D01*
X254967943Y-102659078D02*
X255063181Y-102706697D01*
X255063181Y-102706697D02*
X255110800Y-102754316D01*
X255110800Y-102754316D02*
X255158419Y-102849554D01*
X255158419Y-102849554D02*
X255206038Y-103040030D01*
X255206038Y-103040030D02*
X255206038Y-103278125D01*
X255206038Y-103278125D02*
X255158419Y-103468601D01*
X255158419Y-103468601D02*
X255110800Y-103563839D01*
X255110800Y-103563839D02*
X255063181Y-103611459D01*
X255063181Y-103611459D02*
X254967943Y-103659078D01*
X254967943Y-103659078D02*
X254872705Y-103659078D01*
X254872705Y-103659078D02*
X254777467Y-103611459D01*
X254777467Y-103611459D02*
X254729848Y-103563839D01*
X254729848Y-103563839D02*
X254682229Y-103468601D01*
X254682229Y-103468601D02*
X254634610Y-103278125D01*
X254634610Y-103278125D02*
X254634610Y-103040030D01*
X254634610Y-103040030D02*
X254682229Y-102849554D01*
X254682229Y-102849554D02*
X254729848Y-102754316D01*
X254729848Y-102754316D02*
X254777467Y-102706697D01*
X254777467Y-102706697D02*
X254872705Y-102659078D01*
X252610801Y-97579078D02*
X252944134Y-98579078D01*
X252944134Y-98579078D02*
X253277467Y-97579078D01*
X254182229Y-98483839D02*
X254134610Y-98531459D01*
X254134610Y-98531459D02*
X253991753Y-98579078D01*
X253991753Y-98579078D02*
X253896515Y-98579078D01*
X253896515Y-98579078D02*
X253753658Y-98531459D01*
X253753658Y-98531459D02*
X253658420Y-98436220D01*
X253658420Y-98436220D02*
X253610801Y-98340982D01*
X253610801Y-98340982D02*
X253563182Y-98150506D01*
X253563182Y-98150506D02*
X253563182Y-98007649D01*
X253563182Y-98007649D02*
X253610801Y-97817173D01*
X253610801Y-97817173D02*
X253658420Y-97721935D01*
X253658420Y-97721935D02*
X253753658Y-97626697D01*
X253753658Y-97626697D02*
X253896515Y-97579078D01*
X253896515Y-97579078D02*
X253991753Y-97579078D01*
X253991753Y-97579078D02*
X254134610Y-97626697D01*
X254134610Y-97626697D02*
X254182229Y-97674316D01*
X255182229Y-98483839D02*
X255134610Y-98531459D01*
X255134610Y-98531459D02*
X254991753Y-98579078D01*
X254991753Y-98579078D02*
X254896515Y-98579078D01*
X254896515Y-98579078D02*
X254753658Y-98531459D01*
X254753658Y-98531459D02*
X254658420Y-98436220D01*
X254658420Y-98436220D02*
X254610801Y-98340982D01*
X254610801Y-98340982D02*
X254563182Y-98150506D01*
X254563182Y-98150506D02*
X254563182Y-98007649D01*
X254563182Y-98007649D02*
X254610801Y-97817173D01*
X254610801Y-97817173D02*
X254658420Y-97721935D01*
X254658420Y-97721935D02*
X254753658Y-97626697D01*
X254753658Y-97626697D02*
X254896515Y-97579078D01*
X254896515Y-97579078D02*
X254991753Y-97579078D01*
X254991753Y-97579078D02*
X255134610Y-97626697D01*
X255134610Y-97626697D02*
X255182229Y-97674316D01*
X250282229Y-95086697D02*
X250186991Y-95039078D01*
X250186991Y-95039078D02*
X250044134Y-95039078D01*
X250044134Y-95039078D02*
X249901277Y-95086697D01*
X249901277Y-95086697D02*
X249806039Y-95181935D01*
X249806039Y-95181935D02*
X249758420Y-95277173D01*
X249758420Y-95277173D02*
X249710801Y-95467649D01*
X249710801Y-95467649D02*
X249710801Y-95610506D01*
X249710801Y-95610506D02*
X249758420Y-95800982D01*
X249758420Y-95800982D02*
X249806039Y-95896220D01*
X249806039Y-95896220D02*
X249901277Y-95991459D01*
X249901277Y-95991459D02*
X250044134Y-96039078D01*
X250044134Y-96039078D02*
X250139372Y-96039078D01*
X250139372Y-96039078D02*
X250282229Y-95991459D01*
X250282229Y-95991459D02*
X250329848Y-95943839D01*
X250329848Y-95943839D02*
X250329848Y-95610506D01*
X250329848Y-95610506D02*
X250139372Y-95610506D01*
X250758420Y-96039078D02*
X250758420Y-95039078D01*
X250758420Y-95039078D02*
X251329848Y-96039078D01*
X251329848Y-96039078D02*
X251329848Y-95039078D01*
X251806039Y-96039078D02*
X251806039Y-95039078D01*
X251806039Y-95039078D02*
X252044134Y-95039078D01*
X252044134Y-95039078D02*
X252186991Y-95086697D01*
X252186991Y-95086697D02*
X252282229Y-95181935D01*
X252282229Y-95181935D02*
X252329848Y-95277173D01*
X252329848Y-95277173D02*
X252377467Y-95467649D01*
X252377467Y-95467649D02*
X252377467Y-95610506D01*
X252377467Y-95610506D02*
X252329848Y-95800982D01*
X252329848Y-95800982D02*
X252282229Y-95896220D01*
X252282229Y-95896220D02*
X252186991Y-95991459D01*
X252186991Y-95991459D02*
X252044134Y-96039078D01*
X252044134Y-96039078D02*
X251806039Y-96039078D01*
X253253658Y-90959078D02*
X252920325Y-90482887D01*
X252682230Y-90959078D02*
X252682230Y-89959078D01*
X252682230Y-89959078D02*
X253063182Y-89959078D01*
X253063182Y-89959078D02*
X253158420Y-90006697D01*
X253158420Y-90006697D02*
X253206039Y-90054316D01*
X253206039Y-90054316D02*
X253253658Y-90149554D01*
X253253658Y-90149554D02*
X253253658Y-90292411D01*
X253253658Y-90292411D02*
X253206039Y-90387649D01*
X253206039Y-90387649D02*
X253158420Y-90435268D01*
X253158420Y-90435268D02*
X253063182Y-90482887D01*
X253063182Y-90482887D02*
X252682230Y-90482887D01*
X253634611Y-90673363D02*
X254110801Y-90673363D01*
X253539373Y-90959078D02*
X253872706Y-89959078D01*
X253872706Y-89959078D02*
X254206039Y-90959078D01*
X254444135Y-89959078D02*
X254682230Y-90959078D01*
X254682230Y-90959078D02*
X254872706Y-90244792D01*
X254872706Y-90244792D02*
X255063182Y-90959078D01*
X255063182Y-90959078D02*
X255301278Y-89959078D01*
X249716039Y-90959078D02*
X249716039Y-89959078D01*
X249716039Y-89959078D02*
X250096991Y-89959078D01*
X250096991Y-89959078D02*
X250192229Y-90006697D01*
X250192229Y-90006697D02*
X250239848Y-90054316D01*
X250239848Y-90054316D02*
X250287467Y-90149554D01*
X250287467Y-90149554D02*
X250287467Y-90292411D01*
X250287467Y-90292411D02*
X250239848Y-90387649D01*
X250239848Y-90387649D02*
X250192229Y-90435268D01*
X250192229Y-90435268D02*
X250096991Y-90482887D01*
X250096991Y-90482887D02*
X249716039Y-90482887D01*
X251239848Y-90959078D02*
X250668420Y-90959078D01*
X250954134Y-90959078D02*
X250954134Y-89959078D01*
X250954134Y-89959078D02*
X250858896Y-90101935D01*
X250858896Y-90101935D02*
X250763658Y-90197173D01*
X250763658Y-90197173D02*
X250668420Y-90244792D01*
X243327466Y-88366459D02*
X243422704Y-88414078D01*
X243422704Y-88414078D02*
X243613180Y-88414078D01*
X243613180Y-88414078D02*
X243708418Y-88366459D01*
X243708418Y-88366459D02*
X243756037Y-88271220D01*
X243756037Y-88271220D02*
X243756037Y-88223601D01*
X243756037Y-88223601D02*
X243708418Y-88128363D01*
X243708418Y-88128363D02*
X243613180Y-88080744D01*
X243613180Y-88080744D02*
X243470323Y-88080744D01*
X243470323Y-88080744D02*
X243375085Y-88033125D01*
X243375085Y-88033125D02*
X243327466Y-87937887D01*
X243327466Y-87937887D02*
X243327466Y-87890268D01*
X243327466Y-87890268D02*
X243375085Y-87795030D01*
X243375085Y-87795030D02*
X243470323Y-87747411D01*
X243470323Y-87747411D02*
X243613180Y-87747411D01*
X243613180Y-87747411D02*
X243708418Y-87795030D01*
X244327466Y-88414078D02*
X244232228Y-88366459D01*
X244232228Y-88366459D02*
X244184609Y-88318839D01*
X244184609Y-88318839D02*
X244136990Y-88223601D01*
X244136990Y-88223601D02*
X244136990Y-87937887D01*
X244136990Y-87937887D02*
X244184609Y-87842649D01*
X244184609Y-87842649D02*
X244232228Y-87795030D01*
X244232228Y-87795030D02*
X244327466Y-87747411D01*
X244327466Y-87747411D02*
X244470323Y-87747411D01*
X244470323Y-87747411D02*
X244565561Y-87795030D01*
X244565561Y-87795030D02*
X244613180Y-87842649D01*
X244613180Y-87842649D02*
X244660799Y-87937887D01*
X244660799Y-87937887D02*
X244660799Y-88223601D01*
X244660799Y-88223601D02*
X244613180Y-88318839D01*
X244613180Y-88318839D02*
X244565561Y-88366459D01*
X244565561Y-88366459D02*
X244470323Y-88414078D01*
X244470323Y-88414078D02*
X244327466Y-88414078D01*
X245232228Y-88414078D02*
X245136990Y-88366459D01*
X245136990Y-88366459D02*
X245089371Y-88271220D01*
X245089371Y-88271220D02*
X245089371Y-87414078D01*
X246041752Y-88414078D02*
X246041752Y-87414078D01*
X246041752Y-88366459D02*
X245946514Y-88414078D01*
X245946514Y-88414078D02*
X245756038Y-88414078D01*
X245756038Y-88414078D02*
X245660800Y-88366459D01*
X245660800Y-88366459D02*
X245613181Y-88318839D01*
X245613181Y-88318839D02*
X245565562Y-88223601D01*
X245565562Y-88223601D02*
X245565562Y-87937887D01*
X245565562Y-87937887D02*
X245613181Y-87842649D01*
X245613181Y-87842649D02*
X245660800Y-87795030D01*
X245660800Y-87795030D02*
X245756038Y-87747411D01*
X245756038Y-87747411D02*
X245946514Y-87747411D01*
X245946514Y-87747411D02*
X246041752Y-87795030D01*
X246898895Y-88366459D02*
X246803657Y-88414078D01*
X246803657Y-88414078D02*
X246613181Y-88414078D01*
X246613181Y-88414078D02*
X246517943Y-88366459D01*
X246517943Y-88366459D02*
X246470324Y-88271220D01*
X246470324Y-88271220D02*
X246470324Y-87890268D01*
X246470324Y-87890268D02*
X246517943Y-87795030D01*
X246517943Y-87795030D02*
X246613181Y-87747411D01*
X246613181Y-87747411D02*
X246803657Y-87747411D01*
X246803657Y-87747411D02*
X246898895Y-87795030D01*
X246898895Y-87795030D02*
X246946514Y-87890268D01*
X246946514Y-87890268D02*
X246946514Y-87985506D01*
X246946514Y-87985506D02*
X246470324Y-88080744D01*
X247375086Y-88414078D02*
X247375086Y-87747411D01*
X247375086Y-87937887D02*
X247422705Y-87842649D01*
X247422705Y-87842649D02*
X247470324Y-87795030D01*
X247470324Y-87795030D02*
X247565562Y-87747411D01*
X247565562Y-87747411D02*
X247660800Y-87747411D01*
X248756039Y-87747411D02*
X248756039Y-88604554D01*
X248756039Y-88604554D02*
X248708420Y-88699792D01*
X248708420Y-88699792D02*
X248613182Y-88747411D01*
X248613182Y-88747411D02*
X248565563Y-88747411D01*
X248756039Y-87414078D02*
X248708420Y-87461697D01*
X248708420Y-87461697D02*
X248756039Y-87509316D01*
X248756039Y-87509316D02*
X248803658Y-87461697D01*
X248803658Y-87461697D02*
X248756039Y-87414078D01*
X248756039Y-87414078D02*
X248756039Y-87509316D01*
X249660800Y-87747411D02*
X249660800Y-88414078D01*
X249232229Y-87747411D02*
X249232229Y-88271220D01*
X249232229Y-88271220D02*
X249279848Y-88366459D01*
X249279848Y-88366459D02*
X249375086Y-88414078D01*
X249375086Y-88414078D02*
X249517943Y-88414078D01*
X249517943Y-88414078D02*
X249613181Y-88366459D01*
X249613181Y-88366459D02*
X249660800Y-88318839D01*
X250136991Y-88414078D02*
X250136991Y-87747411D01*
X250136991Y-87842649D02*
X250184610Y-87795030D01*
X250184610Y-87795030D02*
X250279848Y-87747411D01*
X250279848Y-87747411D02*
X250422705Y-87747411D01*
X250422705Y-87747411D02*
X250517943Y-87795030D01*
X250517943Y-87795030D02*
X250565562Y-87890268D01*
X250565562Y-87890268D02*
X250565562Y-88414078D01*
X250565562Y-87890268D02*
X250613181Y-87795030D01*
X250613181Y-87795030D02*
X250708419Y-87747411D01*
X250708419Y-87747411D02*
X250851276Y-87747411D01*
X250851276Y-87747411D02*
X250946515Y-87795030D01*
X250946515Y-87795030D02*
X250994134Y-87890268D01*
X250994134Y-87890268D02*
X250994134Y-88414078D01*
X251470324Y-87747411D02*
X251470324Y-88747411D01*
X251470324Y-87795030D02*
X251565562Y-87747411D01*
X251565562Y-87747411D02*
X251756038Y-87747411D01*
X251756038Y-87747411D02*
X251851276Y-87795030D01*
X251851276Y-87795030D02*
X251898895Y-87842649D01*
X251898895Y-87842649D02*
X251946514Y-87937887D01*
X251946514Y-87937887D02*
X251946514Y-88223601D01*
X251946514Y-88223601D02*
X251898895Y-88318839D01*
X251898895Y-88318839D02*
X251851276Y-88366459D01*
X251851276Y-88366459D02*
X251756038Y-88414078D01*
X251756038Y-88414078D02*
X251565562Y-88414078D01*
X251565562Y-88414078D02*
X251470324Y-88366459D01*
X252756038Y-88366459D02*
X252660800Y-88414078D01*
X252660800Y-88414078D02*
X252470324Y-88414078D01*
X252470324Y-88414078D02*
X252375086Y-88366459D01*
X252375086Y-88366459D02*
X252327467Y-88271220D01*
X252327467Y-88271220D02*
X252327467Y-87890268D01*
X252327467Y-87890268D02*
X252375086Y-87795030D01*
X252375086Y-87795030D02*
X252470324Y-87747411D01*
X252470324Y-87747411D02*
X252660800Y-87747411D01*
X252660800Y-87747411D02*
X252756038Y-87795030D01*
X252756038Y-87795030D02*
X252803657Y-87890268D01*
X252803657Y-87890268D02*
X252803657Y-87985506D01*
X252803657Y-87985506D02*
X252327467Y-88080744D01*
X253232229Y-88414078D02*
X253232229Y-87747411D01*
X253232229Y-87937887D02*
X253279848Y-87842649D01*
X253279848Y-87842649D02*
X253327467Y-87795030D01*
X253327467Y-87795030D02*
X253422705Y-87747411D01*
X253422705Y-87747411D02*
X253517943Y-87747411D01*
X253803658Y-88366459D02*
X253898896Y-88414078D01*
X253898896Y-88414078D02*
X254089372Y-88414078D01*
X254089372Y-88414078D02*
X254184610Y-88366459D01*
X254184610Y-88366459D02*
X254232229Y-88271220D01*
X254232229Y-88271220D02*
X254232229Y-88223601D01*
X254232229Y-88223601D02*
X254184610Y-88128363D01*
X254184610Y-88128363D02*
X254089372Y-88080744D01*
X254089372Y-88080744D02*
X253946515Y-88080744D01*
X253946515Y-88080744D02*
X253851277Y-88033125D01*
X253851277Y-88033125D02*
X253803658Y-87937887D01*
X253803658Y-87937887D02*
X253803658Y-87890268D01*
X253803658Y-87890268D02*
X253851277Y-87795030D01*
X253851277Y-87795030D02*
X253946515Y-87747411D01*
X253946515Y-87747411D02*
X254089372Y-87747411D01*
X254089372Y-87747411D02*
X254184610Y-87795030D01*
X255708420Y-88795030D02*
X255660801Y-88747411D01*
X255660801Y-88747411D02*
X255565563Y-88604554D01*
X255565563Y-88604554D02*
X255517944Y-88509316D01*
X255517944Y-88509316D02*
X255470325Y-88366459D01*
X255470325Y-88366459D02*
X255422706Y-88128363D01*
X255422706Y-88128363D02*
X255422706Y-87937887D01*
X255422706Y-87937887D02*
X255470325Y-87699792D01*
X255470325Y-87699792D02*
X255517944Y-87556935D01*
X255517944Y-87556935D02*
X255565563Y-87461697D01*
X255565563Y-87461697D02*
X255660801Y-87318839D01*
X255660801Y-87318839D02*
X255708420Y-87271220D01*
X256660801Y-88414078D02*
X256327468Y-87937887D01*
X256089373Y-88414078D02*
X256089373Y-87414078D01*
X256089373Y-87414078D02*
X256470325Y-87414078D01*
X256470325Y-87414078D02*
X256565563Y-87461697D01*
X256565563Y-87461697D02*
X256613182Y-87509316D01*
X256613182Y-87509316D02*
X256660801Y-87604554D01*
X256660801Y-87604554D02*
X256660801Y-87747411D01*
X256660801Y-87747411D02*
X256613182Y-87842649D01*
X256613182Y-87842649D02*
X256565563Y-87890268D01*
X256565563Y-87890268D02*
X256470325Y-87937887D01*
X256470325Y-87937887D02*
X256089373Y-87937887D01*
X258184611Y-87890268D02*
X258327468Y-87937887D01*
X258327468Y-87937887D02*
X258375087Y-87985506D01*
X258375087Y-87985506D02*
X258422706Y-88080744D01*
X258422706Y-88080744D02*
X258422706Y-88223601D01*
X258422706Y-88223601D02*
X258375087Y-88318839D01*
X258375087Y-88318839D02*
X258327468Y-88366459D01*
X258327468Y-88366459D02*
X258232230Y-88414078D01*
X258232230Y-88414078D02*
X257851278Y-88414078D01*
X257851278Y-88414078D02*
X257851278Y-87414078D01*
X257851278Y-87414078D02*
X258184611Y-87414078D01*
X258184611Y-87414078D02*
X258279849Y-87461697D01*
X258279849Y-87461697D02*
X258327468Y-87509316D01*
X258327468Y-87509316D02*
X258375087Y-87604554D01*
X258375087Y-87604554D02*
X258375087Y-87699792D01*
X258375087Y-87699792D02*
X258327468Y-87795030D01*
X258327468Y-87795030D02*
X258279849Y-87842649D01*
X258279849Y-87842649D02*
X258184611Y-87890268D01*
X258184611Y-87890268D02*
X257851278Y-87890268D01*
X259279849Y-88414078D02*
X259279849Y-87890268D01*
X259279849Y-87890268D02*
X259232230Y-87795030D01*
X259232230Y-87795030D02*
X259136992Y-87747411D01*
X259136992Y-87747411D02*
X258946516Y-87747411D01*
X258946516Y-87747411D02*
X258851278Y-87795030D01*
X259279849Y-88366459D02*
X259184611Y-88414078D01*
X259184611Y-88414078D02*
X258946516Y-88414078D01*
X258946516Y-88414078D02*
X258851278Y-88366459D01*
X258851278Y-88366459D02*
X258803659Y-88271220D01*
X258803659Y-88271220D02*
X258803659Y-88175982D01*
X258803659Y-88175982D02*
X258851278Y-88080744D01*
X258851278Y-88080744D02*
X258946516Y-88033125D01*
X258946516Y-88033125D02*
X259184611Y-88033125D01*
X259184611Y-88033125D02*
X259279849Y-87985506D01*
X260184611Y-88366459D02*
X260089373Y-88414078D01*
X260089373Y-88414078D02*
X259898897Y-88414078D01*
X259898897Y-88414078D02*
X259803659Y-88366459D01*
X259803659Y-88366459D02*
X259756040Y-88318839D01*
X259756040Y-88318839D02*
X259708421Y-88223601D01*
X259708421Y-88223601D02*
X259708421Y-87937887D01*
X259708421Y-87937887D02*
X259756040Y-87842649D01*
X259756040Y-87842649D02*
X259803659Y-87795030D01*
X259803659Y-87795030D02*
X259898897Y-87747411D01*
X259898897Y-87747411D02*
X260089373Y-87747411D01*
X260089373Y-87747411D02*
X260184611Y-87795030D01*
X260613183Y-88414078D02*
X260613183Y-87414078D01*
X260708421Y-88033125D02*
X260994135Y-88414078D01*
X260994135Y-87747411D02*
X260613183Y-88128363D01*
X261327469Y-88795030D02*
X261375088Y-88747411D01*
X261375088Y-88747411D02*
X261470326Y-88604554D01*
X261470326Y-88604554D02*
X261517945Y-88509316D01*
X261517945Y-88509316D02*
X261565564Y-88366459D01*
X261565564Y-88366459D02*
X261613183Y-88128363D01*
X261613183Y-88128363D02*
X261613183Y-87937887D01*
X261613183Y-87937887D02*
X261565564Y-87699792D01*
X261565564Y-87699792D02*
X261517945Y-87556935D01*
X261517945Y-87556935D02*
X261470326Y-87461697D01*
X261470326Y-87461697D02*
X261375088Y-87318839D01*
X261375088Y-87318839D02*
X261327469Y-87271220D01*
X252729848Y-113819078D02*
X252729848Y-112819078D01*
X252729848Y-112819078D02*
X253110800Y-112819078D01*
X253110800Y-112819078D02*
X253206038Y-112866697D01*
X253206038Y-112866697D02*
X253253657Y-112914316D01*
X253253657Y-112914316D02*
X253301276Y-113009554D01*
X253301276Y-113009554D02*
X253301276Y-113152411D01*
X253301276Y-113152411D02*
X253253657Y-113247649D01*
X253253657Y-113247649D02*
X253206038Y-113295268D01*
X253206038Y-113295268D02*
X253110800Y-113342887D01*
X253110800Y-113342887D02*
X252729848Y-113342887D01*
X254253657Y-113819078D02*
X253682229Y-113819078D01*
X253967943Y-113819078D02*
X253967943Y-112819078D01*
X253967943Y-112819078D02*
X253872705Y-112961935D01*
X253872705Y-112961935D02*
X253777467Y-113057173D01*
X253777467Y-113057173D02*
X253682229Y-113104792D01*
X255110800Y-113152411D02*
X255110800Y-113819078D01*
X254872705Y-112771459D02*
X254634610Y-113485744D01*
X254634610Y-113485744D02*
X255253657Y-113485744D01*
X249716039Y-106199078D02*
X249716039Y-105199078D01*
X249716039Y-105199078D02*
X250096991Y-105199078D01*
X250096991Y-105199078D02*
X250192229Y-105246697D01*
X250192229Y-105246697D02*
X250239848Y-105294316D01*
X250239848Y-105294316D02*
X250287467Y-105389554D01*
X250287467Y-105389554D02*
X250287467Y-105532411D01*
X250287467Y-105532411D02*
X250239848Y-105627649D01*
X250239848Y-105627649D02*
X250192229Y-105675268D01*
X250192229Y-105675268D02*
X250096991Y-105722887D01*
X250096991Y-105722887D02*
X249716039Y-105722887D01*
X251144610Y-105532411D02*
X251144610Y-106199078D01*
X250906515Y-105151459D02*
X250668420Y-105865744D01*
X250668420Y-105865744D02*
X251287467Y-105865744D01*
X249716039Y-93499078D02*
X249716039Y-92499078D01*
X249716039Y-92499078D02*
X250096991Y-92499078D01*
X250096991Y-92499078D02*
X250192229Y-92546697D01*
X250192229Y-92546697D02*
X250239848Y-92594316D01*
X250239848Y-92594316D02*
X250287467Y-92689554D01*
X250287467Y-92689554D02*
X250287467Y-92832411D01*
X250287467Y-92832411D02*
X250239848Y-92927649D01*
X250239848Y-92927649D02*
X250192229Y-92975268D01*
X250192229Y-92975268D02*
X250096991Y-93022887D01*
X250096991Y-93022887D02*
X249716039Y-93022887D01*
X250906515Y-92499078D02*
X251001753Y-92499078D01*
X251001753Y-92499078D02*
X251096991Y-92546697D01*
X251096991Y-92546697D02*
X251144610Y-92594316D01*
X251144610Y-92594316D02*
X251192229Y-92689554D01*
X251192229Y-92689554D02*
X251239848Y-92880030D01*
X251239848Y-92880030D02*
X251239848Y-93118125D01*
X251239848Y-93118125D02*
X251192229Y-93308601D01*
X251192229Y-93308601D02*
X251144610Y-93403839D01*
X251144610Y-93403839D02*
X251096991Y-93451459D01*
X251096991Y-93451459D02*
X251001753Y-93499078D01*
X251001753Y-93499078D02*
X250906515Y-93499078D01*
X250906515Y-93499078D02*
X250811277Y-93451459D01*
X250811277Y-93451459D02*
X250763658Y-93403839D01*
X250763658Y-93403839D02*
X250716039Y-93308601D01*
X250716039Y-93308601D02*
X250668420Y-93118125D01*
X250668420Y-93118125D02*
X250668420Y-92880030D01*
X250668420Y-92880030D02*
X250716039Y-92689554D01*
X250716039Y-92689554D02*
X250763658Y-92594316D01*
X250763658Y-92594316D02*
X250811277Y-92546697D01*
X250811277Y-92546697D02*
X250906515Y-92499078D01*
X252729848Y-118899078D02*
X252729848Y-117899078D01*
X252729848Y-117899078D02*
X253110800Y-117899078D01*
X253110800Y-117899078D02*
X253206038Y-117946697D01*
X253206038Y-117946697D02*
X253253657Y-117994316D01*
X253253657Y-117994316D02*
X253301276Y-118089554D01*
X253301276Y-118089554D02*
X253301276Y-118232411D01*
X253301276Y-118232411D02*
X253253657Y-118327649D01*
X253253657Y-118327649D02*
X253206038Y-118375268D01*
X253206038Y-118375268D02*
X253110800Y-118422887D01*
X253110800Y-118422887D02*
X252729848Y-118422887D01*
X254253657Y-118899078D02*
X253682229Y-118899078D01*
X253967943Y-118899078D02*
X253967943Y-117899078D01*
X253967943Y-117899078D02*
X253872705Y-118041935D01*
X253872705Y-118041935D02*
X253777467Y-118137173D01*
X253777467Y-118137173D02*
X253682229Y-118184792D01*
X254872705Y-117899078D02*
X254967943Y-117899078D01*
X254967943Y-117899078D02*
X255063181Y-117946697D01*
X255063181Y-117946697D02*
X255110800Y-117994316D01*
X255110800Y-117994316D02*
X255158419Y-118089554D01*
X255158419Y-118089554D02*
X255206038Y-118280030D01*
X255206038Y-118280030D02*
X255206038Y-118518125D01*
X255206038Y-118518125D02*
X255158419Y-118708601D01*
X255158419Y-118708601D02*
X255110800Y-118803839D01*
X255110800Y-118803839D02*
X255063181Y-118851459D01*
X255063181Y-118851459D02*
X254967943Y-118899078D01*
X254967943Y-118899078D02*
X254872705Y-118899078D01*
X254872705Y-118899078D02*
X254777467Y-118851459D01*
X254777467Y-118851459D02*
X254729848Y-118803839D01*
X254729848Y-118803839D02*
X254682229Y-118708601D01*
X254682229Y-118708601D02*
X254634610Y-118518125D01*
X254634610Y-118518125D02*
X254634610Y-118280030D01*
X254634610Y-118280030D02*
X254682229Y-118089554D01*
X254682229Y-118089554D02*
X254729848Y-117994316D01*
X254729848Y-117994316D02*
X254777467Y-117946697D01*
X254777467Y-117946697D02*
X254872705Y-117899078D01*
X252729848Y-106199078D02*
X252729848Y-105199078D01*
X252729848Y-105199078D02*
X253110800Y-105199078D01*
X253110800Y-105199078D02*
X253206038Y-105246697D01*
X253206038Y-105246697D02*
X253253657Y-105294316D01*
X253253657Y-105294316D02*
X253301276Y-105389554D01*
X253301276Y-105389554D02*
X253301276Y-105532411D01*
X253301276Y-105532411D02*
X253253657Y-105627649D01*
X253253657Y-105627649D02*
X253206038Y-105675268D01*
X253206038Y-105675268D02*
X253110800Y-105722887D01*
X253110800Y-105722887D02*
X252729848Y-105722887D01*
X254253657Y-106199078D02*
X253682229Y-106199078D01*
X253967943Y-106199078D02*
X253967943Y-105199078D01*
X253967943Y-105199078D02*
X253872705Y-105341935D01*
X253872705Y-105341935D02*
X253777467Y-105437173D01*
X253777467Y-105437173D02*
X253682229Y-105484792D01*
X254729848Y-106199078D02*
X254920324Y-106199078D01*
X254920324Y-106199078D02*
X255015562Y-106151459D01*
X255015562Y-106151459D02*
X255063181Y-106103839D01*
X255063181Y-106103839D02*
X255158419Y-105960982D01*
X255158419Y-105960982D02*
X255206038Y-105770506D01*
X255206038Y-105770506D02*
X255206038Y-105389554D01*
X255206038Y-105389554D02*
X255158419Y-105294316D01*
X255158419Y-105294316D02*
X255110800Y-105246697D01*
X255110800Y-105246697D02*
X255015562Y-105199078D01*
X255015562Y-105199078D02*
X254825086Y-105199078D01*
X254825086Y-105199078D02*
X254729848Y-105246697D01*
X254729848Y-105246697D02*
X254682229Y-105294316D01*
X254682229Y-105294316D02*
X254634610Y-105389554D01*
X254634610Y-105389554D02*
X254634610Y-105627649D01*
X254634610Y-105627649D02*
X254682229Y-105722887D01*
X254682229Y-105722887D02*
X254729848Y-105770506D01*
X254729848Y-105770506D02*
X254825086Y-105818125D01*
X254825086Y-105818125D02*
X255015562Y-105818125D01*
X255015562Y-105818125D02*
X255110800Y-105770506D01*
X255110800Y-105770506D02*
X255158419Y-105722887D01*
X255158419Y-105722887D02*
X255206038Y-105627649D01*
X249716039Y-116359078D02*
X249716039Y-115359078D01*
X249716039Y-115359078D02*
X250096991Y-115359078D01*
X250096991Y-115359078D02*
X250192229Y-115406697D01*
X250192229Y-115406697D02*
X250239848Y-115454316D01*
X250239848Y-115454316D02*
X250287467Y-115549554D01*
X250287467Y-115549554D02*
X250287467Y-115692411D01*
X250287467Y-115692411D02*
X250239848Y-115787649D01*
X250239848Y-115787649D02*
X250192229Y-115835268D01*
X250192229Y-115835268D02*
X250096991Y-115882887D01*
X250096991Y-115882887D02*
X249716039Y-115882887D01*
X250858896Y-115787649D02*
X250763658Y-115740030D01*
X250763658Y-115740030D02*
X250716039Y-115692411D01*
X250716039Y-115692411D02*
X250668420Y-115597173D01*
X250668420Y-115597173D02*
X250668420Y-115549554D01*
X250668420Y-115549554D02*
X250716039Y-115454316D01*
X250716039Y-115454316D02*
X250763658Y-115406697D01*
X250763658Y-115406697D02*
X250858896Y-115359078D01*
X250858896Y-115359078D02*
X251049372Y-115359078D01*
X251049372Y-115359078D02*
X251144610Y-115406697D01*
X251144610Y-115406697D02*
X251192229Y-115454316D01*
X251192229Y-115454316D02*
X251239848Y-115549554D01*
X251239848Y-115549554D02*
X251239848Y-115597173D01*
X251239848Y-115597173D02*
X251192229Y-115692411D01*
X251192229Y-115692411D02*
X251144610Y-115740030D01*
X251144610Y-115740030D02*
X251049372Y-115787649D01*
X251049372Y-115787649D02*
X250858896Y-115787649D01*
X250858896Y-115787649D02*
X250763658Y-115835268D01*
X250763658Y-115835268D02*
X250716039Y-115882887D01*
X250716039Y-115882887D02*
X250668420Y-115978125D01*
X250668420Y-115978125D02*
X250668420Y-116168601D01*
X250668420Y-116168601D02*
X250716039Y-116263839D01*
X250716039Y-116263839D02*
X250763658Y-116311459D01*
X250763658Y-116311459D02*
X250858896Y-116359078D01*
X250858896Y-116359078D02*
X251049372Y-116359078D01*
X251049372Y-116359078D02*
X251144610Y-116311459D01*
X251144610Y-116311459D02*
X251192229Y-116263839D01*
X251192229Y-116263839D02*
X251239848Y-116168601D01*
X251239848Y-116168601D02*
X251239848Y-115978125D01*
X251239848Y-115978125D02*
X251192229Y-115882887D01*
X251192229Y-115882887D02*
X251144610Y-115835268D01*
X251144610Y-115835268D02*
X251049372Y-115787649D01*
X252729848Y-101119078D02*
X252729848Y-100119078D01*
X252729848Y-100119078D02*
X253110800Y-100119078D01*
X253110800Y-100119078D02*
X253206038Y-100166697D01*
X253206038Y-100166697D02*
X253253657Y-100214316D01*
X253253657Y-100214316D02*
X253301276Y-100309554D01*
X253301276Y-100309554D02*
X253301276Y-100452411D01*
X253301276Y-100452411D02*
X253253657Y-100547649D01*
X253253657Y-100547649D02*
X253206038Y-100595268D01*
X253206038Y-100595268D02*
X253110800Y-100642887D01*
X253110800Y-100642887D02*
X252729848Y-100642887D01*
X253682229Y-100214316D02*
X253729848Y-100166697D01*
X253729848Y-100166697D02*
X253825086Y-100119078D01*
X253825086Y-100119078D02*
X254063181Y-100119078D01*
X254063181Y-100119078D02*
X254158419Y-100166697D01*
X254158419Y-100166697D02*
X254206038Y-100214316D01*
X254206038Y-100214316D02*
X254253657Y-100309554D01*
X254253657Y-100309554D02*
X254253657Y-100404792D01*
X254253657Y-100404792D02*
X254206038Y-100547649D01*
X254206038Y-100547649D02*
X253634610Y-101119078D01*
X253634610Y-101119078D02*
X254253657Y-101119078D01*
X255206038Y-101119078D02*
X254634610Y-101119078D01*
X254920324Y-101119078D02*
X254920324Y-100119078D01*
X254920324Y-100119078D02*
X254825086Y-100261935D01*
X254825086Y-100261935D02*
X254729848Y-100357173D01*
X254729848Y-100357173D02*
X254634610Y-100404792D01*
X249716039Y-103659078D02*
X249716039Y-102659078D01*
X249716039Y-102659078D02*
X250096991Y-102659078D01*
X250096991Y-102659078D02*
X250192229Y-102706697D01*
X250192229Y-102706697D02*
X250239848Y-102754316D01*
X250239848Y-102754316D02*
X250287467Y-102849554D01*
X250287467Y-102849554D02*
X250287467Y-102992411D01*
X250287467Y-102992411D02*
X250239848Y-103087649D01*
X250239848Y-103087649D02*
X250192229Y-103135268D01*
X250192229Y-103135268D02*
X250096991Y-103182887D01*
X250096991Y-103182887D02*
X249716039Y-103182887D01*
X250620801Y-102659078D02*
X251239848Y-102659078D01*
X251239848Y-102659078D02*
X250906515Y-103040030D01*
X250906515Y-103040030D02*
X251049372Y-103040030D01*
X251049372Y-103040030D02*
X251144610Y-103087649D01*
X251144610Y-103087649D02*
X251192229Y-103135268D01*
X251192229Y-103135268D02*
X251239848Y-103230506D01*
X251239848Y-103230506D02*
X251239848Y-103468601D01*
X251239848Y-103468601D02*
X251192229Y-103563839D01*
X251192229Y-103563839D02*
X251144610Y-103611459D01*
X251144610Y-103611459D02*
X251049372Y-103659078D01*
X251049372Y-103659078D02*
X250763658Y-103659078D01*
X250763658Y-103659078D02*
X250668420Y-103611459D01*
X250668420Y-103611459D02*
X250620801Y-103563839D01*
X252729848Y-108739078D02*
X252729848Y-107739078D01*
X252729848Y-107739078D02*
X253110800Y-107739078D01*
X253110800Y-107739078D02*
X253206038Y-107786697D01*
X253206038Y-107786697D02*
X253253657Y-107834316D01*
X253253657Y-107834316D02*
X253301276Y-107929554D01*
X253301276Y-107929554D02*
X253301276Y-108072411D01*
X253301276Y-108072411D02*
X253253657Y-108167649D01*
X253253657Y-108167649D02*
X253206038Y-108215268D01*
X253206038Y-108215268D02*
X253110800Y-108262887D01*
X253110800Y-108262887D02*
X252729848Y-108262887D01*
X254253657Y-108739078D02*
X253682229Y-108739078D01*
X253967943Y-108739078D02*
X253967943Y-107739078D01*
X253967943Y-107739078D02*
X253872705Y-107881935D01*
X253872705Y-107881935D02*
X253777467Y-107977173D01*
X253777467Y-107977173D02*
X253682229Y-108024792D01*
X254825086Y-108167649D02*
X254729848Y-108120030D01*
X254729848Y-108120030D02*
X254682229Y-108072411D01*
X254682229Y-108072411D02*
X254634610Y-107977173D01*
X254634610Y-107977173D02*
X254634610Y-107929554D01*
X254634610Y-107929554D02*
X254682229Y-107834316D01*
X254682229Y-107834316D02*
X254729848Y-107786697D01*
X254729848Y-107786697D02*
X254825086Y-107739078D01*
X254825086Y-107739078D02*
X255015562Y-107739078D01*
X255015562Y-107739078D02*
X255110800Y-107786697D01*
X255110800Y-107786697D02*
X255158419Y-107834316D01*
X255158419Y-107834316D02*
X255206038Y-107929554D01*
X255206038Y-107929554D02*
X255206038Y-107977173D01*
X255206038Y-107977173D02*
X255158419Y-108072411D01*
X255158419Y-108072411D02*
X255110800Y-108120030D01*
X255110800Y-108120030D02*
X255015562Y-108167649D01*
X255015562Y-108167649D02*
X254825086Y-108167649D01*
X254825086Y-108167649D02*
X254729848Y-108215268D01*
X254729848Y-108215268D02*
X254682229Y-108262887D01*
X254682229Y-108262887D02*
X254634610Y-108358125D01*
X254634610Y-108358125D02*
X254634610Y-108548601D01*
X254634610Y-108548601D02*
X254682229Y-108643839D01*
X254682229Y-108643839D02*
X254729848Y-108691459D01*
X254729848Y-108691459D02*
X254825086Y-108739078D01*
X254825086Y-108739078D02*
X255015562Y-108739078D01*
X255015562Y-108739078D02*
X255110800Y-108691459D01*
X255110800Y-108691459D02*
X255158419Y-108643839D01*
X255158419Y-108643839D02*
X255206038Y-108548601D01*
X255206038Y-108548601D02*
X255206038Y-108358125D01*
X255206038Y-108358125D02*
X255158419Y-108262887D01*
X255158419Y-108262887D02*
X255110800Y-108215268D01*
X255110800Y-108215268D02*
X255015562Y-108167649D01*
X249716039Y-108739078D02*
X249716039Y-107739078D01*
X249716039Y-107739078D02*
X250096991Y-107739078D01*
X250096991Y-107739078D02*
X250192229Y-107786697D01*
X250192229Y-107786697D02*
X250239848Y-107834316D01*
X250239848Y-107834316D02*
X250287467Y-107929554D01*
X250287467Y-107929554D02*
X250287467Y-108072411D01*
X250287467Y-108072411D02*
X250239848Y-108167649D01*
X250239848Y-108167649D02*
X250192229Y-108215268D01*
X250192229Y-108215268D02*
X250096991Y-108262887D01*
X250096991Y-108262887D02*
X249716039Y-108262887D01*
X251192229Y-107739078D02*
X250716039Y-107739078D01*
X250716039Y-107739078D02*
X250668420Y-108215268D01*
X250668420Y-108215268D02*
X250716039Y-108167649D01*
X250716039Y-108167649D02*
X250811277Y-108120030D01*
X250811277Y-108120030D02*
X251049372Y-108120030D01*
X251049372Y-108120030D02*
X251144610Y-108167649D01*
X251144610Y-108167649D02*
X251192229Y-108215268D01*
X251192229Y-108215268D02*
X251239848Y-108310506D01*
X251239848Y-108310506D02*
X251239848Y-108548601D01*
X251239848Y-108548601D02*
X251192229Y-108643839D01*
X251192229Y-108643839D02*
X251144610Y-108691459D01*
X251144610Y-108691459D02*
X251049372Y-108739078D01*
X251049372Y-108739078D02*
X250811277Y-108739078D01*
X250811277Y-108739078D02*
X250716039Y-108691459D01*
X250716039Y-108691459D02*
X250668420Y-108643839D01*
X249716038Y-111279078D02*
X249716038Y-110279078D01*
X249716038Y-110279078D02*
X250096990Y-110279078D01*
X250096990Y-110279078D02*
X250192228Y-110326697D01*
X250192228Y-110326697D02*
X250239847Y-110374316D01*
X250239847Y-110374316D02*
X250287466Y-110469554D01*
X250287466Y-110469554D02*
X250287466Y-110612411D01*
X250287466Y-110612411D02*
X250239847Y-110707649D01*
X250239847Y-110707649D02*
X250192228Y-110755268D01*
X250192228Y-110755268D02*
X250096990Y-110802887D01*
X250096990Y-110802887D02*
X249716038Y-110802887D01*
X251144609Y-110279078D02*
X250954133Y-110279078D01*
X250954133Y-110279078D02*
X250858895Y-110326697D01*
X250858895Y-110326697D02*
X250811276Y-110374316D01*
X250811276Y-110374316D02*
X250716038Y-110517173D01*
X250716038Y-110517173D02*
X250668419Y-110707649D01*
X250668419Y-110707649D02*
X250668419Y-111088601D01*
X250668419Y-111088601D02*
X250716038Y-111183839D01*
X250716038Y-111183839D02*
X250763657Y-111231459D01*
X250763657Y-111231459D02*
X250858895Y-111279078D01*
X250858895Y-111279078D02*
X251049371Y-111279078D01*
X251049371Y-111279078D02*
X251144609Y-111231459D01*
X251144609Y-111231459D02*
X251192228Y-111183839D01*
X251192228Y-111183839D02*
X251239847Y-111088601D01*
X251239847Y-111088601D02*
X251239847Y-110850506D01*
X251239847Y-110850506D02*
X251192228Y-110755268D01*
X251192228Y-110755268D02*
X251144609Y-110707649D01*
X251144609Y-110707649D02*
X251049371Y-110660030D01*
X251049371Y-110660030D02*
X250858895Y-110660030D01*
X250858895Y-110660030D02*
X250763657Y-110707649D01*
X250763657Y-110707649D02*
X250716038Y-110755268D01*
X250716038Y-110755268D02*
X250668419Y-110850506D01*
X252729848Y-116359078D02*
X252729848Y-115359078D01*
X252729848Y-115359078D02*
X253110800Y-115359078D01*
X253110800Y-115359078D02*
X253206038Y-115406697D01*
X253206038Y-115406697D02*
X253253657Y-115454316D01*
X253253657Y-115454316D02*
X253301276Y-115549554D01*
X253301276Y-115549554D02*
X253301276Y-115692411D01*
X253301276Y-115692411D02*
X253253657Y-115787649D01*
X253253657Y-115787649D02*
X253206038Y-115835268D01*
X253206038Y-115835268D02*
X253110800Y-115882887D01*
X253110800Y-115882887D02*
X252729848Y-115882887D01*
X254253657Y-116359078D02*
X253682229Y-116359078D01*
X253967943Y-116359078D02*
X253967943Y-115359078D01*
X253967943Y-115359078D02*
X253872705Y-115501935D01*
X253872705Y-115501935D02*
X253777467Y-115597173D01*
X253777467Y-115597173D02*
X253682229Y-115644792D01*
X255110800Y-115359078D02*
X254920324Y-115359078D01*
X254920324Y-115359078D02*
X254825086Y-115406697D01*
X254825086Y-115406697D02*
X254777467Y-115454316D01*
X254777467Y-115454316D02*
X254682229Y-115597173D01*
X254682229Y-115597173D02*
X254634610Y-115787649D01*
X254634610Y-115787649D02*
X254634610Y-116168601D01*
X254634610Y-116168601D02*
X254682229Y-116263839D01*
X254682229Y-116263839D02*
X254729848Y-116311459D01*
X254729848Y-116311459D02*
X254825086Y-116359078D01*
X254825086Y-116359078D02*
X255015562Y-116359078D01*
X255015562Y-116359078D02*
X255110800Y-116311459D01*
X255110800Y-116311459D02*
X255158419Y-116263839D01*
X255158419Y-116263839D02*
X255206038Y-116168601D01*
X255206038Y-116168601D02*
X255206038Y-115930506D01*
X255206038Y-115930506D02*
X255158419Y-115835268D01*
X255158419Y-115835268D02*
X255110800Y-115787649D01*
X255110800Y-115787649D02*
X255015562Y-115740030D01*
X255015562Y-115740030D02*
X254825086Y-115740030D01*
X254825086Y-115740030D02*
X254729848Y-115787649D01*
X254729848Y-115787649D02*
X254682229Y-115835268D01*
X254682229Y-115835268D02*
X254634610Y-115930506D01*
X249716040Y-118899078D02*
X249716040Y-117899078D01*
X249716040Y-117899078D02*
X250096992Y-117899078D01*
X250096992Y-117899078D02*
X250192230Y-117946697D01*
X250192230Y-117946697D02*
X250239849Y-117994316D01*
X250239849Y-117994316D02*
X250287468Y-118089554D01*
X250287468Y-118089554D02*
X250287468Y-118232411D01*
X250287468Y-118232411D02*
X250239849Y-118327649D01*
X250239849Y-118327649D02*
X250192230Y-118375268D01*
X250192230Y-118375268D02*
X250096992Y-118422887D01*
X250096992Y-118422887D02*
X249716040Y-118422887D01*
X250763659Y-118899078D02*
X250954135Y-118899078D01*
X250954135Y-118899078D02*
X251049373Y-118851459D01*
X251049373Y-118851459D02*
X251096992Y-118803839D01*
X251096992Y-118803839D02*
X251192230Y-118660982D01*
X251192230Y-118660982D02*
X251239849Y-118470506D01*
X251239849Y-118470506D02*
X251239849Y-118089554D01*
X251239849Y-118089554D02*
X251192230Y-117994316D01*
X251192230Y-117994316D02*
X251144611Y-117946697D01*
X251144611Y-117946697D02*
X251049373Y-117899078D01*
X251049373Y-117899078D02*
X250858897Y-117899078D01*
X250858897Y-117899078D02*
X250763659Y-117946697D01*
X250763659Y-117946697D02*
X250716040Y-117994316D01*
X250716040Y-117994316D02*
X250668421Y-118089554D01*
X250668421Y-118089554D02*
X250668421Y-118327649D01*
X250668421Y-118327649D02*
X250716040Y-118422887D01*
X250716040Y-118422887D02*
X250763659Y-118470506D01*
X250763659Y-118470506D02*
X250858897Y-118518125D01*
X250858897Y-118518125D02*
X251049373Y-118518125D01*
X251049373Y-118518125D02*
X251144611Y-118470506D01*
X251144611Y-118470506D02*
X251192230Y-118422887D01*
X251192230Y-118422887D02*
X251239849Y-118327649D01*
X250678952Y-131360588D02*
X251678952Y-131027255D01*
X251678952Y-131027255D02*
X250678952Y-130693922D01*
X251583713Y-129789160D02*
X251631333Y-129836779D01*
X251631333Y-129836779D02*
X251678952Y-129979636D01*
X251678952Y-129979636D02*
X251678952Y-130074874D01*
X251678952Y-130074874D02*
X251631333Y-130217731D01*
X251631333Y-130217731D02*
X251536094Y-130312969D01*
X251536094Y-130312969D02*
X251440856Y-130360588D01*
X251440856Y-130360588D02*
X251250380Y-130408207D01*
X251250380Y-130408207D02*
X251107523Y-130408207D01*
X251107523Y-130408207D02*
X250917047Y-130360588D01*
X250917047Y-130360588D02*
X250821809Y-130312969D01*
X250821809Y-130312969D02*
X250726571Y-130217731D01*
X250726571Y-130217731D02*
X250678952Y-130074874D01*
X250678952Y-130074874D02*
X250678952Y-129979636D01*
X250678952Y-129979636D02*
X250726571Y-129836779D01*
X250726571Y-129836779D02*
X250774190Y-129789160D01*
X251583713Y-128789160D02*
X251631333Y-128836779D01*
X251631333Y-128836779D02*
X251678952Y-128979636D01*
X251678952Y-128979636D02*
X251678952Y-129074874D01*
X251678952Y-129074874D02*
X251631333Y-129217731D01*
X251631333Y-129217731D02*
X251536094Y-129312969D01*
X251536094Y-129312969D02*
X251440856Y-129360588D01*
X251440856Y-129360588D02*
X251250380Y-129408207D01*
X251250380Y-129408207D02*
X251107523Y-129408207D01*
X251107523Y-129408207D02*
X250917047Y-129360588D01*
X250917047Y-129360588D02*
X250821809Y-129312969D01*
X250821809Y-129312969D02*
X250726571Y-129217731D01*
X250726571Y-129217731D02*
X250678952Y-129074874D01*
X250678952Y-129074874D02*
X250678952Y-128979636D01*
X250678952Y-128979636D02*
X250726571Y-128836779D01*
X250726571Y-128836779D02*
X250774190Y-128789160D01*
X254332200Y-131245112D02*
X254379819Y-131102255D01*
X254379819Y-131102255D02*
X254379819Y-130864160D01*
X254379819Y-130864160D02*
X254332200Y-130768922D01*
X254332200Y-130768922D02*
X254284580Y-130721303D01*
X254284580Y-130721303D02*
X254189342Y-130673684D01*
X254189342Y-130673684D02*
X254094104Y-130673684D01*
X254094104Y-130673684D02*
X253998866Y-130721303D01*
X253998866Y-130721303D02*
X253951247Y-130768922D01*
X253951247Y-130768922D02*
X253903628Y-130864160D01*
X253903628Y-130864160D02*
X253856009Y-131054636D01*
X253856009Y-131054636D02*
X253808390Y-131149874D01*
X253808390Y-131149874D02*
X253760771Y-131197493D01*
X253760771Y-131197493D02*
X253665533Y-131245112D01*
X253665533Y-131245112D02*
X253570295Y-131245112D01*
X253570295Y-131245112D02*
X253475057Y-131197493D01*
X253475057Y-131197493D02*
X253427438Y-131149874D01*
X253427438Y-131149874D02*
X253379819Y-131054636D01*
X253379819Y-131054636D02*
X253379819Y-130816541D01*
X253379819Y-130816541D02*
X253427438Y-130673684D01*
X254284580Y-129673684D02*
X254332200Y-129721303D01*
X254332200Y-129721303D02*
X254379819Y-129864160D01*
X254379819Y-129864160D02*
X254379819Y-129959398D01*
X254379819Y-129959398D02*
X254332200Y-130102255D01*
X254332200Y-130102255D02*
X254236961Y-130197493D01*
X254236961Y-130197493D02*
X254141723Y-130245112D01*
X254141723Y-130245112D02*
X253951247Y-130292731D01*
X253951247Y-130292731D02*
X253808390Y-130292731D01*
X253808390Y-130292731D02*
X253617914Y-130245112D01*
X253617914Y-130245112D02*
X253522676Y-130197493D01*
X253522676Y-130197493D02*
X253427438Y-130102255D01*
X253427438Y-130102255D02*
X253379819Y-129959398D01*
X253379819Y-129959398D02*
X253379819Y-129864160D01*
X253379819Y-129864160D02*
X253427438Y-129721303D01*
X253427438Y-129721303D02*
X253475057Y-129673684D01*
X254379819Y-128768922D02*
X254379819Y-129245112D01*
X254379819Y-129245112D02*
X253379819Y-129245112D01*
X248186571Y-127828657D02*
X248138952Y-127923895D01*
X248138952Y-127923895D02*
X248138952Y-128066752D01*
X248138952Y-128066752D02*
X248186571Y-128209609D01*
X248186571Y-128209609D02*
X248281809Y-128304847D01*
X248281809Y-128304847D02*
X248377047Y-128352466D01*
X248377047Y-128352466D02*
X248567523Y-128400085D01*
X248567523Y-128400085D02*
X248710380Y-128400085D01*
X248710380Y-128400085D02*
X248900856Y-128352466D01*
X248900856Y-128352466D02*
X248996094Y-128304847D01*
X248996094Y-128304847D02*
X249091333Y-128209609D01*
X249091333Y-128209609D02*
X249138952Y-128066752D01*
X249138952Y-128066752D02*
X249138952Y-127971514D01*
X249138952Y-127971514D02*
X249091333Y-127828657D01*
X249091333Y-127828657D02*
X249043713Y-127781038D01*
X249043713Y-127781038D02*
X248710380Y-127781038D01*
X248710380Y-127781038D02*
X248710380Y-127971514D01*
X249138952Y-127352466D02*
X248138952Y-127352466D01*
X248138952Y-127352466D02*
X249138952Y-126781038D01*
X249138952Y-126781038D02*
X248138952Y-126781038D01*
X249138952Y-126304847D02*
X248138952Y-126304847D01*
X248138952Y-126304847D02*
X248138952Y-126066752D01*
X248138952Y-126066752D02*
X248186571Y-125923895D01*
X248186571Y-125923895D02*
X248281809Y-125828657D01*
X248281809Y-125828657D02*
X248377047Y-125781038D01*
X248377047Y-125781038D02*
X248567523Y-125733419D01*
X248567523Y-125733419D02*
X248710380Y-125733419D01*
X248710380Y-125733419D02*
X248900856Y-125781038D01*
X248900856Y-125781038D02*
X248996094Y-125828657D01*
X248996094Y-125828657D02*
X249091333Y-125923895D01*
X249091333Y-125923895D02*
X249138952Y-126066752D01*
X249138952Y-126066752D02*
X249138952Y-126304847D01*
X256711333Y-128161990D02*
X256758952Y-128019133D01*
X256758952Y-128019133D02*
X256758952Y-127781038D01*
X256758952Y-127781038D02*
X256711333Y-127685800D01*
X256711333Y-127685800D02*
X256663713Y-127638181D01*
X256663713Y-127638181D02*
X256568475Y-127590562D01*
X256568475Y-127590562D02*
X256473237Y-127590562D01*
X256473237Y-127590562D02*
X256377999Y-127638181D01*
X256377999Y-127638181D02*
X256330380Y-127685800D01*
X256330380Y-127685800D02*
X256282761Y-127781038D01*
X256282761Y-127781038D02*
X256235142Y-127971514D01*
X256235142Y-127971514D02*
X256187523Y-128066752D01*
X256187523Y-128066752D02*
X256139904Y-128114371D01*
X256139904Y-128114371D02*
X256044666Y-128161990D01*
X256044666Y-128161990D02*
X255949428Y-128161990D01*
X255949428Y-128161990D02*
X255854190Y-128114371D01*
X255854190Y-128114371D02*
X255806571Y-128066752D01*
X255806571Y-128066752D02*
X255758952Y-127971514D01*
X255758952Y-127971514D02*
X255758952Y-127733419D01*
X255758952Y-127733419D02*
X255806571Y-127590562D01*
X256758952Y-127161990D02*
X255758952Y-127161990D01*
X255758952Y-127161990D02*
X255758952Y-126923895D01*
X255758952Y-126923895D02*
X255806571Y-126781038D01*
X255806571Y-126781038D02*
X255901809Y-126685800D01*
X255901809Y-126685800D02*
X255997047Y-126638181D01*
X255997047Y-126638181D02*
X256187523Y-126590562D01*
X256187523Y-126590562D02*
X256330380Y-126590562D01*
X256330380Y-126590562D02*
X256520856Y-126638181D01*
X256520856Y-126638181D02*
X256616094Y-126685800D01*
X256616094Y-126685800D02*
X256711333Y-126781038D01*
X256711333Y-126781038D02*
X256758952Y-126923895D01*
X256758952Y-126923895D02*
X256758952Y-127161990D01*
X256473237Y-126209609D02*
X256473237Y-125733419D01*
X256758952Y-126304847D02*
X255758952Y-125971514D01*
X255758952Y-125971514D02*
X256758952Y-125638181D01*
X261292619Y-120054819D02*
X261483095Y-120054819D01*
X261483095Y-120054819D02*
X261578333Y-120102438D01*
X261578333Y-120102438D02*
X261673571Y-120197676D01*
X261673571Y-120197676D02*
X261721190Y-120388152D01*
X261721190Y-120388152D02*
X261721190Y-120721485D01*
X261721190Y-120721485D02*
X261673571Y-120911961D01*
X261673571Y-120911961D02*
X261578333Y-121007200D01*
X261578333Y-121007200D02*
X261483095Y-121054819D01*
X261483095Y-121054819D02*
X261292619Y-121054819D01*
X261292619Y-121054819D02*
X261197381Y-121007200D01*
X261197381Y-121007200D02*
X261102143Y-120911961D01*
X261102143Y-120911961D02*
X261054524Y-120721485D01*
X261054524Y-120721485D02*
X261054524Y-120388152D01*
X261054524Y-120388152D02*
X261102143Y-120197676D01*
X261102143Y-120197676D02*
X261197381Y-120102438D01*
X261197381Y-120102438D02*
X261292619Y-120054819D01*
X262483095Y-120531009D02*
X262149762Y-120531009D01*
X262149762Y-121054819D02*
X262149762Y-120054819D01*
X262149762Y-120054819D02*
X262625952Y-120054819D01*
X263340238Y-120531009D02*
X263006905Y-120531009D01*
X263006905Y-121054819D02*
X263006905Y-120054819D01*
X263006905Y-120054819D02*
X263483095Y-120054819D01*
X261625952Y-130054819D02*
X261816428Y-130054819D01*
X261816428Y-130054819D02*
X261911666Y-130102438D01*
X261911666Y-130102438D02*
X262006904Y-130197676D01*
X262006904Y-130197676D02*
X262054523Y-130388152D01*
X262054523Y-130388152D02*
X262054523Y-130721485D01*
X262054523Y-130721485D02*
X262006904Y-130911961D01*
X262006904Y-130911961D02*
X261911666Y-131007200D01*
X261911666Y-131007200D02*
X261816428Y-131054819D01*
X261816428Y-131054819D02*
X261625952Y-131054819D01*
X261625952Y-131054819D02*
X261530714Y-131007200D01*
X261530714Y-131007200D02*
X261435476Y-130911961D01*
X261435476Y-130911961D02*
X261387857Y-130721485D01*
X261387857Y-130721485D02*
X261387857Y-130388152D01*
X261387857Y-130388152D02*
X261435476Y-130197676D01*
X261435476Y-130197676D02*
X261530714Y-130102438D01*
X261530714Y-130102438D02*
X261625952Y-130054819D01*
X262483095Y-131054819D02*
X262483095Y-130054819D01*
X262483095Y-130054819D02*
X263054523Y-131054819D01*
X263054523Y-131054819D02*
X263054523Y-130054819D01*
D11*
%TO.C,D10*%
X169844133Y-125969259D02*
X170444133Y-126369259D01*
X169844133Y-126369259D02*
X169344133Y-126369259D01*
X169844133Y-126769259D02*
X169844133Y-125969259D01*
X170444133Y-126369259D02*
X169844133Y-126769259D01*
X170444133Y-126369259D02*
X170444133Y-125819259D01*
X170444133Y-126369259D02*
X170444133Y-126919260D01*
X170844133Y-126369259D02*
X170444133Y-126369259D01*
%TO.C,D6*%
X151844133Y-130719259D02*
X152444133Y-131119259D01*
X151844133Y-131119259D02*
X151344133Y-131119259D01*
X151844133Y-131519259D02*
X151844133Y-130719259D01*
X152444133Y-131119259D02*
X151844133Y-131519259D01*
X152444133Y-131119259D02*
X152444133Y-130569259D01*
X152444133Y-131119259D02*
X152444133Y-131669260D01*
X152844133Y-131119259D02*
X152444133Y-131119259D01*
%TO.C,D9*%
X169844134Y-142969259D02*
X170444134Y-143369259D01*
X169844134Y-143369259D02*
X169344134Y-143369259D01*
X169844134Y-143769259D02*
X169844134Y-142969259D01*
X170444134Y-143369259D02*
X169844134Y-143769259D01*
X170444134Y-143369259D02*
X170444134Y-142819259D01*
X170444134Y-143369259D02*
X170444134Y-143919260D01*
X170844134Y-143369259D02*
X170444134Y-143369259D01*
%TO.C,D3*%
X133844133Y-113719260D02*
X134444133Y-114119260D01*
X133844133Y-114119260D02*
X133344133Y-114119260D01*
X133844133Y-114519260D02*
X133844133Y-113719260D01*
X134444133Y-114119260D02*
X133844133Y-114519260D01*
X134444133Y-114119260D02*
X134444133Y-113569260D01*
X134444133Y-114119260D02*
X134444133Y-114669261D01*
X134844133Y-114119260D02*
X134444133Y-114119260D01*
%TO.C,D14*%
X187844133Y-106594260D02*
X188444133Y-106994260D01*
X187844133Y-106994260D02*
X187344133Y-106994260D01*
X187844133Y-107394260D02*
X187844133Y-106594260D01*
X188444133Y-106994260D02*
X187844133Y-107394260D01*
X188444133Y-106994260D02*
X188444133Y-106444260D01*
X188444133Y-106994260D02*
X188444133Y-107544261D01*
X188844133Y-106994260D02*
X188444133Y-106994260D01*
%TO.C,D20*%
X223844133Y-111344260D02*
X224444133Y-111744260D01*
X223844133Y-111744260D02*
X223344133Y-111744260D01*
X223844133Y-112144260D02*
X223844133Y-111344260D01*
X224444133Y-111744260D02*
X223844133Y-112144260D01*
X224444133Y-111744260D02*
X224444133Y-111194260D01*
X224444133Y-111744260D02*
X224444133Y-112294261D01*
X224844133Y-111744260D02*
X224444133Y-111744260D01*
%TO.C,D11*%
X169844133Y-108969259D02*
X170444133Y-109369259D01*
X169844133Y-109369259D02*
X169344133Y-109369259D01*
X169844133Y-109769259D02*
X169844133Y-108969259D01*
X170444133Y-109369259D02*
X169844133Y-109769259D01*
X170444133Y-109369259D02*
X170444133Y-108819259D01*
X170444133Y-109369259D02*
X170444133Y-109919260D01*
X170844133Y-109369259D02*
X170444133Y-109369259D01*
%TO.C,RST1*%
X260250000Y-132894260D02*
X260250000Y-132644260D01*
X260250000Y-137094260D02*
X260250000Y-137344260D01*
X260500000Y-132644260D02*
X260250000Y-132644260D01*
X260500000Y-137344260D02*
X260250000Y-137344260D01*
X263500000Y-132644260D02*
X263750000Y-132644260D01*
X263500000Y-137344260D02*
X263750000Y-137344260D01*
X263750000Y-132894260D02*
X263750000Y-132644260D01*
X263750000Y-137094260D02*
X263750000Y-137344260D01*
D12*
%TO.C,MCU1*%
X243544134Y-89174259D02*
X243544134Y-119774259D01*
X243544134Y-89174259D02*
X246204134Y-89174258D01*
X243544134Y-119774259D02*
X246204134Y-119774259D01*
X246204134Y-89174258D02*
X246204134Y-119774259D01*
X246204134Y-91774259D02*
X243544134Y-91774259D01*
X258784134Y-89174259D02*
X258784134Y-119774259D01*
X258784134Y-89174259D02*
X261444134Y-89174259D01*
X258784134Y-119774259D02*
X261444134Y-119774259D01*
X261444134Y-89174259D02*
X261444134Y-119774259D01*
D11*
%TO.C,D22*%
X199844134Y-148594260D02*
X200444134Y-148994260D01*
X199844134Y-148994260D02*
X199344134Y-148994260D01*
X199844134Y-149394260D02*
X199844134Y-148594260D01*
X200444134Y-148994260D02*
X199844134Y-149394260D01*
X200444134Y-148994260D02*
X200444134Y-148444260D01*
X200444134Y-148994260D02*
X200444134Y-149544261D01*
X200844134Y-148994260D02*
X200444134Y-148994260D01*
%TO.C,D19*%
X223844133Y-128344260D02*
X224444133Y-128744260D01*
X223844133Y-128744260D02*
X223344133Y-128744260D01*
X223844133Y-129144260D02*
X223844133Y-128344260D01*
X224444133Y-128744260D02*
X223844133Y-129144260D01*
X224444133Y-128744260D02*
X224444133Y-128194260D01*
X224444133Y-128744260D02*
X224444133Y-129294261D01*
X224844133Y-128744260D02*
X224444133Y-128744260D01*
D12*
%TO.C,DISP1*%
X247354133Y-122314259D02*
X247354133Y-124974260D01*
X257634133Y-122314259D02*
X247354133Y-122314259D01*
X257634133Y-122314259D02*
X257634133Y-124974259D01*
X257634133Y-124974259D02*
X247354133Y-124974260D01*
D11*
%TO.C,D12*%
X169844133Y-91969259D02*
X170444133Y-92369259D01*
X169844133Y-92369259D02*
X169344133Y-92369259D01*
X169844133Y-92769259D02*
X169844133Y-91969259D01*
X170444133Y-92369259D02*
X169844133Y-92769259D01*
X170444133Y-92369259D02*
X170444133Y-91819259D01*
X170444133Y-92369259D02*
X170444133Y-92919260D01*
X170844133Y-92369259D02*
X170444133Y-92369259D01*
%TO.C,D7*%
X151844134Y-113719260D02*
X152444134Y-114119260D01*
X151844134Y-114119260D02*
X151344134Y-114119260D01*
X151844134Y-114519260D02*
X151844134Y-113719260D01*
X152444134Y-114119260D02*
X151844134Y-114519260D01*
X152444134Y-114119260D02*
X152444134Y-113569260D01*
X152444134Y-114119260D02*
X152444134Y-114669261D01*
X152844134Y-114119260D02*
X152444134Y-114119260D01*
%TO.C,D25*%
X247750000Y-136500000D02*
X248150000Y-136500000D01*
X248150000Y-136500000D02*
X248150000Y-135949999D01*
X248150000Y-136500000D02*
X248150000Y-137050000D01*
X248150000Y-136500000D02*
X248750000Y-136100000D01*
X248750000Y-136100000D02*
X248750000Y-136900000D01*
X248750000Y-136500000D02*
X249250000Y-136500000D01*
X248750000Y-136900000D02*
X248150000Y-136500000D01*
%TO.C,D1*%
X133844133Y-147719260D02*
X134444133Y-148119260D01*
X133844133Y-148119260D02*
X133344133Y-148119260D01*
X133844133Y-148519260D02*
X133844133Y-147719260D01*
X134444133Y-148119260D02*
X133844133Y-148519260D01*
X134444133Y-148119260D02*
X134444133Y-147569260D01*
X134444133Y-148119260D02*
X134444133Y-148669261D01*
X134844133Y-148119260D02*
X134444133Y-148119260D01*
D12*
%TO.C,PWR1*%
X260820000Y-124200000D02*
X260820000Y-124000000D01*
X260820000Y-127200000D02*
X260820000Y-125500000D01*
X261870001Y-129050000D02*
X262660000Y-129050000D01*
X262660000Y-122150000D02*
X261870000Y-122150000D01*
X263670001Y-128450000D02*
X263670000Y-122750000D01*
D11*
%TO.C,D24*%
X241381620Y-165503279D02*
X242028030Y-165183664D01*
X241728030Y-165703279D02*
X241478030Y-166136292D01*
X242028030Y-165183664D02*
X241551716Y-164908664D01*
X242028030Y-165183664D02*
X242074440Y-165903279D01*
X242028030Y-165183664D02*
X242504344Y-165458664D01*
X242074440Y-165903279D02*
X241381620Y-165503279D01*
X242228030Y-164837254D02*
X242028030Y-165183664D01*
%TO.C,D21*%
X223844133Y-94344260D02*
X224444133Y-94744260D01*
X223844133Y-94744260D02*
X223344133Y-94744260D01*
X223844133Y-95144260D02*
X223844133Y-94344260D01*
X224444133Y-94744260D02*
X223844133Y-95144260D01*
X224444133Y-94744260D02*
X224444133Y-94194260D01*
X224444133Y-94744260D02*
X224444133Y-95294261D01*
X224844133Y-94744260D02*
X224444133Y-94744260D01*
%TO.C,D18*%
X205844133Y-91969260D02*
X206444133Y-92369260D01*
X205844133Y-92369260D02*
X205344133Y-92369260D01*
X205844133Y-92769260D02*
X205844133Y-91969260D01*
X206444133Y-92369260D02*
X205844133Y-92769260D01*
X206444133Y-92369260D02*
X206444133Y-91819260D01*
X206444133Y-92369260D02*
X206444133Y-92919261D01*
X206844133Y-92369260D02*
X206444133Y-92369260D01*
%TO.C,D16*%
X205844134Y-125969260D02*
X206444134Y-126369260D01*
X205844134Y-126369260D02*
X205344134Y-126369260D01*
X205844134Y-126769260D02*
X205844134Y-125969260D01*
X206444134Y-126369260D02*
X205844134Y-126769260D01*
X206444134Y-126369260D02*
X206444134Y-125819260D01*
X206444134Y-126369260D02*
X206444134Y-126919261D01*
X206844134Y-126369260D02*
X206444134Y-126369260D01*
%TO.C,JST1*%
X236994133Y-125444259D02*
X236994134Y-124444259D01*
X236994134Y-122444259D02*
X236994134Y-123444259D01*
X237494134Y-124944259D02*
X236494134Y-124944259D01*
D12*
X238034134Y-120884259D02*
X239034134Y-120884259D01*
X238034134Y-121804259D02*
X238034134Y-120884259D01*
X238034134Y-127004259D02*
X239034134Y-127004259D01*
X238034135Y-126084259D02*
X238034134Y-127004259D01*
X245854134Y-120884259D02*
X244854134Y-120884259D01*
X245854134Y-121884259D02*
X245854134Y-120884259D01*
X245854134Y-126084258D02*
X245854134Y-127004259D01*
X245854134Y-127004259D02*
X244854134Y-127004259D01*
D11*
%TO.C,D15*%
X187844133Y-89594260D02*
X188444133Y-89994260D01*
X187844133Y-89994260D02*
X187344133Y-89994260D01*
X187844133Y-90394260D02*
X187844133Y-89594260D01*
X188444133Y-89994260D02*
X187844133Y-90394260D01*
X188444133Y-89994260D02*
X188444133Y-89444260D01*
X188444133Y-89994260D02*
X188444133Y-90544261D01*
X188844133Y-89994260D02*
X188444133Y-89994260D01*
%TO.C,D23*%
X221437134Y-150789979D02*
X221644189Y-150017238D01*
X221540662Y-150403608D02*
X221057699Y-150274199D01*
X221644189Y-150017238D02*
X222120217Y-150558900D01*
X222120217Y-150558900D02*
X221437134Y-150789979D01*
X222120217Y-150558900D02*
X221977867Y-151090159D01*
X222120217Y-150558900D02*
X222262568Y-150027639D01*
X222506587Y-150662427D02*
X222120217Y-150558900D01*
%TO.C,D4*%
X133844133Y-96719260D02*
X134444133Y-97119260D01*
X133844133Y-97119260D02*
X133344133Y-97119260D01*
X133844133Y-97519260D02*
X133844133Y-96719260D01*
X134444133Y-97119260D02*
X133844133Y-97519260D01*
X134444133Y-97119260D02*
X134444133Y-96569260D01*
X134444133Y-97119260D02*
X134444133Y-97669261D01*
X134844133Y-97119260D02*
X134444133Y-97119260D01*
%TO.C,D2*%
X133844134Y-130719260D02*
X134444134Y-131119260D01*
X133844134Y-131119260D02*
X133344134Y-131119260D01*
X133844134Y-131519260D02*
X133844134Y-130719260D01*
X134444134Y-131119260D02*
X133844134Y-131519260D01*
X134444134Y-131119260D02*
X134444134Y-130569260D01*
X134444134Y-131119260D02*
X134444134Y-131669261D01*
X134844134Y-131119260D02*
X134444134Y-131119260D01*
%TO.C,D17*%
X205844133Y-108969260D02*
X206444133Y-109369260D01*
X205844133Y-109369260D02*
X205344133Y-109369260D01*
X205844133Y-109769260D02*
X205844133Y-108969260D01*
X206444133Y-109369260D02*
X205844133Y-109769260D01*
X206444133Y-109369260D02*
X206444133Y-108819260D01*
X206444133Y-109369260D02*
X206444133Y-109919261D01*
X206844133Y-109369260D02*
X206444133Y-109369260D01*
%TO.C,D13*%
X187844133Y-123594259D02*
X188444133Y-123994259D01*
X187844133Y-123994259D02*
X187344133Y-123994259D01*
X187844133Y-124394259D02*
X187844133Y-123594259D01*
X188444133Y-123994259D02*
X187844133Y-124394259D01*
X188444133Y-123994259D02*
X188444133Y-123444259D01*
X188444133Y-123994259D02*
X188444133Y-124544260D01*
X188844133Y-123994259D02*
X188444133Y-123994259D01*
%TO.C,D8*%
X151844133Y-96719260D02*
X152444133Y-97119260D01*
X151844133Y-97119260D02*
X151344133Y-97119260D01*
X151844133Y-97519260D02*
X151844133Y-96719260D01*
X152444133Y-97119260D02*
X151844133Y-97519260D01*
X152444133Y-97119260D02*
X152444133Y-96569260D01*
X152444133Y-97119260D02*
X152444133Y-97669261D01*
X152844133Y-97119260D02*
X152444133Y-97119260D01*
%TO.C,D5*%
X151844133Y-147719259D02*
X152444133Y-148119259D01*
X151844133Y-148119259D02*
X151344133Y-148119259D01*
X151844133Y-148519259D02*
X151844133Y-147719259D01*
X152444133Y-148119259D02*
X151844133Y-148519259D01*
X152444133Y-148119259D02*
X152444133Y-147569259D01*
X152444133Y-148119259D02*
X152444133Y-148669260D01*
X152844133Y-148119259D02*
X152444133Y-148119259D01*
D12*
%TO.C,LED5*%
X153294133Y-145119259D02*
X153294133Y-146719259D01*
X153294133Y-146719259D02*
X154894133Y-146719259D01*
D10*
%TO.C,S23*%
X222169376Y-160614250D02*
X222522929Y-161226622D01*
X222522929Y-161226622D02*
X225420707Y-162003079D01*
X223075242Y-157233509D02*
X223687615Y-156879956D01*
X223687615Y-156879956D02*
X225909244Y-157475240D01*
X225420707Y-162003079D02*
X226033079Y-161649526D01*
X226271193Y-160760874D02*
X226033079Y-161649526D01*
X227939547Y-156466342D02*
X228120720Y-155790195D01*
X228120720Y-155790195D02*
X232467386Y-156954881D01*
X231250937Y-161494731D02*
X226923589Y-160335223D01*
X231406228Y-160915177D02*
X231250937Y-161494731D01*
X232467386Y-156954881D02*
X232337977Y-157437844D01*
X226271193Y-160760874D02*
G75*
G02*
X226923589Y-160335224I539020J-113368D01*
G01*
X227934370Y-156485662D02*
G75*
G02*
X225909244Y-157475239I-1507351J517773D01*
G01*
%TO.C,S5*%
X155094133Y-154319259D02*
X155594133Y-153819259D01*
X155094133Y-157819259D02*
X155594133Y-158319259D01*
X155594133Y-153819259D02*
X157894133Y-153819259D01*
X155594133Y-158319259D02*
X158594133Y-158319259D01*
X158594133Y-158319259D02*
X159094133Y-157819259D01*
X159094133Y-156899259D02*
X159094133Y-157819259D01*
X159594133Y-151619259D02*
X164094133Y-151619258D01*
X159594133Y-152319259D02*
X159594133Y-151619259D01*
X164094133Y-151619258D02*
X164094133Y-152119259D01*
X164094133Y-155719259D02*
X164094133Y-156319259D01*
X164094133Y-156319259D02*
X159614133Y-156319259D01*
X159094133Y-156899259D02*
G75*
G02*
X159614133Y-156319259I549999J30001D01*
G01*
X159594133Y-152339259D02*
G75*
G02*
X157894133Y-153819259I-1589999J109999D01*
G01*
%TO.C,S3*%
X137094133Y-120319259D02*
X137594133Y-119819259D01*
X137094133Y-123819259D02*
X137594133Y-124319259D01*
X137594133Y-119819259D02*
X139894133Y-119819259D01*
X137594133Y-124319259D02*
X140594133Y-124319259D01*
X140594133Y-124319259D02*
X141094133Y-123819259D01*
X141094133Y-122899259D02*
X141094133Y-123819259D01*
X141594133Y-117619259D02*
X146094133Y-117619258D01*
X141594133Y-118319259D02*
X141594133Y-117619259D01*
X146094133Y-117619258D02*
X146094133Y-118119259D01*
X146094133Y-121719259D02*
X146094133Y-122319259D01*
X146094133Y-122319259D02*
X141614133Y-122319259D01*
X141094133Y-122899259D02*
G75*
G02*
X141614133Y-122319259I549999J30001D01*
G01*
X141594133Y-118339259D02*
G75*
G02*
X139894133Y-119819259I-1589999J109999D01*
G01*
D12*
%TO.C,LED3*%
X135294133Y-111119259D02*
X135294133Y-112719259D01*
X135294133Y-112719259D02*
X136894133Y-112719259D01*
D10*
%TO.C,S14*%
X191094133Y-113194259D02*
X191594133Y-112694259D01*
X191094133Y-116694259D02*
X191594133Y-117194259D01*
X191594133Y-112694259D02*
X193894133Y-112694259D01*
X191594133Y-117194259D02*
X194594133Y-117194259D01*
X194594133Y-117194259D02*
X195094133Y-116694259D01*
X195094133Y-115774259D02*
X195094133Y-116694259D01*
X195594133Y-110494259D02*
X200094133Y-110494258D01*
X195594133Y-111194259D02*
X195594133Y-110494259D01*
X200094133Y-110494258D02*
X200094133Y-110994259D01*
X200094133Y-114594259D02*
X200094133Y-115194259D01*
X200094133Y-115194259D02*
X195614133Y-115194259D01*
X195094133Y-115774259D02*
G75*
G02*
X195614133Y-115194259I549999J30001D01*
G01*
X195594133Y-111214259D02*
G75*
G02*
X193894133Y-112694259I-1589999J109999D01*
G01*
%TO.C,S2*%
X137094133Y-137319259D02*
X137594133Y-136819259D01*
X137094133Y-140819259D02*
X137594133Y-141319259D01*
X137594133Y-136819259D02*
X139894133Y-136819259D01*
X137594133Y-141319259D02*
X140594133Y-141319259D01*
X140594133Y-141319259D02*
X141094133Y-140819259D01*
X141094133Y-139899259D02*
X141094133Y-140819259D01*
X141594133Y-134619259D02*
X146094133Y-134619258D01*
X141594133Y-135319259D02*
X141594133Y-134619259D01*
X146094133Y-134619258D02*
X146094133Y-135119259D01*
X146094133Y-138719259D02*
X146094133Y-139319259D01*
X146094133Y-139319259D02*
X141614133Y-139319259D01*
X141094133Y-139899259D02*
G75*
G02*
X141614133Y-139319259I549999J30001D01*
G01*
X141594133Y-135339259D02*
G75*
G02*
X139894133Y-136819259I-1589999J109999D01*
G01*
%TO.C,S21*%
X227094133Y-100944259D02*
X227594133Y-100444259D01*
X227094133Y-104444259D02*
X227594133Y-104944259D01*
X227594133Y-100444259D02*
X229894133Y-100444259D01*
X227594133Y-104944259D02*
X230594133Y-104944259D01*
X230594133Y-104944259D02*
X231094133Y-104444259D01*
X231094133Y-103524259D02*
X231094133Y-104444259D01*
X231594133Y-98244259D02*
X236094133Y-98244258D01*
X231594133Y-98944259D02*
X231594133Y-98244259D01*
X236094133Y-98244258D02*
X236094133Y-98744259D01*
X236094133Y-102344259D02*
X236094133Y-102944259D01*
X236094133Y-102944259D02*
X231614133Y-102944259D01*
X231094133Y-103524259D02*
G75*
G02*
X231614133Y-102944259I549999J30001D01*
G01*
X231594133Y-98964259D02*
G75*
G02*
X229894133Y-100444259I-1589999J109999D01*
G01*
%TO.C,S9*%
X173094133Y-149569260D02*
X173594133Y-149069260D01*
X173094133Y-153069260D02*
X173594133Y-153569260D01*
X173594133Y-149069260D02*
X175894133Y-149069260D01*
X173594133Y-153569260D02*
X176594133Y-153569260D01*
X176594133Y-153569260D02*
X177094133Y-153069260D01*
X177094133Y-152149260D02*
X177094133Y-153069260D01*
X177594133Y-146869260D02*
X182094133Y-146869259D01*
X177594133Y-147569260D02*
X177594133Y-146869260D01*
X182094133Y-146869259D02*
X182094133Y-147369260D01*
X182094133Y-150969260D02*
X182094133Y-151569260D01*
X182094133Y-151569260D02*
X177614133Y-151569260D01*
X177094133Y-152149260D02*
G75*
G02*
X177614133Y-151569260I549999J30001D01*
G01*
X177594133Y-147589260D02*
G75*
G02*
X175894133Y-149069260I-1589999J109999D01*
G01*
D12*
%TO.C,LED17*%
X207294133Y-106369259D02*
X207294133Y-107969259D01*
X207294133Y-107969259D02*
X208894133Y-107969259D01*
D10*
%TO.C,S13*%
X191094134Y-130194259D02*
X191594134Y-129694259D01*
X191094134Y-133694259D02*
X191594134Y-134194259D01*
X191594134Y-129694259D02*
X193894134Y-129694259D01*
X191594134Y-134194259D02*
X194594134Y-134194259D01*
X194594134Y-134194259D02*
X195094134Y-133694259D01*
X195094134Y-132774259D02*
X195094134Y-133694259D01*
X195594134Y-127494259D02*
X200094134Y-127494258D01*
X195594134Y-128194259D02*
X195594134Y-127494259D01*
X200094134Y-127494258D02*
X200094134Y-127994259D01*
X200094134Y-131594259D02*
X200094134Y-132194259D01*
X200094134Y-132194259D02*
X195614134Y-132194259D01*
X195094134Y-132774259D02*
G75*
G02*
X195614134Y-132194259I549999J30001D01*
G01*
X195594134Y-128214259D02*
G75*
G02*
X193894134Y-129694259I-1589999J109999D01*
G01*
D12*
%TO.C,LED21*%
X225294133Y-91744259D02*
X225294133Y-93344259D01*
X225294133Y-93344259D02*
X226894133Y-93344259D01*
D10*
%TO.C,S8*%
X155094133Y-103319259D02*
X155594133Y-102819259D01*
X155094133Y-106819259D02*
X155594133Y-107319259D01*
X155594133Y-102819259D02*
X157894133Y-102819259D01*
X155594133Y-107319259D02*
X158594133Y-107319259D01*
X158594133Y-107319259D02*
X159094133Y-106819259D01*
X159094133Y-105899259D02*
X159094133Y-106819259D01*
X159594133Y-100619259D02*
X164094133Y-100619258D01*
X159594133Y-101319259D02*
X159594133Y-100619259D01*
X164094133Y-100619258D02*
X164094133Y-101119259D01*
X164094133Y-104719259D02*
X164094133Y-105319259D01*
X164094133Y-105319259D02*
X159614133Y-105319259D01*
X159094133Y-105899259D02*
G75*
G02*
X159614133Y-105319259I549999J30001D01*
G01*
X159594133Y-101339259D02*
G75*
G02*
X157894133Y-102819259I-1589999J109999D01*
G01*
D12*
%TO.C,LED19*%
X225294134Y-125744259D02*
X225294134Y-127344259D01*
X225294134Y-127344259D02*
X226894134Y-127344259D01*
D10*
%TO.C,S20*%
X227094133Y-117944259D02*
X227594133Y-117444259D01*
X227094133Y-121444259D02*
X227594133Y-121944259D01*
X227594133Y-117444259D02*
X229894133Y-117444259D01*
X227594133Y-121944259D02*
X230594133Y-121944259D01*
X230594133Y-121944259D02*
X231094133Y-121444259D01*
X231094133Y-120524259D02*
X231094133Y-121444259D01*
X231594133Y-115244259D02*
X236094133Y-115244258D01*
X231594133Y-115944259D02*
X231594133Y-115244259D01*
X236094133Y-115244258D02*
X236094133Y-115744259D01*
X236094133Y-119344259D02*
X236094133Y-119944259D01*
X236094133Y-119944259D02*
X231614133Y-119944259D01*
X231094133Y-120524259D02*
G75*
G02*
X231614133Y-119944259I549999J30001D01*
G01*
X231594133Y-115964259D02*
G75*
G02*
X229894133Y-117444259I-1589999J109999D01*
G01*
D12*
%TO.C,LED8*%
X153294133Y-94119259D02*
X153294133Y-95719259D01*
X153294133Y-95719259D02*
X154894133Y-95719259D01*
%TO.C,LED15*%
X189294133Y-86994259D02*
X189294133Y-88594259D01*
X189294133Y-88594259D02*
X190894133Y-88594259D01*
D10*
%TO.C,S17*%
X209094133Y-115569259D02*
X209594133Y-115069259D01*
X209094133Y-119069259D02*
X209594133Y-119569259D01*
X209594133Y-115069259D02*
X211894133Y-115069259D01*
X209594133Y-119569259D02*
X212594133Y-119569259D01*
X212594133Y-119569259D02*
X213094133Y-119069259D01*
X213094133Y-118149259D02*
X213094133Y-119069259D01*
X213594133Y-112869259D02*
X218094133Y-112869258D01*
X213594133Y-113569259D02*
X213594133Y-112869259D01*
X218094133Y-112869258D02*
X218094133Y-113369259D01*
X218094133Y-116969259D02*
X218094133Y-117569259D01*
X218094133Y-117569259D02*
X213614133Y-117569259D01*
X213094133Y-118149259D02*
G75*
G02*
X213614133Y-117569259I549999J30001D01*
G01*
X213594133Y-113589259D02*
G75*
G02*
X211894133Y-115069259I-1589999J109999D01*
G01*
%TO.C,S6*%
X155094134Y-137319259D02*
X155594134Y-136819259D01*
X155094134Y-140819259D02*
X155594134Y-141319259D01*
X155594134Y-136819259D02*
X157894134Y-136819259D01*
X155594134Y-141319259D02*
X158594134Y-141319259D01*
X158594134Y-141319259D02*
X159094134Y-140819259D01*
X159094134Y-139899259D02*
X159094134Y-140819259D01*
X159594134Y-134619259D02*
X164094134Y-134619258D01*
X159594134Y-135319259D02*
X159594134Y-134619259D01*
X164094134Y-134619258D02*
X164094134Y-135119259D01*
X164094134Y-138719259D02*
X164094134Y-139319259D01*
X164094134Y-139319259D02*
X159614134Y-139319259D01*
X159094134Y-139899259D02*
G75*
G02*
X159614134Y-139319259I549999J30001D01*
G01*
X159594134Y-135339259D02*
G75*
G02*
X157894134Y-136819259I-1589999J109999D01*
G01*
D12*
%TO.C,LED2*%
X135294134Y-128119259D02*
X135294134Y-129719259D01*
X135294134Y-129719259D02*
X136894134Y-129719259D01*
D10*
%TO.C,S11*%
X173094133Y-115569260D02*
X173594133Y-115069260D01*
X173094133Y-119069260D02*
X173594133Y-119569260D01*
X173594133Y-115069260D02*
X175894133Y-115069260D01*
X173594133Y-119569260D02*
X176594133Y-119569260D01*
X176594133Y-119569260D02*
X177094133Y-119069260D01*
X177094133Y-118149260D02*
X177094133Y-119069260D01*
X177594133Y-112869260D02*
X182094133Y-112869259D01*
X177594133Y-113569260D02*
X177594133Y-112869260D01*
X182094133Y-112869259D02*
X182094133Y-113369260D01*
X182094133Y-116969260D02*
X182094133Y-117569260D01*
X182094133Y-117569260D02*
X177614133Y-117569260D01*
X177094133Y-118149260D02*
G75*
G02*
X177614133Y-117569260I549999J30001D01*
G01*
X177594133Y-113589260D02*
G75*
G02*
X175894133Y-115069260I-1589999J109999D01*
G01*
%TO.C,S10*%
X173094133Y-132569260D02*
X173594133Y-132069260D01*
X173094133Y-136069260D02*
X173594133Y-136569260D01*
X173594133Y-132069260D02*
X175894133Y-132069260D01*
X173594133Y-136569260D02*
X176594133Y-136569260D01*
X176594133Y-136569260D02*
X177094133Y-136069260D01*
X177094133Y-135149260D02*
X177094133Y-136069260D01*
X177594133Y-129869260D02*
X182094133Y-129869259D01*
X177594133Y-130569260D02*
X177594133Y-129869260D01*
X182094133Y-129869259D02*
X182094133Y-130369260D01*
X182094133Y-133969260D02*
X182094133Y-134569260D01*
X182094133Y-134569260D02*
X177614133Y-134569260D01*
X177094133Y-135149260D02*
G75*
G02*
X177614133Y-134569260I549999J30001D01*
G01*
X177594133Y-130589260D02*
G75*
G02*
X175894133Y-132069260I-1589999J109999D01*
G01*
D12*
%TO.C,LED20*%
X225294133Y-108744259D02*
X225294133Y-110344259D01*
X225294133Y-110344259D02*
X226894133Y-110344259D01*
%TO.C,LED23*%
X223303599Y-149426599D02*
X224849081Y-149840709D01*
X223717710Y-147881118D02*
X223303599Y-149426599D01*
%TO.C,LED18*%
X207294133Y-89369259D02*
X207294133Y-90969259D01*
X207294133Y-90969259D02*
X208894133Y-90969259D01*
D10*
%TO.C,S4*%
X137094133Y-103319259D02*
X137594133Y-102819259D01*
X137094133Y-106819259D02*
X137594133Y-107319259D01*
X137594133Y-102819259D02*
X139894133Y-102819259D01*
X137594133Y-107319259D02*
X140594133Y-107319259D01*
X140594133Y-107319259D02*
X141094133Y-106819259D01*
X141094133Y-105899259D02*
X141094133Y-106819259D01*
X141594133Y-100619259D02*
X146094133Y-100619258D01*
X141594133Y-101319259D02*
X141594133Y-100619259D01*
X146094133Y-100619258D02*
X146094133Y-101119259D01*
X146094133Y-104719259D02*
X146094133Y-105319259D01*
X146094133Y-105319259D02*
X141614133Y-105319259D01*
X141094133Y-105899259D02*
G75*
G02*
X141614133Y-105319259I549999J30001D01*
G01*
X141594133Y-101339259D02*
G75*
G02*
X139894133Y-102819259I-1589999J109999D01*
G01*
D12*
%TO.C,LED22*%
X201294134Y-145994259D02*
X201294134Y-147594259D01*
X201294134Y-147594259D02*
X202894134Y-147594259D01*
D10*
%TO.C,S24*%
X248539375Y-165305684D02*
X249689375Y-163313826D01*
X248634119Y-160741582D02*
X250884119Y-156844468D01*
X248722388Y-165988697D02*
X248539375Y-165305684D01*
X249240337Y-161091582D02*
X248634119Y-160741582D01*
X250884119Y-156844468D02*
X251317132Y-157094468D01*
X251753477Y-167738697D02*
X252436489Y-167555684D01*
X252436489Y-167555684D02*
X253936489Y-164957608D01*
X252956733Y-163814595D02*
X253753477Y-164274595D01*
X253936489Y-164957608D02*
X253753477Y-164274595D01*
X254434823Y-158894468D02*
X254954439Y-159194468D01*
X254954439Y-159194468D02*
X252714439Y-163074262D01*
X249257657Y-161101582D02*
G75*
G02*
X249689375Y-163313826I-890261J-1321981D01*
G01*
X252956733Y-163814595D02*
G75*
G02*
X252714439Y-163074262I249018J491313D01*
G01*
%TO.C,S1*%
X137094134Y-154319259D02*
X137594134Y-153819259D01*
X137094134Y-157819259D02*
X137594134Y-158319259D01*
X137594134Y-153819259D02*
X139894134Y-153819259D01*
X137594134Y-158319259D02*
X140594134Y-158319259D01*
X140594134Y-158319259D02*
X141094134Y-157819259D01*
X141094134Y-156899259D02*
X141094134Y-157819259D01*
X141594134Y-151619259D02*
X146094134Y-151619258D01*
X141594134Y-152319259D02*
X141594134Y-151619259D01*
X146094134Y-151619258D02*
X146094134Y-152119259D01*
X146094134Y-155719259D02*
X146094134Y-156319259D01*
X146094134Y-156319259D02*
X141614134Y-156319259D01*
X141094134Y-156899259D02*
G75*
G02*
X141614134Y-156319259I549999J30001D01*
G01*
X141594134Y-152339259D02*
G75*
G02*
X139894134Y-153819259I-1589999J109999D01*
G01*
D12*
%TO.C,LED14*%
X189294134Y-103994259D02*
X189294134Y-105594259D01*
X189294134Y-105594259D02*
X190894134Y-105594259D01*
%TO.C,LED6*%
X153294133Y-128119259D02*
X153294133Y-129719259D01*
X153294133Y-129719259D02*
X154894133Y-129719259D01*
%TO.C,LED13*%
X189294133Y-120994259D02*
X189294133Y-122594259D01*
X189294133Y-122594259D02*
X190894133Y-122594259D01*
%TO.C,LED4*%
X135294133Y-94119259D02*
X135294133Y-95719259D01*
X135294133Y-95719259D02*
X136894133Y-95719259D01*
%TO.C,LED12*%
X171294133Y-89369260D02*
X171294133Y-90969260D01*
X171294133Y-90969260D02*
X172894133Y-90969260D01*
D10*
%TO.C,S7*%
X155094133Y-120319259D02*
X155594133Y-119819259D01*
X155094133Y-123819259D02*
X155594133Y-124319259D01*
X155594133Y-119819259D02*
X157894133Y-119819259D01*
X155594133Y-124319259D02*
X158594133Y-124319259D01*
X158594133Y-124319259D02*
X159094133Y-123819259D01*
X159094133Y-122899259D02*
X159094133Y-123819259D01*
X159594133Y-117619259D02*
X164094133Y-117619258D01*
X159594133Y-118319259D02*
X159594133Y-117619259D01*
X164094133Y-117619258D02*
X164094133Y-118119259D01*
X164094133Y-121719259D02*
X164094133Y-122319259D01*
X164094133Y-122319259D02*
X159614133Y-122319259D01*
X159094133Y-122899259D02*
G75*
G02*
X159614133Y-122319259I549999J30001D01*
G01*
X159594133Y-118339259D02*
G75*
G02*
X157894133Y-119819259I-1589999J109999D01*
G01*
D12*
%TO.C,LED1*%
X135294133Y-145119259D02*
X135294133Y-146719259D01*
X135294133Y-146719259D02*
X136894133Y-146719259D01*
D10*
%TO.C,S15*%
X191094133Y-96194259D02*
X191594133Y-95694259D01*
X191094133Y-99694259D02*
X191594133Y-100194259D01*
X191594133Y-95694259D02*
X193894133Y-95694259D01*
X191594133Y-100194259D02*
X194594133Y-100194259D01*
X194594133Y-100194259D02*
X195094133Y-99694259D01*
X195094133Y-98774259D02*
X195094133Y-99694259D01*
X195594133Y-93494259D02*
X200094133Y-93494258D01*
X195594133Y-94194259D02*
X195594133Y-93494259D01*
X200094133Y-93494258D02*
X200094133Y-93994259D01*
X200094133Y-97594259D02*
X200094133Y-98194259D01*
X200094133Y-98194259D02*
X195614133Y-98194259D01*
X195094133Y-98774259D02*
G75*
G02*
X195614133Y-98194259I549999J30001D01*
G01*
X195594133Y-94214259D02*
G75*
G02*
X193894133Y-95694259I-1589999J109999D01*
G01*
D12*
%TO.C,LED7*%
X153294134Y-111119259D02*
X153294134Y-112719259D01*
X153294134Y-112719259D02*
X154894134Y-112719259D01*
D10*
%TO.C,S22*%
X203094134Y-155194259D02*
X203594134Y-154694259D01*
X203094134Y-158694259D02*
X203594134Y-159194259D01*
X203594134Y-154694259D02*
X205894134Y-154694259D01*
X203594134Y-159194259D02*
X206594134Y-159194259D01*
X206594134Y-159194259D02*
X207094134Y-158694259D01*
X207094134Y-157774259D02*
X207094134Y-158694259D01*
X207594134Y-152494259D02*
X212094134Y-152494258D01*
X207594134Y-153194259D02*
X207594134Y-152494259D01*
X212094134Y-152494258D02*
X212094134Y-152994259D01*
X212094134Y-156594259D02*
X212094134Y-157194259D01*
X212094134Y-157194259D02*
X207614134Y-157194259D01*
X207094134Y-157774259D02*
G75*
G02*
X207614134Y-157194259I549999J30001D01*
G01*
X207594134Y-153214259D02*
G75*
G02*
X205894134Y-154694259I-1589999J109999D01*
G01*
%TO.C,S19*%
X227094133Y-134944259D02*
X227594133Y-134444259D01*
X227094133Y-138444259D02*
X227594133Y-138944259D01*
X227594133Y-134444259D02*
X229894133Y-134444259D01*
X227594133Y-138944259D02*
X230594133Y-138944259D01*
X230594133Y-138944259D02*
X231094133Y-138444259D01*
X231094133Y-137524259D02*
X231094133Y-138444259D01*
X231594133Y-132244259D02*
X236094133Y-132244258D01*
X231594133Y-132944259D02*
X231594133Y-132244259D01*
X236094133Y-132244258D02*
X236094133Y-132744259D01*
X236094133Y-136344259D02*
X236094133Y-136944259D01*
X236094133Y-136944259D02*
X231614133Y-136944259D01*
X231094133Y-137524259D02*
G75*
G02*
X231614133Y-136944259I549999J30001D01*
G01*
X231594133Y-132964259D02*
G75*
G02*
X229894133Y-134444259I-1589999J109999D01*
G01*
D12*
%TO.C,LED9*%
X171294134Y-140369260D02*
X171294134Y-141969260D01*
X171294134Y-141969260D02*
X172894134Y-141969260D01*
%TO.C,LED24*%
X239854954Y-162947543D02*
X241240596Y-163747543D01*
X241240596Y-163747543D02*
X242040595Y-162361902D01*
%TO.C,LED10*%
X171294133Y-123369260D02*
X171294133Y-124969260D01*
X171294133Y-124969260D02*
X172894133Y-124969260D01*
%TO.C,LED11*%
X171294133Y-106369260D02*
X171294133Y-107969260D01*
X171294133Y-107969260D02*
X172894133Y-107969260D01*
D10*
%TO.C,S16*%
X209094133Y-132569259D02*
X209594133Y-132069259D01*
X209094133Y-136069259D02*
X209594133Y-136569259D01*
X209594133Y-132069259D02*
X211894133Y-132069259D01*
X209594133Y-136569259D02*
X212594133Y-136569259D01*
X212594133Y-136569259D02*
X213094133Y-136069259D01*
X213094133Y-135149259D02*
X213094133Y-136069259D01*
X213594133Y-129869259D02*
X218094133Y-129869258D01*
X213594133Y-130569259D02*
X213594133Y-129869259D01*
X218094133Y-129869258D02*
X218094133Y-130369259D01*
X218094133Y-133969259D02*
X218094133Y-134569259D01*
X218094133Y-134569259D02*
X213614133Y-134569259D01*
X213094133Y-135149259D02*
G75*
G02*
X213614133Y-134569259I549999J30001D01*
G01*
X213594133Y-130589259D02*
G75*
G02*
X211894133Y-132069259I-1589999J109999D01*
G01*
D12*
%TO.C,LED16*%
X207294134Y-123369259D02*
X207294134Y-124969259D01*
X207294134Y-124969259D02*
X208894134Y-124969259D01*
D10*
%TO.C,S18*%
X209094133Y-98569259D02*
X209594133Y-98069259D01*
X209094133Y-102069259D02*
X209594133Y-102569259D01*
X209594133Y-98069259D02*
X211894133Y-98069259D01*
X209594133Y-102569259D02*
X212594133Y-102569259D01*
X212594133Y-102569259D02*
X213094133Y-102069259D01*
X213094133Y-101149259D02*
X213094133Y-102069259D01*
X213594133Y-95869259D02*
X218094133Y-95869258D01*
X213594133Y-96569259D02*
X213594133Y-95869259D01*
X218094133Y-95869258D02*
X218094133Y-96369259D01*
X218094133Y-99969259D02*
X218094133Y-100569259D01*
X218094133Y-100569259D02*
X213614133Y-100569259D01*
X213094133Y-101149259D02*
G75*
G02*
X213614133Y-100569259I549999J30001D01*
G01*
X213594133Y-96589259D02*
G75*
G02*
X211894133Y-98069259I-1589999J109999D01*
G01*
%TO.C,S12*%
X173094134Y-98569260D02*
X173594134Y-98069260D01*
X173094134Y-102069260D02*
X173594134Y-102569260D01*
X173594134Y-98069260D02*
X175894134Y-98069260D01*
X173594134Y-102569260D02*
X176594134Y-102569260D01*
X176594134Y-102569260D02*
X177094134Y-102069260D01*
X177094134Y-101149260D02*
X177094134Y-102069260D01*
X177594134Y-95869260D02*
X182094134Y-95869259D01*
X177594134Y-96569260D02*
X177594134Y-95869260D01*
X182094134Y-95869259D02*
X182094134Y-96369260D01*
X182094134Y-99969260D02*
X182094134Y-100569260D01*
X182094134Y-100569260D02*
X177614134Y-100569260D01*
X177094134Y-101149260D02*
G75*
G02*
X177614134Y-100569260I549999J30001D01*
G01*
X177594134Y-96589260D02*
G75*
G02*
X175894134Y-98069260I-1589999J109999D01*
G01*
%TD*%
M02*
