M48
; DRILL file {KiCad 8.0.9-rc1} date 2026-08-21T15:33:11-0600
; FORMAT={-:-/ absolute / inch / decimal}
; #@! TF.CreationDate,2026-08-21T15:33:11-06:00
; #@! TF.GenerationSoftware,Kicad,Pcbnew,8.0.9-rc1
; #@! TF.FileFunction,Plated,1,2,PTH
FMAT,2
INCH
; #@! TA.AperFunction,Plated,PTH,ViaDrill
T1C0.0118
; #@! TA.AperFunction,Plated,PTH,ComponentDrill
T2C0.0118
; #@! TA.AperFunction,Plated,PTH,ViaDrill
T3C0.0157
; #@! TA.AperFunction,Plated,PTH,ComponentDrill
T4C0.0157
; #@! TA.AperFunction,Plated,PTH,ComponentDrill
T5C0.0197
; #@! TA.AperFunction,Plated,PTH,ComponentDrill
T6C0.0295
; #@! TA.AperFunction,Plated,PTH,ComponentDrill
T7C0.0354
; #@! TA.AperFunction,Plated,PTH,ComponentDrill
T8C0.0394
; #@! TA.AperFunction,Plated,PTH,ComponentDrill
T9C0.0591
; #@! TA.AperFunction,Plated,PTH,ComponentDrill
T10C0.0866
%
G90
G05
T1
X5.0824Y-4.9653
X5.1415Y-5.1031
X5.1612Y-4.4141
X5.2006Y-3.6464
X5.2399Y-4.237
X5.4761Y-4.0234
X5.4761Y-4.0549
X5.4761Y-4.7242
X5.4761Y-5.362
X5.4761Y-6.0313
X5.4761Y-6.0628
X5.4761Y-4.6927
X5.4761Y-5.3935
X5.6076Y-4.4855
X5.6299Y-3.6417
X5.7087Y-3.5236
X5.748Y-4.9016
X5.8268Y-3.7598
X5.8661Y-3.5827
X5.8661Y-4.5472
X5.8661Y-5.2362
X6.0433Y-3.5433
X6.122Y-3.5236
X6.1848Y-4.0549
X6.1848Y-4.6927
X6.1848Y-4.7242
X6.1848Y-5.362
X6.1848Y-5.3935
X6.1848Y-6.0313
X6.1848Y-6.0628
X6.1848Y-4.0234
X6.2992Y-4.4882
X6.4173Y-4.9016
X6.437Y-5.0591
X6.4567Y-5.1772
X6.5551Y-3.4843
X6.5551Y-4.4291
X6.6142Y-3.5433
X6.6339Y-4.7047
X6.6339Y-4.8228
X6.6535Y-4.252
X6.7224Y-3.3957
X6.8935Y-3.8364
X6.8935Y-3.8679
X6.8935Y-4.5057
X6.8935Y-4.5372
X6.8935Y-5.2065
X6.8935Y-5.8443
X6.8935Y-5.8758
X6.8935Y-5.175
X7.0472Y-4.311
X7.1063Y-3.3583
X7.1457Y-3.5433
X7.1457Y-4.6457
X7.1654Y-3.4055
X7.2047Y-4.2126
X7.2576Y-5.487
X7.2638Y-4.3307
X7.2638Y-4.9606
X7.3228Y-3.4646
X7.3425Y-4.7835
X7.6021Y-3.7429
X7.6021Y-3.7744
X7.6021Y-4.4122
X7.6021Y-4.4437
X7.6021Y-5.0815
X7.6021Y-5.113
X7.7362Y-4.2126
X7.8346Y-4.8031
X7.8543Y-3.3147
X7.8937Y-4.7244
X7.9171Y-4.8472
X7.9528Y-5.5315
X7.9724Y-3.4449
X7.9724Y-3.5433
X7.9724Y-4.0748
X8.0155Y-4.67
X8.0709Y-3.4449
X8.0746Y-6.0657
X8.0746Y-6.0972
X8.3108Y-3.8364
X8.3108Y-3.8679
X8.3108Y-4.5372
X8.3108Y-5.175
X8.3108Y-4.5057
X8.3108Y-5.2065
X8.4843Y-4.311
X8.5433Y-4.7638
X8.5827Y-3.44
X8.5827Y-3.5236
X8.622Y-4.7638
X8.7008Y-3.6811
X8.7008Y-4.3504
X8.7008Y-4.9803
X8.7402Y-4.8819
X8.7795Y-4.2913
X8.8619Y-6.1983
X8.87Y-6.1679
X8.8856Y-4.173
X9.0157Y-4.8622
X9.0195Y-3.9299
X9.0195Y-3.9614
X9.0195Y-4.6307
X9.0195Y-5.2685
X9.0195Y-5.3
X9.0195Y-4.5992
X9.16Y-3.4953
X9.1929Y-4.4094
X9.1966Y-4.8275
X9.252Y-4.0945
X9.252Y-4.9606
X9.252Y-5.7874
X9.2913Y-4.311
X9.311Y-4.2126
X9.3159Y-4.2886
X9.3307Y-5.4921
X9.3307Y-6.0039
X9.3504Y-3.7008
X9.3504Y-4.8819
X9.3898Y-5.4331
X9.4094Y-3.5827
X9.4094Y-4.3504
X9.4488Y-3.6614
X9.4488Y-3.8976
X9.4488Y-5.5315
X9.4694Y-4.8819
X9.5276Y-4.1535
X9.5276Y-4.6063
X9.5472Y-4.3701
X9.7146Y-4.9508
X9.7244Y-4.7638
X9.7932Y-6.4447
X9.8031Y-5.7874
X9.8205Y-6.4604
X9.9016Y-4.7244
X9.9407Y-4.7636
X9.9409Y-4.6968
X10.1772Y-4.7244
X10.2663Y-4.9171
X10.2663Y-5.0352
X10.2756Y-5.3206
X10.3543Y-5.315
T2
X5.2143Y-3.8236
X5.2143Y-4.4929
X5.2143Y-5.8315
X5.2143Y-5.1622
X5.3443Y-3.8236
X5.3443Y-4.4929
X5.3443Y-5.8315
X5.3443Y-5.1622
X5.923Y-3.8236
X5.923Y-5.1622
X5.923Y-5.8315
X5.923Y-4.4929
X6.0529Y-3.8236
X6.0529Y-5.1622
X6.0529Y-5.8315
X6.0529Y-4.4929
X6.6317Y-3.6366
X6.6317Y-4.3059
X6.6317Y-4.9752
X6.6317Y-5.6445
X6.7616Y-3.6366
X6.7616Y-4.3059
X6.7616Y-4.9752
X6.7616Y-5.6445
X7.3403Y-3.5431
X7.3403Y-4.2124
X7.3403Y-4.8817
X7.4702Y-3.5431
X7.4702Y-4.2124
X7.4702Y-4.8817
X7.8128Y-5.8659
X7.9427Y-5.8659
X8.049Y-3.6366
X8.049Y-4.3059
X8.049Y-4.9752
X8.1789Y-3.6366
X8.1789Y-4.3059
X8.1789Y-4.9752
X8.6688Y-5.9071
X8.7576Y-3.7301
X8.7576Y-4.3994
X8.7576Y-5.0687
X8.7943Y-5.9408
X8.8876Y-3.7301
X8.8876Y-4.3994
X8.8876Y-5.0687
X9.4893Y-6.5715
X9.5543Y-6.459
X9.7185Y-5.374
X9.8484Y-5.374
T3
X5.2813Y-3.6779
X5.2813Y-5.0165
X5.2813Y-5.6858
X5.2813Y-4.3472
X5.3163Y-3.733
X5.3163Y-4.4023
X5.3163Y-5.0716
X5.3163Y-5.7409
X5.636Y-3.733
X5.636Y-4.4023
X5.636Y-5.0716
X5.636Y-5.7409
X5.671Y-4.3472
X5.671Y-5.0165
X5.671Y-5.6858
X5.671Y-3.6779
X5.9899Y-4.3472
X5.9899Y-5.0165
X5.9899Y-5.6858
X5.9899Y-3.6779
X6.025Y-3.733
X6.025Y-4.4023
X6.025Y-5.0716
X6.025Y-5.7409
X6.3447Y-3.733
X6.3447Y-4.4023
X6.3447Y-5.7409
X6.3447Y-5.0716
X6.3797Y-3.6779
X6.3797Y-4.3472
X6.3797Y-5.0165
X6.3797Y-5.6858
X6.6986Y-3.4909
X6.6986Y-4.1602
X6.6986Y-5.4988
X6.6986Y-4.8295
X6.7336Y-3.546
X6.7336Y-4.8846
X6.7336Y-5.5539
X6.7336Y-4.2153
X7.0533Y-3.546
X7.0533Y-4.2153
X7.0533Y-4.8846
X7.0533Y-5.5539
X7.0884Y-3.4909
X7.0884Y-4.8295
X7.0884Y-5.4988
X7.0884Y-4.1602
X7.4072Y-3.3974
X7.4072Y-4.736
X7.4072Y-4.0667
X7.4423Y-3.4525
X7.4423Y-4.1218
X7.4423Y-4.7911
X7.762Y-3.4525
X7.762Y-4.1218
X7.762Y-4.7911
X7.797Y-3.3974
X7.797Y-4.0667
X7.797Y-4.736
X7.8797Y-5.7202
X7.9147Y-5.7754
X8.1159Y-3.4909
X8.1159Y-4.8295
X8.1159Y-4.1602
X8.151Y-4.2153
X8.151Y-4.8846
X8.151Y-3.546
X8.2344Y-5.7754
X8.2695Y-5.7202
X8.4706Y-3.546
X8.4706Y-4.2153
X8.4706Y-4.8846
X8.5057Y-4.1602
X8.5057Y-4.8295
X8.5057Y-3.4909
X8.7712Y-5.7838
X8.7908Y-5.8461
X8.8246Y-3.5844
X8.8246Y-4.2537
X8.8246Y-4.923
X8.8596Y-4.3088
X8.8596Y-4.9781
X8.8596Y-3.6395
X9.0996Y-5.9288
X9.1477Y-5.8846
X9.1793Y-3.6395
X9.1793Y-4.3088
X9.1793Y-4.9781
X9.2143Y-3.5844
X9.2143Y-4.2537
X9.2143Y-4.923
X9.3966Y-6.4407
X9.4619Y-6.4379
X9.5915Y-6.1031
X9.6217Y-6.161
T4
X9.8069Y-3.8632
X9.8069Y-3.5632
X9.8069Y-3.6632
X9.8069Y-3.7632
X9.8069Y-3.9632
X9.8069Y-4.0632
X9.8069Y-4.2632
X9.8069Y-4.3632
X9.8069Y-4.4632
X9.8069Y-4.5632
X9.8069Y-4.6632
X9.8069Y-4.1632
X10.0746Y-3.9632
X10.0746Y-3.5632
X10.0746Y-3.6632
X10.0746Y-3.7632
X10.0746Y-3.8632
X10.0746Y-4.0632
X10.0746Y-4.1632
X10.0746Y-4.3632
X10.0746Y-4.4632
X10.0746Y-4.5632
X10.0746Y-4.6632
X10.0746Y-4.2632
T6
X9.6218Y-4.8403
X9.6218Y-4.9191
T8
X9.6407Y-4.6632
X9.6407Y-3.5632
X9.6407Y-3.6632
X9.6407Y-3.7632
X9.6407Y-3.8632
X9.6407Y-3.9632
X9.6407Y-4.0632
X9.6407Y-4.1632
X9.6407Y-4.2632
X9.6407Y-4.3632
X9.6407Y-4.4632
X9.6407Y-4.5632
X9.7907Y-4.8679
X9.8907Y-4.8679
X9.9907Y-4.8679
X10.0907Y-4.8679
X10.2407Y-3.5632
X10.2407Y-3.6632
X10.2407Y-3.7632
X10.2407Y-3.8632
X10.2407Y-3.9632
X10.2407Y-4.0632
X10.2407Y-4.1632
X10.2407Y-4.2632
X10.2407Y-4.3632
X10.2407Y-4.4632
X10.2407Y-4.5632
X10.2407Y-4.6632
T10
X5.795Y-4.237
X5.795Y-5.5756
X7.921Y-5.3954
X8.6297Y-4.1169
X9.3384Y-5.6828
T5
G00X9.6457Y-5.1061
M15
G01X9.6457Y-5.1258
M16
G05
G00X9.6457Y-5.2045
M15
G01X9.6457Y-5.2242
M16
G05
G00X9.6457Y-5.3029
M15
G01X9.6457Y-5.3226
M16
G05
G00X10.2165Y-5.1061
M15
G01X10.2165Y-5.1258
M16
G05
G00X10.2165Y-5.3029
M15
G01X10.2165Y-5.3226
M16
G05
T7
G00X9.9409Y-5.6376
M15
G01X9.9173Y-5.6376
M16
G05
G00X9.9409Y-5.7281
M15
G01X9.9173Y-5.7281
M16
G05
G00X9.9843Y-5.547
M15
G01X9.9606Y-5.547
M16
G05
G00X9.9843Y-5.8187
M15
G01X9.9606Y-5.8187
M16
G05
G00X10.1417Y-5.547
M15
G01X10.1181Y-5.547
M16
G05
G00X10.1417Y-5.8187
M15
G01X10.1181Y-5.8187
M16
G05
G00X10.2598Y-5.547
M15
G01X10.2362Y-5.547
M16
G05
G00X10.2598Y-5.8187
M15
G01X10.2362Y-5.8187
M16
G05
T9
G00X9.9567Y-4.9939
M15
G01X9.9252Y-4.9939
M16
G05
G00X9.9567Y-5.4348
M15
G01X9.9252Y-5.4348
M16
G05
M30
